M48
;DRILL file {KiCad (5.0.1)-3} date 9/5/2019 4:28:02 PM
;FORMAT={-:-/ absolute / inch / decimal}
FMAT,2
INCH,TZ
T1C0.0157
T2C0.0300
T3C0.0315
T4C0.0354
T5C0.0394
T6C0.0433
T7C0.0472
T8C0.0630
T9C0.1260
T10C0.0866
T11C0.1260
%
G90
G05
M72
T1
X0.22Y-4.67
X0.2362Y-5.128
X0.2362Y-5.4035
X0.31Y-4.61
X0.4Y-7.
X0.4331Y-5.8465
X0.6412Y-5.7505
X0.8Y-4.64
X0.85Y-6.75
X0.85Y-7.05
X0.8858Y-6.3287
X0.9Y-6.
X1.Y-6.95
X1.05Y-7.
X1.0893Y-6.6317
X1.0925Y-6.4075
X1.122Y-6.4469
X1.122Y-6.6634
X1.1506Y-6.3002
X1.2Y-5.14
X1.2Y-6.95
X1.25Y-7.
X1.4008Y-3.7332
X1.44Y-3.73
X1.78Y-4.61
X1.8354Y-4.4685
X1.8354Y-4.55
X1.8406Y-5.1476
X1.8515Y-5.7677
X1.87Y-4.6688
X1.9022Y-4.6185
X1.9263Y-5.28
X1.93Y-6.4065
X1.93Y-6.8404
X2.3363Y-4.2115
X2.37Y-4.25
X3.Y-7.05
X3.Y-6.75
T2
X1.5429Y-7.9921
X1.6429Y-7.9921
X1.7429Y-7.9921
X1.8429Y-7.9921
X1.2929Y-7.7362
X1.3929Y-7.7362
X1.4929Y-7.7362
X1.5929Y-7.7362
X1.6929Y-7.7362
X1.7929Y-7.7362
X1.8929Y-7.7362
X1.9929Y-7.7362
X2.0929Y-7.7362
X2.82Y-6.38
X2.92Y-6.38
X3.02Y-6.38
X3.12Y-6.38
X3.22Y-6.38
X1.75Y-5.6447
X1.75Y-6.2353
X0.1323Y-5.2406
X0.1323Y-5.9406
X0.2323Y-5.2406
X0.2323Y-5.9406
X0.3323Y-5.2406
X0.3323Y-5.9406
X0.4323Y-5.2406
X0.4323Y-5.9406
X0.5323Y-5.2406
X0.5323Y-5.9406
X0.6323Y-5.2406
X0.6323Y-5.9406
X0.7323Y-5.2406
X0.7323Y-5.9406
X0.8323Y-5.2406
X0.8323Y-5.9406
X2.527Y-4.5257
X2.627Y-4.5257
X2.727Y-4.5257
T3
X3.2283Y-3.8189
X3.2283Y-3.9173
X1.0236Y-5.2118
X1.0236Y-5.5118
X0.1Y-7.1
X0.2Y-7.1
X0.3Y-7.1
X0.2142Y-4.4488
X0.2142Y-5.0488
X0.3142Y-4.4488
X0.3142Y-5.0488
X0.4142Y-4.4488
X0.4142Y-5.0488
X0.5142Y-4.4488
X0.5142Y-5.0488
X0.6142Y-4.4488
X0.6142Y-5.0488
X0.7142Y-4.4488
X0.7142Y-5.0488
X0.8142Y-4.4488
X0.8142Y-5.0488
X0.9142Y-4.4488
X0.9142Y-5.0488
X1.0142Y-4.4488
X1.0142Y-5.0488
X1.1142Y-4.4488
X1.1142Y-5.0488
X1.2142Y-4.4488
X1.2142Y-5.0488
X1.3142Y-4.4488
X1.3142Y-5.0488
X1.4142Y-4.4488
X1.4142Y-5.0488
X1.5142Y-4.4488
X1.5142Y-5.0488
X1.6142Y-4.4488
X1.6142Y-5.0488
X0.93Y-3.9416
X0.93Y-4.04
X1.0236Y-6.0189
X1.0236Y-6.3189
X0.1575Y-7.2835
X0.1575Y-7.5835
X0.2756Y-7.2835
X0.2756Y-7.5835
X1.24Y-3.9416
X1.24Y-4.04
X0.98Y-4.1732
X1.08Y-4.1732
X1.18Y-4.1732
X0.1969Y-3.8189
X0.1969Y-3.9173
X3.2Y-6.75
X3.2Y-7.05
T4
X0.5807Y-6.4272
X0.6807Y-6.4272
X0.2165Y-7.7362
X0.2165Y-7.8362
T5
X0.66Y-3.5205
X0.66Y-3.6205
X0.66Y-3.7205
X0.5118Y-3.5205
X0.5118Y-3.6205
X0.5118Y-3.7205
X2.72Y-3.52
X2.72Y-3.62
X2.72Y-3.72
X1.0749Y-3.5036
X1.0749Y-3.6036
X1.0749Y-3.7036
X3.05Y-7.3
X3.05Y-7.4969
X1.3354Y-4.1667
X1.4354Y-4.1667
X1.5354Y-4.1667
X1.6354Y-4.1667
X1.7354Y-4.1667
X1.8354Y-4.1667
X1.9354Y-4.1667
X2.874Y-3.5205
X2.874Y-3.6205
X2.874Y-3.7205
T6
X0.1673Y-6.3301
X0.1673Y-6.5073
X0.4232Y-6.3301
X0.4232Y-6.5073
T7
X0.1315Y-4.2717
X0.5315Y-4.2717
X0.1315Y-4.1
X0.5315Y-4.1
X2.8677Y-4.0945
X3.2677Y-4.0945
X2.8677Y-4.27
X3.2677Y-4.27
T8
X2.0984Y-3.7795
X2.2835Y-3.6614
X2.2835Y-3.8976
T9
X2.7362Y-8.0709
X0.6496Y-8.0709
T10
X2.1626Y-4.4764
X3.2531Y-5.2835
X3.2531Y-4.4764
X3.2169Y-5.5165
X2.8234Y-5.5167
T11
X0.7874Y-7.2835
X0.7874Y-4.2126
X2.5984Y-7.2835
X2.5984Y-4.2126
T0
M30
