G04 #@! TF.GenerationSoftware,KiCad,Pcbnew,(5.0.1)-3*
G04 #@! TF.CreationDate,2019-09-05T16:28:01-04:00*
G04 #@! TF.ProjectId,EMU_Robot,454D555F526F626F742E6B696361645F,rev?*
G04 #@! TF.SameCoordinates,Original*
G04 #@! TF.FileFunction,Copper,L1,Top,Signal*
G04 #@! TF.FilePolarity,Positive*
%FSLAX46Y46*%
G04 Gerber Fmt 4.6, Leading zero omitted, Abs format (unit mm)*
G04 Created by KiCad (PCBNEW (5.0.1)-3) date 9/5/2019 4:28:01 PM*
%MOMM*%
%LPD*%
G01*
G04 APERTURE LIST*
G04 #@! TA.AperFunction,ComponentPad*
%ADD10C,1.524000*%
G04 #@! TD*
G04 #@! TA.AperFunction,ComponentPad*
%ADD11C,1.600000*%
G04 #@! TD*
G04 #@! TA.AperFunction,ComponentPad*
%ADD12O,1.600000X1.600000*%
G04 #@! TD*
G04 #@! TA.AperFunction,ComponentPad*
%ADD13R,2.000000X2.000000*%
G04 #@! TD*
G04 #@! TA.AperFunction,ComponentPad*
%ADD14C,2.000000*%
G04 #@! TD*
G04 #@! TA.AperFunction,ComponentPad*
%ADD15R,1.524000X1.524000*%
G04 #@! TD*
G04 #@! TA.AperFunction,ComponentPad*
%ADD16R,1.700000X1.700000*%
G04 #@! TD*
G04 #@! TA.AperFunction,ComponentPad*
%ADD17O,1.700000X1.700000*%
G04 #@! TD*
G04 #@! TA.AperFunction,ComponentPad*
%ADD18C,6.400000*%
G04 #@! TD*
G04 #@! TA.AperFunction,ComponentPad*
%ADD19C,1.800000*%
G04 #@! TD*
G04 #@! TA.AperFunction,ComponentPad*
%ADD20R,1.800000X1.800000*%
G04 #@! TD*
G04 #@! TA.AperFunction,ComponentPad*
%ADD21O,2.400000X2.400000*%
G04 #@! TD*
G04 #@! TA.AperFunction,ComponentPad*
%ADD22R,2.400000X2.400000*%
G04 #@! TD*
G04 #@! TA.AperFunction,ComponentPad*
%ADD23R,2.600000X2.600000*%
G04 #@! TD*
G04 #@! TA.AperFunction,ComponentPad*
%ADD24C,2.600000*%
G04 #@! TD*
G04 #@! TA.AperFunction,ComponentPad*
%ADD25R,1.600000X1.600000*%
G04 #@! TD*
G04 #@! TA.AperFunction,SMDPad,CuDef*
%ADD26R,7.250000X1.300000*%
G04 #@! TD*
G04 #@! TA.AperFunction,ComponentPad*
%ADD27C,1.500000*%
G04 #@! TD*
G04 #@! TA.AperFunction,ComponentPad*
%ADD28R,1.500000X1.500000*%
G04 #@! TD*
G04 #@! TA.AperFunction,ViaPad*
%ADD29C,0.800000*%
G04 #@! TD*
G04 #@! TA.AperFunction,Conductor*
%ADD30C,0.250000*%
G04 #@! TD*
G04 #@! TA.AperFunction,Conductor*
%ADD31C,2.100000*%
G04 #@! TD*
G04 #@! TA.AperFunction,Conductor*
%ADD32C,0.254000*%
G04 #@! TD*
G04 APERTURE END LIST*
D10*
G04 #@! TO.P,M5,1*
G04 #@! TO.N,+5V*
X64186000Y-114952000D03*
G04 #@! TO.P,M5,3*
G04 #@! TO.N,PIR_OUTPUT*
X69266000Y-114952000D03*
G04 #@! TO.P,M5,2*
G04 #@! TO.N,GND*
X66726000Y-114952000D03*
G04 #@! TD*
G04 #@! TO.P,M6,5*
G04 #@! TO.N,Net-(M6-Pad5)*
X81788000Y-162052000D03*
G04 #@! TO.P,M6,4*
G04 #@! TO.N,MIC_OUTPUT*
X79248000Y-162052000D03*
G04 #@! TO.P,M6,3*
G04 #@! TO.N,MIC_GAIN*
X76708000Y-162052000D03*
G04 #@! TO.P,M6,2*
G04 #@! TO.N,+5V*
X74168000Y-162052000D03*
G04 #@! TO.P,M6,1*
G04 #@! TO.N,GND*
X71628000Y-162052000D03*
G04 #@! TD*
D11*
G04 #@! TO.P,R1,1*
G04 #@! TO.N,+5V*
X7000000Y-185000000D03*
D12*
G04 #@! TO.P,R1,2*
G04 #@! TO.N,BUMP_SENSE*
X7000000Y-192620000D03*
G04 #@! TD*
D13*
G04 #@! TO.P,C5,1*
G04 #@! TO.N,+5V*
X77470000Y-185420000D03*
D14*
G04 #@! TO.P,C5,2*
G04 #@! TO.N,GND*
X77470000Y-190420000D03*
G04 #@! TD*
D10*
G04 #@! TO.P,M3,9*
G04 #@! TO.N,+5V*
X53160000Y-196500000D03*
G04 #@! TO.P,M3,8*
G04 #@! TO.N,Net-(M3-Pad8)*
X50620000Y-196500000D03*
G04 #@! TO.P,M3,7*
G04 #@! TO.N,RFID_RST*
X48080000Y-196500000D03*
G04 #@! TO.P,M3,6*
G04 #@! TO.N,GND*
X45540000Y-196500000D03*
G04 #@! TO.P,M3,5*
G04 #@! TO.N,Net-(M3-Pad5)*
X43000000Y-196500000D03*
G04 #@! TO.P,M3,4*
G04 #@! TO.N,MISO*
X40460000Y-196500000D03*
G04 #@! TO.P,M3,3*
G04 #@! TO.N,MOSI*
X37920000Y-196500000D03*
G04 #@! TO.P,M3,2*
G04 #@! TO.N,SCK*
X35380000Y-196500000D03*
D15*
G04 #@! TO.P,M3,1*
G04 #@! TO.N,SS*
X32840000Y-196500000D03*
G04 #@! TD*
D12*
G04 #@! TO.P,R3,2*
G04 #@! TO.N,DIN*
X81280000Y-179070000D03*
D11*
G04 #@! TO.P,R3,1*
G04 #@! TO.N,Net-(D7-Pad7)*
X81280000Y-171450000D03*
G04 #@! TD*
D16*
G04 #@! TO.P,J1,1*
G04 #@! TO.N,GND*
X49160000Y-105835000D03*
D17*
G04 #@! TO.P,J1,2*
G04 #@! TO.N,+5V*
X46620000Y-105835000D03*
G04 #@! TO.P,J1,3*
G04 #@! TO.N,BUMP_SENSE*
X44080000Y-105835000D03*
G04 #@! TO.P,J1,4*
G04 #@! TO.N,ENCODER_2_SIGNAL*
X41540000Y-105835000D03*
G04 #@! TO.P,J1,5*
G04 #@! TO.N,ENCODER_1_SIGNAL*
X39000000Y-105835000D03*
G04 #@! TO.P,J1,6*
G04 #@! TO.N,SERVO_2_SIGNAL*
X36460000Y-105835000D03*
G04 #@! TO.P,J1,7*
G04 #@! TO.N,SERVO_1_SIGNAL*
X33920000Y-105835000D03*
G04 #@! TD*
D12*
G04 #@! TO.P,R2,2*
G04 #@! TO.N,Net-(D5-Pad2)*
X4000000Y-192620000D03*
D11*
G04 #@! TO.P,R2,1*
G04 #@! TO.N,+5V*
X4000000Y-185000000D03*
G04 #@! TD*
D16*
G04 #@! TO.P,J2,1*
G04 #@! TO.N,SERVO_1_SIGNAL*
X69088000Y-94488000D03*
D17*
G04 #@! TO.P,J2,2*
G04 #@! TO.N,SERVO_1_PWR*
X69088000Y-91948000D03*
G04 #@! TO.P,J2,3*
G04 #@! TO.N,GND*
X69088000Y-89408000D03*
G04 #@! TD*
G04 #@! TO.P,J4,3*
G04 #@! TO.N,GND*
X16764000Y-89420000D03*
G04 #@! TO.P,J4,2*
G04 #@! TO.N,SERVO_2_PWR*
X16764000Y-91960000D03*
D16*
G04 #@! TO.P,J4,1*
G04 #@! TO.N,SERVO_2_SIGNAL*
X16764000Y-94500000D03*
G04 #@! TD*
D17*
G04 #@! TO.P,J3,3*
G04 #@! TO.N,Net-(D3-Pad1)*
X73000000Y-89420000D03*
G04 #@! TO.P,J3,2*
G04 #@! TO.N,GND*
X73000000Y-91960000D03*
D16*
G04 #@! TO.P,J3,1*
G04 #@! TO.N,ENCODER_1_SIGNAL*
X73000000Y-94500000D03*
G04 #@! TD*
G04 #@! TO.P,J5,1*
G04 #@! TO.N,ENCODER_2_SIGNAL*
X13000000Y-94500000D03*
D17*
G04 #@! TO.P,J5,2*
G04 #@! TO.N,GND*
X13000000Y-91960000D03*
G04 #@! TO.P,J5,3*
G04 #@! TO.N,Net-(D4-Pad1)*
X13000000Y-89420000D03*
G04 #@! TD*
D18*
G04 #@! TO.P,H4,1*
G04 #@! TO.N,BUMP_SENSE*
X16500000Y-205000000D03*
G04 #@! TD*
G04 #@! TO.P,H5,1*
G04 #@! TO.N,GND*
X69500000Y-205000000D03*
G04 #@! TD*
D19*
G04 #@! TO.P,D5,2*
G04 #@! TO.N,Net-(D5-Pad2)*
X5500000Y-199040000D03*
D20*
G04 #@! TO.P,D5,1*
G04 #@! TO.N,Net-(D5-Pad1)*
X5500000Y-196500000D03*
G04 #@! TD*
D11*
G04 #@! TO.P,C1,1*
G04 #@! TO.N,VDD*
X31496000Y-102616000D03*
G04 #@! TO.P,C1,2*
G04 #@! TO.N,GND*
X31496000Y-100116000D03*
G04 #@! TD*
G04 #@! TO.P,C2,2*
G04 #@! TO.N,GND*
X23622000Y-100116000D03*
G04 #@! TO.P,C2,1*
G04 #@! TO.N,+5VA*
X23622000Y-102616000D03*
G04 #@! TD*
D21*
G04 #@! TO.P,D1,2*
G04 #@! TO.N,VDD*
X72840000Y-104000000D03*
D22*
G04 #@! TO.P,D1,1*
G04 #@! TO.N,SERVO_1_PWR*
X83000000Y-104000000D03*
G04 #@! TD*
G04 #@! TO.P,D2,1*
G04 #@! TO.N,SERVO_2_PWR*
X13500000Y-104140000D03*
D21*
G04 #@! TO.P,D2,2*
G04 #@! TO.N,VDD*
X3340000Y-104140000D03*
G04 #@! TD*
G04 #@! TO.P,D3,2*
G04 #@! TO.N,VDD*
X72840000Y-108458000D03*
D22*
G04 #@! TO.P,D3,1*
G04 #@! TO.N,Net-(D3-Pad1)*
X83000000Y-108458000D03*
G04 #@! TD*
G04 #@! TO.P,D4,1*
G04 #@! TO.N,Net-(D4-Pad1)*
X13500000Y-108500000D03*
D21*
G04 #@! TO.P,D4,2*
G04 #@! TO.N,VDD*
X3340000Y-108500000D03*
G04 #@! TD*
D23*
G04 #@! TO.P,J6,1*
G04 #@! TO.N,VDD*
X58000000Y-99000000D03*
D24*
G04 #@! TO.P,J6,2*
G04 #@! TO.N,GND*
X58000000Y-93000000D03*
G04 #@! TO.P,J6,3*
G04 #@! TO.N,N/C*
X53300000Y-96000000D03*
G04 #@! TD*
D25*
G04 #@! TO.P,C3,1*
G04 #@! TO.N,SERVO_1_PWR*
X82000000Y-97000000D03*
D11*
G04 #@! TO.P,C3,2*
G04 #@! TO.N,GND*
X82000000Y-99500000D03*
G04 #@! TD*
G04 #@! TO.P,C4,2*
G04 #@! TO.N,GND*
X5000000Y-99500000D03*
D25*
G04 #@! TO.P,C4,1*
G04 #@! TO.N,SERVO_2_PWR*
X5000000Y-97000000D03*
G04 #@! TD*
D15*
G04 #@! TO.P,M2,1*
G04 #@! TO.N,+5V*
X39190000Y-203000000D03*
D10*
G04 #@! TO.P,M2,2*
G04 #@! TO.N,US_TRIG*
X41730000Y-203000000D03*
G04 #@! TO.P,M2,3*
G04 #@! TO.N,US_ECHO*
X44270000Y-203000000D03*
G04 #@! TO.P,M2,4*
G04 #@! TO.N,GND*
X46810000Y-203000000D03*
G04 #@! TD*
G04 #@! TO.P,LS1,1*
G04 #@! TO.N,Net-(LS1-Pad1)*
X44450000Y-143376000D03*
G04 #@! TO.P,LS1,2*
G04 #@! TO.N,Net-(LS1-Pad2)*
X44450000Y-158376000D03*
G04 #@! TD*
G04 #@! TO.P,M4,1*
G04 #@! TO.N,+5V*
X21140000Y-133110000D03*
G04 #@! TO.P,M4,2*
G04 #@! TO.N,Net-(M4-Pad2)*
X18600000Y-133110000D03*
G04 #@! TO.P,M4,3*
G04 #@! TO.N,SOFT_RX*
X16060000Y-133110000D03*
G04 #@! TO.P,M4,4*
G04 #@! TO.N,Net-(M4-Pad4)*
X13520000Y-133110000D03*
G04 #@! TO.P,M4,5*
G04 #@! TO.N,Net-(M4-Pad5)*
X10980000Y-133110000D03*
G04 #@! TO.P,M4,6*
G04 #@! TO.N,Net-(LS1-Pad2)*
X8440000Y-133110000D03*
G04 #@! TO.P,M4,7*
G04 #@! TO.N,GND*
X5900000Y-133110000D03*
G04 #@! TO.P,M4,8*
G04 #@! TO.N,Net-(LS1-Pad1)*
X3360000Y-133110000D03*
G04 #@! TO.P,M4,9*
G04 #@! TO.N,Net-(M4-Pad9)*
X3360000Y-150890000D03*
G04 #@! TO.P,M4,10*
G04 #@! TO.N,GND*
X5900000Y-150890000D03*
G04 #@! TO.P,M4,11*
G04 #@! TO.N,Net-(M4-Pad11)*
X8440000Y-150890000D03*
G04 #@! TO.P,M4,12*
G04 #@! TO.N,Net-(M4-Pad12)*
X10980000Y-150890000D03*
G04 #@! TO.P,M4,13*
G04 #@! TO.N,Net-(M4-Pad13)*
X13520000Y-150890000D03*
G04 #@! TO.P,M4,14*
G04 #@! TO.N,Net-(M4-Pad14)*
X16060000Y-150890000D03*
G04 #@! TO.P,M4,15*
G04 #@! TO.N,Net-(M4-Pad15)*
X18600000Y-150890000D03*
G04 #@! TO.P,M4,16*
G04 #@! TO.N,MP3_BUSY*
X21140000Y-150890000D03*
G04 #@! TD*
D11*
G04 #@! TO.P,R4,1*
G04 #@! TO.N,Net-(M4-Pad2)*
X26000000Y-140000000D03*
D12*
G04 #@! TO.P,R4,2*
G04 #@! TO.N,SOFT_TX*
X26000000Y-132380000D03*
G04 #@! TD*
D16*
G04 #@! TO.P,JP1,1*
G04 #@! TO.N,+5VA*
X27302000Y-88992000D03*
D17*
G04 #@! TO.P,JP1,2*
G04 #@! TO.N,+5V*
X27302000Y-91532000D03*
G04 #@! TO.P,JP1,3*
G04 #@! TO.N,+5VP*
X27302000Y-94072000D03*
G04 #@! TD*
D20*
G04 #@! TO.P,D6,1*
G04 #@! TO.N,GND*
X14750000Y-163250000D03*
D19*
G04 #@! TO.P,D6,2*
G04 #@! TO.N,Net-(D6-Pad2)*
X17290000Y-163250000D03*
G04 #@! TD*
D11*
G04 #@! TO.P,R6,1*
G04 #@! TO.N,Net-(A1-Pad25)*
X26000000Y-160500000D03*
D12*
G04 #@! TO.P,R6,2*
G04 #@! TO.N,Net-(D6-Pad2)*
X26000000Y-152880000D03*
G04 #@! TD*
D14*
G04 #@! TO.P,SW1,2*
G04 #@! TO.N,GND*
X4250000Y-165285001D03*
G04 #@! TO.P,SW1,1*
G04 #@! TO.N,Net-(A1-Pad26)*
X4250000Y-160785001D03*
G04 #@! TO.P,SW1,2*
G04 #@! TO.N,GND*
X10750000Y-165285001D03*
G04 #@! TO.P,SW1,1*
G04 #@! TO.N,Net-(A1-Pad26)*
X10750000Y-160785001D03*
G04 #@! TD*
D12*
G04 #@! TO.P,A1,16*
G04 #@! TO.N,SCK*
X5440000Y-128240000D03*
G04 #@! TO.P,A1,15*
G04 #@! TO.N,MISO*
X5440000Y-113000000D03*
G04 #@! TO.P,A1,30*
G04 #@! TO.N,VDD*
X41000000Y-128240000D03*
G04 #@! TO.P,A1,14*
G04 #@! TO.N,MOSI*
X7980000Y-113000000D03*
G04 #@! TO.P,A1,29*
G04 #@! TO.N,GND*
X38460000Y-128240000D03*
G04 #@! TO.P,A1,13*
G04 #@! TO.N,SS*
X10520000Y-113000000D03*
G04 #@! TO.P,A1,28*
G04 #@! TO.N,Net-(A1-Pad28)*
X35920000Y-128240000D03*
G04 #@! TO.P,A1,12*
G04 #@! TO.N,RFID_RST*
X13060000Y-113000000D03*
G04 #@! TO.P,A1,27*
G04 #@! TO.N,+5VP*
X33380000Y-128240000D03*
G04 #@! TO.P,A1,11*
G04 #@! TO.N,US_TRIG*
X15600000Y-113000000D03*
G04 #@! TO.P,A1,26*
G04 #@! TO.N,Net-(A1-Pad26)*
X30840000Y-128240000D03*
G04 #@! TO.P,A1,10*
G04 #@! TO.N,US_ECHO*
X18140000Y-113000000D03*
G04 #@! TO.P,A1,25*
G04 #@! TO.N,Net-(A1-Pad25)*
X28300000Y-128240000D03*
G04 #@! TO.P,A1,9*
G04 #@! TO.N,ENCODER_2_SIGNAL*
X20680000Y-113000000D03*
G04 #@! TO.P,A1,24*
G04 #@! TO.N,MIC_OUTPUT*
X25760000Y-128240000D03*
G04 #@! TO.P,A1,8*
G04 #@! TO.N,SERVO_2_SIGNAL*
X23220000Y-113000000D03*
G04 #@! TO.P,A1,23*
G04 #@! TO.N,MIC_GAIN*
X23220000Y-128240000D03*
G04 #@! TO.P,A1,7*
G04 #@! TO.N,ENCODER_1_SIGNAL*
X25760000Y-113000000D03*
G04 #@! TO.P,A1,22*
G04 #@! TO.N,DIN*
X20680000Y-128240000D03*
G04 #@! TO.P,A1,6*
G04 #@! TO.N,SERVO_1_SIGNAL*
X28300000Y-113000000D03*
G04 #@! TO.P,A1,21*
G04 #@! TO.N,MP3_BUSY*
X18140000Y-128240000D03*
G04 #@! TO.P,A1,5*
G04 #@! TO.N,PIR_OUTPUT*
X30840000Y-113000000D03*
G04 #@! TO.P,A1,20*
G04 #@! TO.N,SOFT_TX*
X15600000Y-128240000D03*
G04 #@! TO.P,A1,4*
G04 #@! TO.N,GND*
X33380000Y-113000000D03*
G04 #@! TO.P,A1,19*
G04 #@! TO.N,SOFT_RX*
X13060000Y-128240000D03*
G04 #@! TO.P,A1,3*
G04 #@! TO.N,Net-(A1-Pad3)*
X35920000Y-113000000D03*
G04 #@! TO.P,A1,18*
G04 #@! TO.N,Net-(A1-Pad18)*
X10520000Y-128240000D03*
G04 #@! TO.P,A1,2*
G04 #@! TO.N,Net-(A1-Pad2)*
X38460000Y-113000000D03*
G04 #@! TO.P,A1,17*
G04 #@! TO.N,+3V3*
X7980000Y-128240000D03*
D25*
G04 #@! TO.P,A1,1*
G04 #@! TO.N,Net-(A1-Pad1)*
X41000000Y-113000000D03*
G04 #@! TD*
D26*
G04 #@! TO.P,D7,1*
G04 #@! TO.N,GND*
X15500000Y-171510000D03*
G04 #@! TO.P,D7,8*
X70500000Y-171510000D03*
G04 #@! TO.P,D7,2*
G04 #@! TO.N,Net-(D7-Pad2)*
X15500000Y-174010000D03*
G04 #@! TO.P,D7,7*
G04 #@! TO.N,Net-(D7-Pad7)*
X70500000Y-174010000D03*
G04 #@! TO.P,D7,3*
G04 #@! TO.N,+5V*
X15500000Y-176510000D03*
G04 #@! TO.P,D7,6*
X70500000Y-176510000D03*
G04 #@! TO.P,D7,4*
G04 #@! TO.N,GND*
X15500000Y-179010000D03*
G04 #@! TO.P,D7,5*
X70500000Y-179010000D03*
G04 #@! TD*
D27*
G04 #@! TO.P,Q1,2*
G04 #@! TO.N,BUMP_SENSE*
X5080000Y-180340000D03*
G04 #@! TO.P,Q1,3*
G04 #@! TO.N,Net-(D5-Pad1)*
X2540000Y-180340000D03*
D28*
G04 #@! TO.P,Q1,1*
G04 #@! TO.N,GND*
X7620000Y-180340000D03*
G04 #@! TD*
D27*
G04 #@! TO.P,U1,2*
G04 #@! TO.N,VDD*
X27432000Y-106000000D03*
G04 #@! TO.P,U1,3*
G04 #@! TO.N,+5VA*
X24892000Y-106000000D03*
D28*
G04 #@! TO.P,U1,1*
G04 #@! TO.N,GND*
X29972000Y-106000000D03*
G04 #@! TD*
D29*
G04 #@! TO.N,GND*
X6000000Y-137250000D03*
X21590000Y-179070004D03*
X21590000Y-171450000D03*
X76199984Y-179070000D03*
X76200000Y-171450000D03*
G04 #@! TO.N,+5V*
X46620000Y-115570000D03*
X48927021Y-134112000D03*
X46620000Y-113501010D03*
X49022000Y-162725010D03*
X49022000Y-173745320D03*
X10159932Y-177800000D03*
X35579315Y-94823504D03*
G04 #@! TO.N,SERVO_1_SIGNAL*
X60198000Y-107950000D03*
G04 #@! TO.N,ENCODER_1_SIGNAL*
X59343002Y-106970990D03*
G04 #@! TO.N,BUMP_SENSE*
X36576000Y-94742000D03*
G04 #@! TO.N,US_ECHO*
X27750000Y-162750000D03*
X27667940Y-168445293D03*
G04 #@! TO.N,US_TRIG*
X28500000Y-163750000D03*
X28500000Y-169250000D03*
G04 #@! TO.N,RFID_RST*
X20320000Y-117856000D03*
X48316991Y-117311010D03*
G04 #@! TO.N,SS*
X25400000Y-176530000D03*
X30480000Y-176530000D03*
G04 #@! TO.N,MOSI*
X45212000Y-117094000D03*
X7874000Y-117094000D03*
G04 #@! TO.N,MISO*
X5588000Y-118618000D03*
X47497117Y-118586445D03*
G04 #@! TO.N,SCK*
X26670000Y-177800000D03*
X31750000Y-177800000D03*
G04 #@! TO.N,Net-(LS1-Pad1)*
X16287340Y-146062660D03*
G04 #@! TO.N,Net-(LS1-Pad2)*
X22859984Y-152400000D03*
G04 #@! TO.N,MIC_GAIN*
X22500000Y-160750000D03*
G04 #@! TO.N,MIC_OUTPUT*
X30480000Y-130556000D03*
X29225010Y-160024990D03*
G04 #@! TO.N,Net-(A1-Pad25)*
X6000000Y-130250000D03*
G04 #@! TO.N,Net-(A1-Pad26)*
X11000000Y-148500000D03*
X47027000Y-146500000D03*
X46750000Y-130750000D03*
G04 #@! TD*
D30*
G04 #@! TO.N,VDD*
X31496000Y-102616000D02*
X31500000Y-103000000D01*
G04 #@! TO.N,GND*
X17000000Y-171750000D02*
X18475000Y-171750000D01*
X5900000Y-133110000D02*
X5900000Y-137150000D01*
X5900000Y-137150000D02*
X6000000Y-137250000D01*
X12700000Y-179070000D02*
X12700004Y-179070004D01*
X21024315Y-179070004D02*
X21590000Y-179070004D01*
X12700004Y-179070004D02*
X21024315Y-179070004D01*
X21530000Y-171510000D02*
X21590000Y-171450000D01*
X15500000Y-171510000D02*
X21530000Y-171510000D01*
X73220000Y-179010000D02*
X73280000Y-179070000D01*
X75634299Y-179070000D02*
X76199984Y-179070000D01*
X73280000Y-179070000D02*
X75634299Y-179070000D01*
X70500000Y-171510000D02*
X76140000Y-171510000D01*
X76140000Y-171510000D02*
X76200000Y-171450000D01*
G04 #@! TO.N,+5V*
X53160000Y-197577630D02*
X53160000Y-196500000D01*
X53160000Y-198258762D02*
X53160000Y-197577630D01*
X47331761Y-204087001D02*
X53160000Y-198258762D01*
X39265001Y-204087001D02*
X47331761Y-204087001D01*
X39190000Y-204012000D02*
X39265001Y-204087001D01*
X39190000Y-203000000D02*
X39190000Y-204012000D01*
X22142000Y-134112000D02*
X48361336Y-134112000D01*
X48361336Y-134112000D02*
X48927021Y-134112000D01*
X21140000Y-133110000D02*
X22142000Y-134112000D01*
X46620000Y-115570000D02*
X46620000Y-113501010D01*
X51786680Y-176510000D02*
X73220000Y-176510000D01*
X49022000Y-173745320D02*
X51786680Y-176510000D01*
X7000000Y-185000000D02*
X7000000Y-189880000D01*
X7000000Y-189880000D02*
X10922000Y-193802000D01*
X10559931Y-177400001D02*
X10159932Y-177800000D01*
X18220000Y-176510000D02*
X11449932Y-176510000D01*
X11449932Y-176510000D02*
X10559931Y-177400001D01*
X73220000Y-176510000D02*
X70245000Y-176510000D01*
X77095000Y-176510000D02*
X73220000Y-176510000D01*
X80385002Y-176510000D02*
X77095000Y-176510000D01*
X82405001Y-178529999D02*
X80385002Y-176510000D01*
X82405001Y-181734999D02*
X82405001Y-178529999D01*
X78720000Y-185420000D02*
X82405001Y-181734999D01*
X77470000Y-185420000D02*
X78720000Y-185420000D01*
X10159932Y-181840068D02*
X10159932Y-177800000D01*
X7000000Y-185000000D02*
X10159932Y-181840068D01*
X67525000Y-176510000D02*
X70500000Y-176510000D01*
X66040000Y-175025000D02*
X67525000Y-176510000D01*
X74168000Y-162052000D02*
X66040000Y-170180000D01*
X66040000Y-170180000D02*
X66040000Y-175025000D01*
X43515999Y-107010001D02*
X42904999Y-106399001D01*
X37047000Y-95975002D02*
X36730813Y-95975002D01*
X45444999Y-107010001D02*
X43515999Y-107010001D01*
X35979314Y-95223503D02*
X35579315Y-94823504D01*
X36730813Y-95975002D02*
X35979314Y-95223503D01*
X42904999Y-101833001D02*
X37047000Y-95975002D01*
X46620000Y-105835000D02*
X45444999Y-107010001D01*
X42904999Y-106399001D02*
X42904999Y-101833001D01*
X47636000Y-116586000D02*
X46620000Y-115570000D01*
X64186000Y-114952000D02*
X62552000Y-116586000D01*
X62552000Y-116586000D02*
X47636000Y-116586000D01*
G04 #@! TO.N,Net-(D3-Pad1)*
X81550000Y-108000000D02*
X83000000Y-108000000D01*
X80624990Y-107074990D02*
X81550000Y-108000000D01*
X80624990Y-97044990D02*
X80624990Y-107074990D01*
X73000000Y-89420000D02*
X80624990Y-97044990D01*
G04 #@! TO.N,Net-(D4-Pad1)*
X11797919Y-89420000D02*
X13000000Y-89420000D01*
X10394998Y-89420000D02*
X11797919Y-89420000D01*
X3624990Y-96190008D02*
X10394998Y-89420000D01*
X3624990Y-100124990D02*
X3624990Y-96190008D01*
X12000000Y-108500000D02*
X3624990Y-100124990D01*
X13500000Y-108500000D02*
X12000000Y-108500000D01*
G04 #@! TO.N,SERVO_1_SIGNAL*
X33920000Y-107380000D02*
X33920000Y-105835000D01*
X28300000Y-113000000D02*
X33920000Y-107380000D01*
X36434999Y-108349999D02*
X59798001Y-108349999D01*
X59798001Y-108349999D02*
X60198000Y-107950000D01*
X33920000Y-105835000D02*
X36434999Y-108349999D01*
G04 #@! TO.N,ENCODER_1_SIGNAL*
X59343002Y-107026998D02*
X59343002Y-106970990D01*
X58674000Y-107696000D02*
X59343002Y-107026998D01*
X39000000Y-105835000D02*
X40861000Y-107696000D01*
X40861000Y-107696000D02*
X58674000Y-107696000D01*
D31*
G04 #@! TO.N,SERVO_1_PWR*
X82534002Y-97000000D02*
X82000000Y-97000000D01*
X84050001Y-98515999D02*
X82534002Y-97000000D01*
X84050001Y-100484001D02*
X84050001Y-98515999D01*
X83000000Y-101534002D02*
X84050001Y-100484001D01*
X83000000Y-104000000D02*
X83000000Y-101534002D01*
X67885919Y-91948000D02*
X69088000Y-91948000D01*
X82000000Y-94100000D02*
X74514000Y-86614000D01*
X74514000Y-86614000D02*
X67310000Y-86614000D01*
X67310000Y-86614000D02*
X66294000Y-87630000D01*
X66294000Y-87630000D02*
X66294000Y-90356081D01*
X82000000Y-97000000D02*
X82000000Y-94100000D01*
X66294000Y-90356081D02*
X67885919Y-91948000D01*
G04 #@! TO.N,SERVO_2_PWR*
X6000000Y-97000000D02*
X5000000Y-97000000D01*
X13500000Y-104140000D02*
X6000000Y-97000000D01*
X7900000Y-97000000D02*
X5000000Y-97000000D01*
X18214002Y-97000000D02*
X7900000Y-97000000D01*
X18864001Y-96350001D02*
X18214002Y-97000000D01*
X18864001Y-92649999D02*
X18864001Y-96350001D01*
X18174002Y-91960000D02*
X18864001Y-92649999D01*
X16764000Y-91960000D02*
X18174002Y-91960000D01*
D30*
G04 #@! TO.N,BUMP_SENSE*
X6200001Y-191820001D02*
X7000000Y-192620000D01*
X5829999Y-191449999D02*
X6200001Y-191820001D01*
X5829999Y-181089999D02*
X5829999Y-191449999D01*
X5080000Y-180340000D02*
X5829999Y-181089999D01*
X7000000Y-195500000D02*
X16500000Y-205000000D01*
X7000000Y-192620000D02*
X7000000Y-195500000D01*
X36975999Y-95141999D02*
X36576000Y-94742000D01*
X44080000Y-102246000D02*
X36975999Y-95141999D01*
X44080000Y-105835000D02*
X44080000Y-102246000D01*
G04 #@! TO.N,Net-(D5-Pad1)*
X3289999Y-181089999D02*
X2540000Y-180340000D01*
X5379989Y-183179989D02*
X3289999Y-181089999D01*
X5379989Y-195229989D02*
X5379989Y-183179989D01*
X5500000Y-195350000D02*
X5379989Y-195229989D01*
X5500000Y-196500000D02*
X5500000Y-195350000D01*
G04 #@! TO.N,Net-(D5-Pad2)*
X4000000Y-197540000D02*
X5500000Y-199040000D01*
X4000000Y-192620000D02*
X4000000Y-197540000D01*
G04 #@! TO.N,US_ECHO*
X27750000Y-162750000D02*
X27750000Y-168363233D01*
X27750000Y-168363233D02*
X27667940Y-168445293D01*
G04 #@! TO.N,US_TRIG*
X28500000Y-163750000D02*
X28500000Y-169250000D01*
G04 #@! TO.N,RFID_RST*
X20320000Y-117856000D02*
X47772001Y-117856000D01*
X47772001Y-117856000D02*
X47916992Y-117711009D01*
X47916992Y-117711009D02*
X48316991Y-117311010D01*
G04 #@! TO.N,SS*
X25400000Y-176530000D02*
X30480000Y-176530000D01*
G04 #@! TO.N,MOSI*
X45212000Y-117094000D02*
X7874000Y-117094000D01*
G04 #@! TO.N,MISO*
X47465562Y-118618000D02*
X47497117Y-118586445D01*
X5588000Y-118618000D02*
X47465562Y-118618000D01*
G04 #@! TO.N,SCK*
X26670000Y-177800000D02*
X31750000Y-177800000D01*
G04 #@! TO.N,DIN*
X80010000Y-177800000D02*
X81280000Y-179070000D01*
X52440270Y-177800000D02*
X80010000Y-177800000D01*
X7746239Y-127114999D02*
X7439999Y-127114999D01*
X8369238Y-126492000D02*
X7746239Y-127114999D01*
X20139999Y-127327999D02*
X19304000Y-126492000D01*
X2272999Y-172452999D02*
X5080000Y-175260000D01*
X19304000Y-126492000D02*
X8369238Y-126492000D01*
X5080000Y-175260000D02*
X49900270Y-175260000D01*
X20680000Y-128240000D02*
X20139999Y-127699999D01*
X7439999Y-127114999D02*
X6854999Y-127699999D01*
X6854999Y-127699999D02*
X6854999Y-128006239D01*
X6854999Y-128006239D02*
X6565001Y-128296237D01*
X6565001Y-128780001D02*
X5980001Y-129365001D01*
X5980001Y-129365001D02*
X5496237Y-129365001D01*
X6565001Y-128296237D02*
X6565001Y-128780001D01*
X5496237Y-129365001D02*
X2272999Y-132588239D01*
X49900270Y-175260000D02*
X52440270Y-177800000D01*
X20139999Y-127699999D02*
X20139999Y-127327999D01*
X2272999Y-132588239D02*
X2272999Y-172452999D01*
G04 #@! TO.N,Net-(LS1-Pad1)*
X16300000Y-146050000D02*
X16300000Y-146050000D01*
X44450000Y-143376000D02*
X41763340Y-146062660D01*
X41763340Y-146062660D02*
X16853025Y-146062660D01*
X16853025Y-146062660D02*
X16287340Y-146062660D01*
G04 #@! TO.N,Net-(LS1-Pad2)*
X44050001Y-157975949D02*
X44450000Y-158375948D01*
X37824052Y-151750000D02*
X44050001Y-157975949D01*
X22859984Y-152400000D02*
X23509984Y-151750000D01*
X23509984Y-151750000D02*
X37824052Y-151750000D01*
G04 #@! TO.N,+5VP*
X25175001Y-91945001D02*
X27302000Y-94072000D01*
X24579992Y-87794990D02*
X25175001Y-88389999D01*
X11383598Y-87794990D02*
X24579992Y-87794990D01*
X1814999Y-97363589D02*
X11383598Y-87794990D01*
X25175001Y-88389999D02*
X25175001Y-91945001D01*
X33380000Y-128240000D02*
X32254999Y-127114999D01*
X20563410Y-127114999D02*
X19236400Y-125787989D01*
X19236400Y-125787989D02*
X9287989Y-125787989D01*
X9287989Y-125787989D02*
X1814999Y-118314999D01*
X32254999Y-127114999D02*
X20563410Y-127114999D01*
X1814999Y-118314999D02*
X1814999Y-97363589D01*
G04 #@! TO.N,PIR_OUTPUT*
X31639999Y-113799999D02*
X30840000Y-113000000D01*
X31965001Y-114125001D02*
X31639999Y-113799999D01*
X42060001Y-114125001D02*
X31965001Y-114125001D01*
X69266000Y-114952000D02*
X65312000Y-110998000D01*
X65312000Y-110998000D02*
X44450000Y-110998000D01*
X42125001Y-113322999D02*
X42125001Y-114060001D01*
X44450000Y-110998000D02*
X42125001Y-113322999D01*
X42125001Y-114060001D02*
X42060001Y-114125001D01*
G04 #@! TO.N,MIC_GAIN*
X75620999Y-160964999D02*
X71106239Y-160964999D01*
X70421239Y-161649999D02*
X23399999Y-161649999D01*
X71106239Y-160964999D02*
X70421239Y-161649999D01*
X76708000Y-162052000D02*
X75620999Y-160964999D01*
X22899999Y-161149999D02*
X22500000Y-160750000D01*
X23399999Y-161649999D02*
X22899999Y-161149999D01*
G04 #@! TO.N,MIC_OUTPUT*
X28076000Y-130556000D02*
X25760000Y-128240000D01*
X30480000Y-130556000D02*
X28076000Y-130556000D01*
X79248000Y-162052000D02*
X77220990Y-160024990D01*
X29790695Y-160024990D02*
X29225010Y-160024990D01*
X77220990Y-160024990D02*
X29790695Y-160024990D01*
G04 #@! TO.N,Net-(A1-Pad25)*
X27133590Y-130250000D02*
X6000000Y-130250000D01*
X28164591Y-131281001D02*
X27133590Y-130250000D01*
X29099999Y-129039999D02*
X30037001Y-129039999D01*
X28300000Y-128240000D02*
X29099999Y-129039999D01*
X30037001Y-129039999D02*
X31205001Y-130207999D01*
X31205001Y-130207999D02*
X31205001Y-130904001D01*
X31205001Y-130904001D02*
X30828001Y-131281001D01*
X30828001Y-131281001D02*
X28164591Y-131281001D01*
G04 #@! TO.N,Net-(A1-Pad26)*
X5664213Y-160785001D02*
X10750000Y-160785001D01*
X4250000Y-160785001D02*
X5664213Y-160785001D01*
X33350000Y-130750000D02*
X30840000Y-128240000D01*
X46750000Y-130750000D02*
X33350000Y-130750000D01*
X46527000Y-147000000D02*
X47027000Y-146500000D01*
X11000000Y-148500000D02*
X12500000Y-147000000D01*
X12500000Y-147000000D02*
X46527000Y-147000000D01*
G04 #@! TO.N,Net-(D6-Pad2)*
X17290000Y-161590000D02*
X26000000Y-152880000D01*
X17290000Y-163250000D02*
X17290000Y-161590000D01*
G04 #@! TO.N,Net-(D7-Pad7)*
X76220000Y-174010000D02*
X73220000Y-174010000D01*
X78720000Y-174010000D02*
X73220000Y-174010000D01*
X81280000Y-171450000D02*
X78720000Y-174010000D01*
G04 #@! TD*
D32*
G04 #@! TO.N,VDD*
G36*
X65219876Y-86321175D02*
X65079183Y-86415183D01*
X64706765Y-86972547D01*
X64609000Y-87464044D01*
X64609000Y-87464048D01*
X64575990Y-87630000D01*
X64609000Y-87795953D01*
X64609001Y-90190124D01*
X64575990Y-90356081D01*
X64706766Y-91013535D01*
X64985176Y-91430206D01*
X64985178Y-91430208D01*
X65079184Y-91570898D01*
X65219874Y-91664904D01*
X66577094Y-93022124D01*
X66671102Y-93162817D01*
X67228465Y-93535235D01*
X67596442Y-93608430D01*
X67590560Y-93638000D01*
X67590560Y-95338000D01*
X67639843Y-95585765D01*
X67780191Y-95795809D01*
X67990235Y-95936157D01*
X68238000Y-95985440D01*
X69938000Y-95985440D01*
X70185765Y-95936157D01*
X70395809Y-95795809D01*
X70536157Y-95585765D01*
X70585440Y-95338000D01*
X70585440Y-93638000D01*
X70536157Y-93390235D01*
X70395809Y-93180191D01*
X70323494Y-93131871D01*
X70675235Y-92605454D01*
X70806011Y-91948000D01*
X70675235Y-91290546D01*
X70302817Y-90733183D01*
X70040234Y-90557731D01*
X70158625Y-90478625D01*
X70486839Y-89987418D01*
X70602092Y-89408000D01*
X70486839Y-88828582D01*
X70158625Y-88337375D01*
X70101193Y-88299000D01*
X72004767Y-88299000D01*
X71929375Y-88349375D01*
X71601161Y-88840582D01*
X71485908Y-89420000D01*
X71601161Y-89999418D01*
X71929375Y-90490625D01*
X72227761Y-90690000D01*
X71929375Y-90889375D01*
X71601161Y-91380582D01*
X71485908Y-91960000D01*
X71601161Y-92539418D01*
X71929375Y-93030625D01*
X71947619Y-93042816D01*
X71902235Y-93051843D01*
X71692191Y-93192191D01*
X71551843Y-93402235D01*
X71502560Y-93650000D01*
X71502560Y-95350000D01*
X71551843Y-95597765D01*
X71692191Y-95807809D01*
X71902235Y-95948157D01*
X72150000Y-95997440D01*
X73850000Y-95997440D01*
X74097765Y-95948157D01*
X74307809Y-95807809D01*
X74448157Y-95597765D01*
X74497440Y-95350000D01*
X74497440Y-93650000D01*
X74448157Y-93402235D01*
X74307809Y-93192191D01*
X74097765Y-93051843D01*
X74052381Y-93042816D01*
X74070625Y-93030625D01*
X74398839Y-92539418D01*
X74505980Y-92000781D01*
X79864990Y-97359792D01*
X79864991Y-107000138D01*
X79850102Y-107074990D01*
X79909087Y-107371527D01*
X80033638Y-107557930D01*
X80077062Y-107622919D01*
X80140518Y-107665319D01*
X80959671Y-108484473D01*
X81002071Y-108547929D01*
X81065527Y-108590329D01*
X81152560Y-108648483D01*
X81152560Y-109658000D01*
X81201843Y-109905765D01*
X81342191Y-110115809D01*
X81552235Y-110256157D01*
X81800000Y-110305440D01*
X84200000Y-110305440D01*
X84447765Y-110256157D01*
X84657809Y-110115809D01*
X84798157Y-109905765D01*
X84847440Y-109658000D01*
X84847440Y-107258000D01*
X84798157Y-107010235D01*
X84657809Y-106800191D01*
X84447765Y-106659843D01*
X84200000Y-106610560D01*
X81800000Y-106610560D01*
X81552235Y-106659843D01*
X81391827Y-106767025D01*
X81384990Y-106760189D01*
X81384990Y-105686407D01*
X81552235Y-105798157D01*
X81800000Y-105847440D01*
X84200000Y-105847440D01*
X84447765Y-105798157D01*
X84657809Y-105657809D01*
X84798157Y-105447765D01*
X84847440Y-105200000D01*
X84847440Y-102800000D01*
X84798157Y-102552235D01*
X84685000Y-102382885D01*
X84685000Y-102231951D01*
X85124125Y-101792826D01*
X85264818Y-101698818D01*
X85290001Y-101661129D01*
X85290000Y-204968382D01*
X85219422Y-205759193D01*
X85018295Y-206494389D01*
X84690152Y-207182355D01*
X84245374Y-207801328D01*
X83698012Y-208331761D01*
X83065362Y-208756883D01*
X82367439Y-209063251D01*
X81620819Y-209242499D01*
X80973970Y-209290000D01*
X5031618Y-209290000D01*
X4240807Y-209219422D01*
X3505611Y-209018295D01*
X2817645Y-208690152D01*
X2198672Y-208245374D01*
X1668239Y-207698012D01*
X1243117Y-207065362D01*
X936749Y-206367439D01*
X757501Y-205620819D01*
X710000Y-204973970D01*
X710000Y-97363589D01*
X1040111Y-97363589D01*
X1055000Y-97438441D01*
X1054999Y-118240152D01*
X1040111Y-118314999D01*
X1054999Y-118389846D01*
X1054999Y-118389850D01*
X1099095Y-118611535D01*
X1267070Y-118862928D01*
X1330529Y-118905330D01*
X8179959Y-125754761D01*
X8072701Y-125776096D01*
X7821309Y-125944071D01*
X7778909Y-126007527D01*
X7445276Y-126341161D01*
X7439999Y-126340111D01*
X7365152Y-126354999D01*
X7365147Y-126354999D01*
X7143462Y-126399095D01*
X6892070Y-126567070D01*
X6849670Y-126630526D01*
X6370529Y-127109668D01*
X6350899Y-127122784D01*
X5999909Y-126888260D01*
X5581333Y-126805000D01*
X5298667Y-126805000D01*
X4880091Y-126888260D01*
X4405423Y-127205423D01*
X4088260Y-127680091D01*
X3976887Y-128240000D01*
X4088260Y-128799909D01*
X4405423Y-129274577D01*
X4469227Y-129317209D01*
X1788529Y-131997908D01*
X1725070Y-132040310D01*
X1557095Y-132291703D01*
X1512999Y-132513388D01*
X1512999Y-132513392D01*
X1498111Y-132588239D01*
X1512999Y-132663086D01*
X1513000Y-172378147D01*
X1498111Y-172452999D01*
X1513000Y-172527851D01*
X1557096Y-172749536D01*
X1725071Y-173000928D01*
X1788527Y-173043328D01*
X4489670Y-175744472D01*
X4532071Y-175807929D01*
X4783463Y-175975904D01*
X5005148Y-176020000D01*
X5005153Y-176020000D01*
X5080000Y-176034888D01*
X5154847Y-176020000D01*
X10863296Y-176020000D01*
X10859605Y-176025525D01*
X10120131Y-176765000D01*
X9954058Y-176765000D01*
X9573652Y-176922569D01*
X9282501Y-177213720D01*
X9124932Y-177594126D01*
X9124932Y-178005874D01*
X9282501Y-178386280D01*
X9399933Y-178503712D01*
X9399932Y-181525266D01*
X7338302Y-183586897D01*
X7285439Y-183565000D01*
X6714561Y-183565000D01*
X6589999Y-183616595D01*
X6589999Y-181666617D01*
X6622235Y-181688157D01*
X6870000Y-181737440D01*
X8370000Y-181737440D01*
X8617765Y-181688157D01*
X8827809Y-181547809D01*
X8968157Y-181337765D01*
X9017440Y-181090000D01*
X9017440Y-179590000D01*
X8968157Y-179342235D01*
X8827809Y-179132191D01*
X8617765Y-178991843D01*
X8370000Y-178942560D01*
X6870000Y-178942560D01*
X6622235Y-178991843D01*
X6412191Y-179132191D01*
X6271843Y-179342235D01*
X6233531Y-179534844D01*
X5864540Y-179165853D01*
X5355494Y-178955000D01*
X4804506Y-178955000D01*
X4295460Y-179165853D01*
X3905853Y-179555460D01*
X3810000Y-179786870D01*
X3714147Y-179555460D01*
X3324540Y-179165853D01*
X2815494Y-178955000D01*
X2264506Y-178955000D01*
X1755460Y-179165853D01*
X1365853Y-179555460D01*
X1155000Y-180064506D01*
X1155000Y-180615494D01*
X1365853Y-181124540D01*
X1755460Y-181514147D01*
X2264506Y-181725000D01*
X2815494Y-181725000D01*
X2840034Y-181714835D01*
X4619990Y-183494792D01*
X4619990Y-183703576D01*
X4285439Y-183565000D01*
X3714561Y-183565000D01*
X3187138Y-183783466D01*
X2783466Y-184187138D01*
X2565000Y-184714561D01*
X2565000Y-185285439D01*
X2783466Y-185812862D01*
X3187138Y-186216534D01*
X3714561Y-186435000D01*
X4285439Y-186435000D01*
X4619990Y-186296424D01*
X4619989Y-191308404D01*
X4559909Y-191268260D01*
X4141333Y-191185000D01*
X3858667Y-191185000D01*
X3440091Y-191268260D01*
X2965423Y-191585423D01*
X2648260Y-192060091D01*
X2536887Y-192620000D01*
X2648260Y-193179909D01*
X2965423Y-193654577D01*
X3240000Y-193838044D01*
X3240001Y-197465148D01*
X3225112Y-197540000D01*
X3284097Y-197836537D01*
X3298311Y-197857809D01*
X3452072Y-198087929D01*
X3515528Y-198130329D01*
X4010360Y-198625162D01*
X3965000Y-198734670D01*
X3965000Y-199345330D01*
X4198690Y-199909507D01*
X4630493Y-200341310D01*
X5194670Y-200575000D01*
X5805330Y-200575000D01*
X6369507Y-200341310D01*
X6801310Y-199909507D01*
X7035000Y-199345330D01*
X7035000Y-198734670D01*
X6801310Y-198170493D01*
X6632092Y-198001275D01*
X6647765Y-197998157D01*
X6857809Y-197857809D01*
X6998157Y-197647765D01*
X7047440Y-197400000D01*
X7047440Y-196622241D01*
X13250845Y-202825646D01*
X13248844Y-202827647D01*
X12665000Y-204237171D01*
X12665000Y-205762829D01*
X13248844Y-207172353D01*
X14327647Y-208251156D01*
X15737171Y-208835000D01*
X17262829Y-208835000D01*
X18672353Y-208251156D01*
X19751156Y-207172353D01*
X20335000Y-205762829D01*
X20335000Y-204237171D01*
X19751156Y-202827647D01*
X18672353Y-201748844D01*
X17262829Y-201165000D01*
X15737171Y-201165000D01*
X14327647Y-201748844D01*
X14325646Y-201750845D01*
X8312801Y-195738000D01*
X31430560Y-195738000D01*
X31430560Y-197262000D01*
X31479843Y-197509765D01*
X31620191Y-197719809D01*
X31830235Y-197860157D01*
X32078000Y-197909440D01*
X33602000Y-197909440D01*
X33849765Y-197860157D01*
X34059809Y-197719809D01*
X34200157Y-197509765D01*
X34235653Y-197331310D01*
X34588663Y-197684320D01*
X35102119Y-197897000D01*
X35657881Y-197897000D01*
X36171337Y-197684320D01*
X36564320Y-197291337D01*
X36650000Y-197084487D01*
X36735680Y-197291337D01*
X37128663Y-197684320D01*
X37642119Y-197897000D01*
X38197881Y-197897000D01*
X38711337Y-197684320D01*
X39104320Y-197291337D01*
X39190000Y-197084487D01*
X39275680Y-197291337D01*
X39668663Y-197684320D01*
X40182119Y-197897000D01*
X40737881Y-197897000D01*
X41251337Y-197684320D01*
X41644320Y-197291337D01*
X41730000Y-197084487D01*
X41815680Y-197291337D01*
X42208663Y-197684320D01*
X42722119Y-197897000D01*
X43277881Y-197897000D01*
X43791337Y-197684320D01*
X44184320Y-197291337D01*
X44270000Y-197084487D01*
X44355680Y-197291337D01*
X44748663Y-197684320D01*
X45262119Y-197897000D01*
X45817881Y-197897000D01*
X46331337Y-197684320D01*
X46724320Y-197291337D01*
X46810000Y-197084487D01*
X46895680Y-197291337D01*
X47288663Y-197684320D01*
X47802119Y-197897000D01*
X48357881Y-197897000D01*
X48871337Y-197684320D01*
X49264320Y-197291337D01*
X49350000Y-197084487D01*
X49435680Y-197291337D01*
X49828663Y-197684320D01*
X50342119Y-197897000D01*
X50897881Y-197897000D01*
X51411337Y-197684320D01*
X51804320Y-197291337D01*
X51890000Y-197084487D01*
X51975680Y-197291337D01*
X52368663Y-197684320D01*
X52400000Y-197697300D01*
X52400000Y-197943960D01*
X48035611Y-202308349D01*
X47994320Y-202208663D01*
X47601337Y-201815680D01*
X47087881Y-201603000D01*
X46532119Y-201603000D01*
X46018663Y-201815680D01*
X45625680Y-202208663D01*
X45540000Y-202415513D01*
X45454320Y-202208663D01*
X45061337Y-201815680D01*
X44547881Y-201603000D01*
X43992119Y-201603000D01*
X43478663Y-201815680D01*
X43085680Y-202208663D01*
X43000000Y-202415513D01*
X42914320Y-202208663D01*
X42521337Y-201815680D01*
X42007881Y-201603000D01*
X41452119Y-201603000D01*
X40938663Y-201815680D01*
X40585653Y-202168690D01*
X40550157Y-201990235D01*
X40409809Y-201780191D01*
X40199765Y-201639843D01*
X39952000Y-201590560D01*
X38428000Y-201590560D01*
X38180235Y-201639843D01*
X37970191Y-201780191D01*
X37829843Y-201990235D01*
X37780560Y-202238000D01*
X37780560Y-203762000D01*
X37829843Y-204009765D01*
X37970191Y-204219809D01*
X38180235Y-204360157D01*
X38428000Y-204409440D01*
X38541518Y-204409440D01*
X38595434Y-204490130D01*
X38642072Y-204559929D01*
X38687030Y-204589969D01*
X38717072Y-204634930D01*
X38968464Y-204802905D01*
X39190149Y-204847001D01*
X39190153Y-204847001D01*
X39265000Y-204861889D01*
X39339847Y-204847001D01*
X47256914Y-204847001D01*
X47331761Y-204861889D01*
X47406608Y-204847001D01*
X47406613Y-204847001D01*
X47628298Y-204802905D01*
X47879690Y-204634930D01*
X47922092Y-204571471D01*
X48256392Y-204237171D01*
X65665000Y-204237171D01*
X65665000Y-205762829D01*
X66248844Y-207172353D01*
X67327647Y-208251156D01*
X68737171Y-208835000D01*
X70262829Y-208835000D01*
X71672353Y-208251156D01*
X72751156Y-207172353D01*
X73335000Y-205762829D01*
X73335000Y-204237171D01*
X72751156Y-202827647D01*
X71672353Y-201748844D01*
X70262829Y-201165000D01*
X68737171Y-201165000D01*
X67327647Y-201748844D01*
X66248844Y-202827647D01*
X65665000Y-204237171D01*
X48256392Y-204237171D01*
X53644473Y-198849091D01*
X53707929Y-198806691D01*
X53875904Y-198555299D01*
X53920000Y-198333614D01*
X53920000Y-198333610D01*
X53934888Y-198258762D01*
X53920000Y-198183914D01*
X53920000Y-197697300D01*
X53951337Y-197684320D01*
X54344320Y-197291337D01*
X54557000Y-196777881D01*
X54557000Y-196222119D01*
X54344320Y-195708663D01*
X53951337Y-195315680D01*
X53437881Y-195103000D01*
X52882119Y-195103000D01*
X52368663Y-195315680D01*
X51975680Y-195708663D01*
X51890000Y-195915513D01*
X51804320Y-195708663D01*
X51411337Y-195315680D01*
X50897881Y-195103000D01*
X50342119Y-195103000D01*
X49828663Y-195315680D01*
X49435680Y-195708663D01*
X49350000Y-195915513D01*
X49264320Y-195708663D01*
X48871337Y-195315680D01*
X48357881Y-195103000D01*
X47802119Y-195103000D01*
X47288663Y-195315680D01*
X46895680Y-195708663D01*
X46810000Y-195915513D01*
X46724320Y-195708663D01*
X46331337Y-195315680D01*
X45817881Y-195103000D01*
X45262119Y-195103000D01*
X44748663Y-195315680D01*
X44355680Y-195708663D01*
X44270000Y-195915513D01*
X44184320Y-195708663D01*
X43791337Y-195315680D01*
X43277881Y-195103000D01*
X42722119Y-195103000D01*
X42208663Y-195315680D01*
X41815680Y-195708663D01*
X41730000Y-195915513D01*
X41644320Y-195708663D01*
X41251337Y-195315680D01*
X40737881Y-195103000D01*
X40182119Y-195103000D01*
X39668663Y-195315680D01*
X39275680Y-195708663D01*
X39190000Y-195915513D01*
X39104320Y-195708663D01*
X38711337Y-195315680D01*
X38197881Y-195103000D01*
X37642119Y-195103000D01*
X37128663Y-195315680D01*
X36735680Y-195708663D01*
X36650000Y-195915513D01*
X36564320Y-195708663D01*
X36171337Y-195315680D01*
X35657881Y-195103000D01*
X35102119Y-195103000D01*
X34588663Y-195315680D01*
X34235653Y-195668690D01*
X34200157Y-195490235D01*
X34059809Y-195280191D01*
X33849765Y-195139843D01*
X33602000Y-195090560D01*
X32078000Y-195090560D01*
X31830235Y-195139843D01*
X31620191Y-195280191D01*
X31479843Y-195490235D01*
X31430560Y-195738000D01*
X8312801Y-195738000D01*
X7760000Y-195185199D01*
X7760000Y-193838043D01*
X8034577Y-193654577D01*
X8351740Y-193179909D01*
X8463113Y-192620000D01*
X8412934Y-192367736D01*
X10437527Y-194392329D01*
X10625463Y-194517904D01*
X10922000Y-194576888D01*
X11218537Y-194517904D01*
X11469929Y-194349929D01*
X11637904Y-194098537D01*
X11696888Y-193802000D01*
X11637904Y-193505463D01*
X11512329Y-193317527D01*
X8289580Y-190094778D01*
X75835000Y-190094778D01*
X75835000Y-190745222D01*
X76083914Y-191346153D01*
X76543847Y-191806086D01*
X77144778Y-192055000D01*
X77795222Y-192055000D01*
X78396153Y-191806086D01*
X78856086Y-191346153D01*
X79105000Y-190745222D01*
X79105000Y-190094778D01*
X78856086Y-189493847D01*
X78396153Y-189033914D01*
X77795222Y-188785000D01*
X77144778Y-188785000D01*
X76543847Y-189033914D01*
X76083914Y-189493847D01*
X75835000Y-190094778D01*
X8289580Y-190094778D01*
X7760000Y-189565199D01*
X7760000Y-186238430D01*
X7812862Y-186216534D01*
X8216534Y-185812862D01*
X8435000Y-185285439D01*
X8435000Y-184714561D01*
X8413103Y-184661698D01*
X8519370Y-184555431D01*
X17765000Y-184555431D01*
X17765000Y-185444569D01*
X18105259Y-186266026D01*
X18733974Y-186894741D01*
X19555431Y-187235000D01*
X20444569Y-187235000D01*
X21266026Y-186894741D01*
X21894741Y-186266026D01*
X22235000Y-185444569D01*
X22235000Y-184555431D01*
X63765000Y-184555431D01*
X63765000Y-185444569D01*
X64105259Y-186266026D01*
X64733974Y-186894741D01*
X65555431Y-187235000D01*
X66444569Y-187235000D01*
X67266026Y-186894741D01*
X67894741Y-186266026D01*
X68235000Y-185444569D01*
X68235000Y-184555431D01*
X67894741Y-183733974D01*
X67266026Y-183105259D01*
X66444569Y-182765000D01*
X65555431Y-182765000D01*
X64733974Y-183105259D01*
X64105259Y-183733974D01*
X63765000Y-184555431D01*
X22235000Y-184555431D01*
X21894741Y-183733974D01*
X21266026Y-183105259D01*
X20444569Y-182765000D01*
X19555431Y-182765000D01*
X18733974Y-183105259D01*
X18105259Y-183733974D01*
X17765000Y-184555431D01*
X8519370Y-184555431D01*
X10644405Y-182430397D01*
X10707861Y-182387997D01*
X10778066Y-182282928D01*
X10875836Y-182136606D01*
X10896735Y-182031537D01*
X10919932Y-181914920D01*
X10919932Y-181914916D01*
X10934820Y-181840068D01*
X10919932Y-181765220D01*
X10919932Y-178503711D01*
X11037363Y-178386280D01*
X11194932Y-178005874D01*
X11194932Y-177839801D01*
X11417084Y-177617649D01*
X11417191Y-177617809D01*
X11627235Y-177758157D01*
X11636500Y-177760000D01*
X11627235Y-177761843D01*
X11417191Y-177902191D01*
X11276843Y-178112235D01*
X11227560Y-178360000D01*
X11227560Y-179660000D01*
X11276843Y-179907765D01*
X11417191Y-180117809D01*
X11627235Y-180258157D01*
X11875000Y-180307440D01*
X19125000Y-180307440D01*
X19372765Y-180258157D01*
X19582809Y-180117809D01*
X19723157Y-179907765D01*
X19738624Y-179830004D01*
X20886289Y-179830004D01*
X21003720Y-179947435D01*
X21384126Y-180105004D01*
X21795874Y-180105004D01*
X22176280Y-179947435D01*
X22467431Y-179656284D01*
X22625000Y-179275878D01*
X22625000Y-178864130D01*
X22467431Y-178483724D01*
X22176280Y-178192573D01*
X21795874Y-178035004D01*
X21384126Y-178035004D01*
X21003720Y-178192573D01*
X20886289Y-178310004D01*
X19762495Y-178310004D01*
X19723157Y-178112235D01*
X19582809Y-177902191D01*
X19372765Y-177761843D01*
X19363500Y-177760000D01*
X19372765Y-177758157D01*
X19582809Y-177617809D01*
X19723157Y-177407765D01*
X19772440Y-177160000D01*
X19772440Y-176020000D01*
X24490973Y-176020000D01*
X24365000Y-176324126D01*
X24365000Y-176735874D01*
X24522569Y-177116280D01*
X24813720Y-177407431D01*
X25194126Y-177565000D01*
X25605874Y-177565000D01*
X25655595Y-177544405D01*
X25635000Y-177594126D01*
X25635000Y-178005874D01*
X25792569Y-178386280D01*
X26083720Y-178677431D01*
X26464126Y-178835000D01*
X26875874Y-178835000D01*
X27256280Y-178677431D01*
X27373711Y-178560000D01*
X31046289Y-178560000D01*
X31163720Y-178677431D01*
X31544126Y-178835000D01*
X31955874Y-178835000D01*
X32336280Y-178677431D01*
X32627431Y-178386280D01*
X32785000Y-178005874D01*
X32785000Y-177594126D01*
X32627431Y-177213720D01*
X32336280Y-176922569D01*
X31955874Y-176765000D01*
X31544126Y-176765000D01*
X31494405Y-176785595D01*
X31515000Y-176735874D01*
X31515000Y-176324126D01*
X31389027Y-176020000D01*
X49585469Y-176020000D01*
X51849943Y-178284476D01*
X51892341Y-178347929D01*
X51955794Y-178390327D01*
X51955796Y-178390329D01*
X51999710Y-178419671D01*
X52143733Y-178515904D01*
X52365418Y-178560000D01*
X52365422Y-178560000D01*
X52440269Y-178574888D01*
X52515116Y-178560000D01*
X66227560Y-178560000D01*
X66227560Y-179660000D01*
X66276843Y-179907765D01*
X66417191Y-180117809D01*
X66627235Y-180258157D01*
X66875000Y-180307440D01*
X74125000Y-180307440D01*
X74372765Y-180258157D01*
X74582809Y-180117809D01*
X74723157Y-179907765D01*
X74738625Y-179830000D01*
X75496273Y-179830000D01*
X75613704Y-179947431D01*
X75994110Y-180105000D01*
X76405858Y-180105000D01*
X76786264Y-179947431D01*
X77077415Y-179656280D01*
X77234984Y-179275874D01*
X77234984Y-178864126D01*
X77109011Y-178560000D01*
X79695199Y-178560000D01*
X79881312Y-178746113D01*
X79816887Y-179070000D01*
X79928260Y-179629909D01*
X80245423Y-180104577D01*
X80720091Y-180421740D01*
X81138667Y-180505000D01*
X81421333Y-180505000D01*
X81645001Y-180460510D01*
X81645001Y-181420196D01*
X78997984Y-184067215D01*
X78927809Y-183962191D01*
X78717765Y-183821843D01*
X78470000Y-183772560D01*
X76470000Y-183772560D01*
X76222235Y-183821843D01*
X76012191Y-183962191D01*
X75871843Y-184172235D01*
X75822560Y-184420000D01*
X75822560Y-186420000D01*
X75871843Y-186667765D01*
X76012191Y-186877809D01*
X76222235Y-187018157D01*
X76470000Y-187067440D01*
X78470000Y-187067440D01*
X78717765Y-187018157D01*
X78927809Y-186877809D01*
X79068157Y-186667765D01*
X79117440Y-186420000D01*
X79117440Y-186068483D01*
X79267929Y-185967929D01*
X79310331Y-185904470D01*
X82889477Y-182325326D01*
X82952930Y-182282928D01*
X82995328Y-182219475D01*
X82995330Y-182219473D01*
X83120904Y-182031537D01*
X83120905Y-182031536D01*
X83165001Y-181809851D01*
X83165001Y-181809847D01*
X83179889Y-181735000D01*
X83165001Y-181660153D01*
X83165001Y-178604846D01*
X83179889Y-178529999D01*
X83165001Y-178455152D01*
X83165001Y-178455147D01*
X83120905Y-178233462D01*
X82952930Y-177982070D01*
X82889474Y-177939670D01*
X80975333Y-176025530D01*
X80932931Y-175962071D01*
X80681539Y-175794096D01*
X80459854Y-175750000D01*
X80459849Y-175750000D01*
X80385002Y-175735112D01*
X80310155Y-175750000D01*
X74750560Y-175750000D01*
X74723157Y-175612235D01*
X74582809Y-175402191D01*
X74372765Y-175261843D01*
X74363500Y-175260000D01*
X74372765Y-175258157D01*
X74582809Y-175117809D01*
X74723157Y-174907765D01*
X74750560Y-174770000D01*
X78645153Y-174770000D01*
X78720000Y-174784888D01*
X78794847Y-174770000D01*
X78794852Y-174770000D01*
X79016537Y-174725904D01*
X79267929Y-174557929D01*
X79310331Y-174494470D01*
X80941698Y-172863103D01*
X80994561Y-172885000D01*
X81565439Y-172885000D01*
X82092862Y-172666534D01*
X82496534Y-172262862D01*
X82715000Y-171735439D01*
X82715000Y-171164561D01*
X82496534Y-170637138D01*
X82092862Y-170233466D01*
X81565439Y-170015000D01*
X80994561Y-170015000D01*
X80467138Y-170233466D01*
X80063466Y-170637138D01*
X79845000Y-171164561D01*
X79845000Y-171735439D01*
X79866897Y-171788302D01*
X78405199Y-173250000D01*
X74750560Y-173250000D01*
X74723157Y-173112235D01*
X74582809Y-172902191D01*
X74372765Y-172761843D01*
X74363500Y-172760000D01*
X74372765Y-172758157D01*
X74582809Y-172617809D01*
X74723157Y-172407765D01*
X74750560Y-172270000D01*
X75556289Y-172270000D01*
X75613720Y-172327431D01*
X75994126Y-172485000D01*
X76405874Y-172485000D01*
X76786280Y-172327431D01*
X77077431Y-172036280D01*
X77235000Y-171655874D01*
X77235000Y-171244126D01*
X77077431Y-170863720D01*
X76786280Y-170572569D01*
X76405874Y-170415000D01*
X75994126Y-170415000D01*
X75613720Y-170572569D01*
X75436289Y-170750000D01*
X74750560Y-170750000D01*
X74723157Y-170612235D01*
X74582809Y-170402191D01*
X74372765Y-170261843D01*
X74125000Y-170212560D01*
X67082241Y-170212560D01*
X73858782Y-163436020D01*
X73890119Y-163449000D01*
X74445881Y-163449000D01*
X74959337Y-163236320D01*
X75352320Y-162843337D01*
X75438000Y-162636487D01*
X75523680Y-162843337D01*
X75916663Y-163236320D01*
X76430119Y-163449000D01*
X76985881Y-163449000D01*
X77499337Y-163236320D01*
X77892320Y-162843337D01*
X77978000Y-162636487D01*
X78063680Y-162843337D01*
X78456663Y-163236320D01*
X78970119Y-163449000D01*
X79525881Y-163449000D01*
X80039337Y-163236320D01*
X80432320Y-162843337D01*
X80518000Y-162636487D01*
X80603680Y-162843337D01*
X80996663Y-163236320D01*
X81510119Y-163449000D01*
X82065881Y-163449000D01*
X82579337Y-163236320D01*
X82972320Y-162843337D01*
X83185000Y-162329881D01*
X83185000Y-161774119D01*
X82972320Y-161260663D01*
X82579337Y-160867680D01*
X82065881Y-160655000D01*
X81510119Y-160655000D01*
X80996663Y-160867680D01*
X80603680Y-161260663D01*
X80518000Y-161467513D01*
X80432320Y-161260663D01*
X80039337Y-160867680D01*
X79525881Y-160655000D01*
X78970119Y-160655000D01*
X78938782Y-160667980D01*
X77811321Y-159540520D01*
X77768919Y-159477061D01*
X77517527Y-159309086D01*
X77295842Y-159264990D01*
X77295837Y-159264990D01*
X77220990Y-159250102D01*
X77146143Y-159264990D01*
X45536667Y-159264990D01*
X45634320Y-159167337D01*
X45847000Y-158653881D01*
X45847000Y-158098119D01*
X45634320Y-157584663D01*
X45241337Y-157191680D01*
X44727881Y-156979000D01*
X44172119Y-156979000D01*
X44140819Y-156991965D01*
X38414383Y-151265530D01*
X38371981Y-151202071D01*
X38120589Y-151034096D01*
X37898904Y-150990000D01*
X37898899Y-150990000D01*
X37824052Y-150975112D01*
X37749205Y-150990000D01*
X23584832Y-150990000D01*
X23509984Y-150975112D01*
X23435136Y-150990000D01*
X23435132Y-150990000D01*
X23261589Y-151024520D01*
X23213446Y-151034096D01*
X23026402Y-151159076D01*
X22962055Y-151202071D01*
X22919655Y-151265527D01*
X22820182Y-151365000D01*
X22654110Y-151365000D01*
X22414187Y-151464379D01*
X22537000Y-151167881D01*
X22537000Y-150612119D01*
X22324320Y-150098663D01*
X21931337Y-149705680D01*
X21417881Y-149493000D01*
X20862119Y-149493000D01*
X20348663Y-149705680D01*
X19955680Y-150098663D01*
X19870000Y-150305513D01*
X19784320Y-150098663D01*
X19391337Y-149705680D01*
X18877881Y-149493000D01*
X18322119Y-149493000D01*
X17808663Y-149705680D01*
X17415680Y-150098663D01*
X17330000Y-150305513D01*
X17244320Y-150098663D01*
X16851337Y-149705680D01*
X16337881Y-149493000D01*
X15782119Y-149493000D01*
X15268663Y-149705680D01*
X14875680Y-150098663D01*
X14790000Y-150305513D01*
X14704320Y-150098663D01*
X14311337Y-149705680D01*
X13797881Y-149493000D01*
X13242119Y-149493000D01*
X12728663Y-149705680D01*
X12335680Y-150098663D01*
X12250000Y-150305513D01*
X12164320Y-150098663D01*
X11771337Y-149705680D01*
X11282576Y-149503229D01*
X11586280Y-149377431D01*
X11877431Y-149086280D01*
X12035000Y-148705874D01*
X12035000Y-148539802D01*
X12814803Y-147760000D01*
X46452153Y-147760000D01*
X46527000Y-147774888D01*
X46601847Y-147760000D01*
X46601852Y-147760000D01*
X46823537Y-147715904D01*
X47074929Y-147547929D01*
X47083568Y-147535000D01*
X47232874Y-147535000D01*
X47613280Y-147377431D01*
X47904431Y-147086280D01*
X48062000Y-146705874D01*
X48062000Y-146294126D01*
X47904431Y-145913720D01*
X47613280Y-145622569D01*
X47232874Y-145465000D01*
X46821126Y-145465000D01*
X46440720Y-145622569D01*
X46149569Y-145913720D01*
X46014420Y-146240000D01*
X42660801Y-146240000D01*
X44140782Y-144760020D01*
X44172119Y-144773000D01*
X44727881Y-144773000D01*
X45241337Y-144560320D01*
X45634320Y-144167337D01*
X45847000Y-143653881D01*
X45847000Y-143098119D01*
X45634320Y-142584663D01*
X45241337Y-142191680D01*
X44727881Y-141979000D01*
X44172119Y-141979000D01*
X43658663Y-142191680D01*
X43265680Y-142584663D01*
X43053000Y-143098119D01*
X43053000Y-143653881D01*
X43065980Y-143685218D01*
X41448539Y-145302660D01*
X16991051Y-145302660D01*
X16873620Y-145185229D01*
X16493214Y-145027660D01*
X16081466Y-145027660D01*
X15701060Y-145185229D01*
X15409909Y-145476380D01*
X15252340Y-145856786D01*
X15252340Y-146240000D01*
X12574846Y-146240000D01*
X12499999Y-146225112D01*
X12425152Y-146240000D01*
X12425148Y-146240000D01*
X12203463Y-146284096D01*
X12203461Y-146284097D01*
X12203462Y-146284097D01*
X12015526Y-146409671D01*
X12015524Y-146409673D01*
X11952071Y-146452071D01*
X11909673Y-146515524D01*
X10960198Y-147465000D01*
X10794126Y-147465000D01*
X10413720Y-147622569D01*
X10122569Y-147913720D01*
X9965000Y-148294126D01*
X9965000Y-148705874D01*
X10122569Y-149086280D01*
X10413720Y-149377431D01*
X10697424Y-149494945D01*
X10188663Y-149705680D01*
X9795680Y-150098663D01*
X9710000Y-150305513D01*
X9624320Y-150098663D01*
X9231337Y-149705680D01*
X8717881Y-149493000D01*
X8162119Y-149493000D01*
X7648663Y-149705680D01*
X7255680Y-150098663D01*
X7170000Y-150305513D01*
X7084320Y-150098663D01*
X6691337Y-149705680D01*
X6177881Y-149493000D01*
X5622119Y-149493000D01*
X5108663Y-149705680D01*
X4715680Y-150098663D01*
X4630000Y-150305513D01*
X4544320Y-150098663D01*
X4151337Y-149705680D01*
X3637881Y-149493000D01*
X3082119Y-149493000D01*
X3032999Y-149513346D01*
X3032999Y-139714561D01*
X24565000Y-139714561D01*
X24565000Y-140285439D01*
X24783466Y-140812862D01*
X25187138Y-141216534D01*
X25714561Y-141435000D01*
X26285439Y-141435000D01*
X26812862Y-141216534D01*
X27216534Y-140812862D01*
X27435000Y-140285439D01*
X27435000Y-139779888D01*
X69980000Y-139779888D01*
X69980000Y-140470114D01*
X70244138Y-141107800D01*
X70732201Y-141595863D01*
X71369887Y-141860001D01*
X72060113Y-141860001D01*
X72697799Y-141595863D01*
X73185862Y-141107800D01*
X73450000Y-140470114D01*
X73450000Y-139779888D01*
X73447929Y-139774887D01*
X79975000Y-139774887D01*
X79975000Y-140465113D01*
X80239138Y-141102799D01*
X80727201Y-141590862D01*
X81364887Y-141855000D01*
X82055113Y-141855000D01*
X82692799Y-141590862D01*
X83180862Y-141102799D01*
X83445000Y-140465113D01*
X83445000Y-139774887D01*
X83180862Y-139137201D01*
X82692799Y-138649138D01*
X82055113Y-138385000D01*
X81364887Y-138385000D01*
X80727201Y-138649138D01*
X80239138Y-139137201D01*
X79975000Y-139774887D01*
X73447929Y-139774887D01*
X73185862Y-139142202D01*
X72697799Y-138654139D01*
X72060113Y-138390001D01*
X71369887Y-138390001D01*
X70732201Y-138654139D01*
X70244138Y-139142202D01*
X69980000Y-139779888D01*
X27435000Y-139779888D01*
X27435000Y-139714561D01*
X27216534Y-139187138D01*
X26812862Y-138783466D01*
X26285439Y-138565000D01*
X25714561Y-138565000D01*
X25187138Y-138783466D01*
X24783466Y-139187138D01*
X24565000Y-139714561D01*
X3032999Y-139714561D01*
X3032999Y-134486654D01*
X3082119Y-134507000D01*
X3637881Y-134507000D01*
X4151337Y-134294320D01*
X4544320Y-133901337D01*
X4630000Y-133694487D01*
X4715680Y-133901337D01*
X5108663Y-134294320D01*
X5140000Y-134307300D01*
X5140001Y-136646288D01*
X5122569Y-136663720D01*
X4965000Y-137044126D01*
X4965000Y-137455874D01*
X5122569Y-137836280D01*
X5413720Y-138127431D01*
X5794126Y-138285000D01*
X6205874Y-138285000D01*
X6586280Y-138127431D01*
X6877431Y-137836280D01*
X7035000Y-137455874D01*
X7035000Y-137044126D01*
X6877431Y-136663720D01*
X6660000Y-136446289D01*
X6660000Y-134307300D01*
X6691337Y-134294320D01*
X7084320Y-133901337D01*
X7170000Y-133694487D01*
X7255680Y-133901337D01*
X7648663Y-134294320D01*
X8162119Y-134507000D01*
X8717881Y-134507000D01*
X9231337Y-134294320D01*
X9624320Y-133901337D01*
X9710000Y-133694487D01*
X9795680Y-133901337D01*
X10188663Y-134294320D01*
X10702119Y-134507000D01*
X11257881Y-134507000D01*
X11771337Y-134294320D01*
X12164320Y-133901337D01*
X12250000Y-133694487D01*
X12335680Y-133901337D01*
X12728663Y-134294320D01*
X13242119Y-134507000D01*
X13797881Y-134507000D01*
X14311337Y-134294320D01*
X14704320Y-133901337D01*
X14790000Y-133694487D01*
X14875680Y-133901337D01*
X15268663Y-134294320D01*
X15782119Y-134507000D01*
X16337881Y-134507000D01*
X16851337Y-134294320D01*
X17244320Y-133901337D01*
X17330000Y-133694487D01*
X17415680Y-133901337D01*
X17808663Y-134294320D01*
X18322119Y-134507000D01*
X18877881Y-134507000D01*
X19391337Y-134294320D01*
X19784320Y-133901337D01*
X19870000Y-133694487D01*
X19955680Y-133901337D01*
X20348663Y-134294320D01*
X20862119Y-134507000D01*
X21417881Y-134507000D01*
X21449218Y-134494020D01*
X21551671Y-134596473D01*
X21594071Y-134659929D01*
X21845463Y-134827904D01*
X22067148Y-134872000D01*
X22067153Y-134872000D01*
X22142000Y-134886888D01*
X22216847Y-134872000D01*
X48223310Y-134872000D01*
X48340741Y-134989431D01*
X48721147Y-135147000D01*
X49132895Y-135147000D01*
X49513301Y-134989431D01*
X49804452Y-134698280D01*
X49962021Y-134317874D01*
X49962021Y-133906126D01*
X49940798Y-133854887D01*
X80895000Y-133854887D01*
X80895000Y-134545113D01*
X81159138Y-135182799D01*
X81647201Y-135670862D01*
X82284887Y-135935000D01*
X82975113Y-135935000D01*
X83612799Y-135670862D01*
X84100862Y-135182799D01*
X84365000Y-134545113D01*
X84365000Y-133854887D01*
X84100862Y-133217201D01*
X83612799Y-132729138D01*
X82975113Y-132465000D01*
X82284887Y-132465000D01*
X81647201Y-132729138D01*
X81159138Y-133217201D01*
X80895000Y-133854887D01*
X49940798Y-133854887D01*
X49804452Y-133525720D01*
X49513301Y-133234569D01*
X49132895Y-133077000D01*
X48721147Y-133077000D01*
X48340741Y-133234569D01*
X48223310Y-133352000D01*
X27076390Y-133352000D01*
X27351740Y-132939909D01*
X27463113Y-132380000D01*
X27351740Y-131820091D01*
X27034577Y-131345423D01*
X26559909Y-131028260D01*
X26468110Y-131010000D01*
X26818789Y-131010000D01*
X27574262Y-131765474D01*
X27616662Y-131828930D01*
X27868054Y-131996905D01*
X28089739Y-132041001D01*
X28089743Y-132041001D01*
X28164591Y-132055889D01*
X28239439Y-132041001D01*
X30753154Y-132041001D01*
X30828001Y-132055889D01*
X30902848Y-132041001D01*
X30902853Y-132041001D01*
X31124538Y-131996905D01*
X31375930Y-131828930D01*
X31418332Y-131765471D01*
X31689471Y-131494332D01*
X31752930Y-131451930D01*
X31920905Y-131200538D01*
X31965001Y-130978853D01*
X31965001Y-130978849D01*
X31979889Y-130904001D01*
X31965001Y-130829153D01*
X31965001Y-130439803D01*
X32759671Y-131234473D01*
X32802071Y-131297929D01*
X33053463Y-131465904D01*
X33275148Y-131510000D01*
X33275152Y-131510000D01*
X33349999Y-131524888D01*
X33424846Y-131510000D01*
X46046289Y-131510000D01*
X46163720Y-131627431D01*
X46544126Y-131785000D01*
X46955874Y-131785000D01*
X47336280Y-131627431D01*
X47627431Y-131336280D01*
X47785000Y-130955874D01*
X47785000Y-130544126D01*
X47627431Y-130163720D01*
X47336280Y-129872569D01*
X46955874Y-129715000D01*
X46544126Y-129715000D01*
X46163720Y-129872569D01*
X46046289Y-129990000D01*
X33664802Y-129990000D01*
X33349802Y-129675000D01*
X33521333Y-129675000D01*
X33939909Y-129591740D01*
X34414577Y-129274577D01*
X34650000Y-128922242D01*
X34885423Y-129274577D01*
X35360091Y-129591740D01*
X35778667Y-129675000D01*
X36061333Y-129675000D01*
X36479909Y-129591740D01*
X36954577Y-129274577D01*
X37190000Y-128922242D01*
X37425423Y-129274577D01*
X37900091Y-129591740D01*
X38318667Y-129675000D01*
X38601333Y-129675000D01*
X39019909Y-129591740D01*
X39494577Y-129274577D01*
X39750947Y-128890892D01*
X39847611Y-129095134D01*
X40262577Y-129471041D01*
X40650961Y-129631904D01*
X40873000Y-129509915D01*
X40873000Y-128367000D01*
X41127000Y-128367000D01*
X41127000Y-129509915D01*
X41349039Y-129631904D01*
X41737423Y-129471041D01*
X42152389Y-129095134D01*
X42391914Y-128589041D01*
X42270629Y-128367000D01*
X41127000Y-128367000D01*
X40873000Y-128367000D01*
X40853000Y-128367000D01*
X40853000Y-128113000D01*
X40873000Y-128113000D01*
X40873000Y-126970085D01*
X41127000Y-126970085D01*
X41127000Y-128113000D01*
X42270629Y-128113000D01*
X42391914Y-127890959D01*
X42152389Y-127384866D01*
X41737423Y-127008959D01*
X41349039Y-126848096D01*
X41127000Y-126970085D01*
X40873000Y-126970085D01*
X40650961Y-126848096D01*
X40262577Y-127008959D01*
X39847611Y-127384866D01*
X39750947Y-127589108D01*
X39494577Y-127205423D01*
X39019909Y-126888260D01*
X38601333Y-126805000D01*
X38318667Y-126805000D01*
X37900091Y-126888260D01*
X37425423Y-127205423D01*
X37190000Y-127557758D01*
X36954577Y-127205423D01*
X36479909Y-126888260D01*
X36061333Y-126805000D01*
X35778667Y-126805000D01*
X35360091Y-126888260D01*
X34885423Y-127205423D01*
X34650000Y-127557758D01*
X34414577Y-127205423D01*
X33939909Y-126888260D01*
X33521333Y-126805000D01*
X33238667Y-126805000D01*
X33056113Y-126841312D01*
X32845330Y-126630529D01*
X32802928Y-126567070D01*
X32551536Y-126399095D01*
X32329851Y-126354999D01*
X32329846Y-126354999D01*
X32254999Y-126340111D01*
X32180152Y-126354999D01*
X20878212Y-126354999D01*
X19826731Y-125303519D01*
X19784329Y-125240060D01*
X19532937Y-125072085D01*
X19311252Y-125027989D01*
X19311247Y-125027989D01*
X19236400Y-125013101D01*
X19161553Y-125027989D01*
X9602791Y-125027989D01*
X2574999Y-118000198D01*
X2574999Y-113000000D01*
X3976887Y-113000000D01*
X4088260Y-113559909D01*
X4405423Y-114034577D01*
X4880091Y-114351740D01*
X5298667Y-114435000D01*
X5581333Y-114435000D01*
X5999909Y-114351740D01*
X6474577Y-114034577D01*
X6710000Y-113682242D01*
X6945423Y-114034577D01*
X7420091Y-114351740D01*
X7838667Y-114435000D01*
X8121333Y-114435000D01*
X8539909Y-114351740D01*
X9014577Y-114034577D01*
X9250000Y-113682242D01*
X9485423Y-114034577D01*
X9960091Y-114351740D01*
X10378667Y-114435000D01*
X10661333Y-114435000D01*
X11079909Y-114351740D01*
X11554577Y-114034577D01*
X11790000Y-113682242D01*
X12025423Y-114034577D01*
X12500091Y-114351740D01*
X12918667Y-114435000D01*
X13201333Y-114435000D01*
X13619909Y-114351740D01*
X14094577Y-114034577D01*
X14330000Y-113682242D01*
X14565423Y-114034577D01*
X15040091Y-114351740D01*
X15458667Y-114435000D01*
X15741333Y-114435000D01*
X16159909Y-114351740D01*
X16634577Y-114034577D01*
X16870000Y-113682242D01*
X17105423Y-114034577D01*
X17580091Y-114351740D01*
X17998667Y-114435000D01*
X18281333Y-114435000D01*
X18699909Y-114351740D01*
X19174577Y-114034577D01*
X19410000Y-113682242D01*
X19645423Y-114034577D01*
X20120091Y-114351740D01*
X20538667Y-114435000D01*
X20821333Y-114435000D01*
X21239909Y-114351740D01*
X21714577Y-114034577D01*
X21950000Y-113682242D01*
X22185423Y-114034577D01*
X22660091Y-114351740D01*
X23078667Y-114435000D01*
X23361333Y-114435000D01*
X23779909Y-114351740D01*
X24254577Y-114034577D01*
X24490000Y-113682242D01*
X24725423Y-114034577D01*
X25200091Y-114351740D01*
X25618667Y-114435000D01*
X25901333Y-114435000D01*
X26319909Y-114351740D01*
X26794577Y-114034577D01*
X27030000Y-113682242D01*
X27265423Y-114034577D01*
X27740091Y-114351740D01*
X28158667Y-114435000D01*
X28441333Y-114435000D01*
X28859909Y-114351740D01*
X29334577Y-114034577D01*
X29570000Y-113682242D01*
X29805423Y-114034577D01*
X30280091Y-114351740D01*
X30698667Y-114435000D01*
X30981333Y-114435000D01*
X31163887Y-114398688D01*
X31374670Y-114609471D01*
X31417072Y-114672930D01*
X31668464Y-114840905D01*
X31890149Y-114885001D01*
X31890153Y-114885001D01*
X31965000Y-114899889D01*
X32039847Y-114885001D01*
X41985154Y-114885001D01*
X42060001Y-114899889D01*
X42134848Y-114885001D01*
X42134853Y-114885001D01*
X42356538Y-114840905D01*
X42607930Y-114672930D01*
X42633965Y-114633965D01*
X42672930Y-114607930D01*
X42840905Y-114356538D01*
X42885001Y-114134853D01*
X42885001Y-114134848D01*
X42899889Y-114060001D01*
X42885001Y-113985154D01*
X42885001Y-113637800D01*
X44764802Y-111758000D01*
X64997199Y-111758000D01*
X66794198Y-113555000D01*
X66448119Y-113555000D01*
X65934663Y-113767680D01*
X65541680Y-114160663D01*
X65456000Y-114367513D01*
X65370320Y-114160663D01*
X64977337Y-113767680D01*
X64463881Y-113555000D01*
X63908119Y-113555000D01*
X63394663Y-113767680D01*
X63001680Y-114160663D01*
X62789000Y-114674119D01*
X62789000Y-115229881D01*
X62801980Y-115261218D01*
X62237199Y-115826000D01*
X47950802Y-115826000D01*
X47655000Y-115530199D01*
X47655000Y-115364126D01*
X47497431Y-114983720D01*
X47380000Y-114866289D01*
X47380000Y-114204721D01*
X47497431Y-114087290D01*
X47655000Y-113706884D01*
X47655000Y-113354887D01*
X53195000Y-113354887D01*
X53195000Y-114045113D01*
X53459138Y-114682799D01*
X53947201Y-115170862D01*
X54584887Y-115435000D01*
X55275113Y-115435000D01*
X55912799Y-115170862D01*
X56400862Y-114682799D01*
X56665000Y-114045113D01*
X56665000Y-113354887D01*
X56400862Y-112717201D01*
X55912799Y-112229138D01*
X55275113Y-111965000D01*
X54584887Y-111965000D01*
X53947201Y-112229138D01*
X53459138Y-112717201D01*
X53195000Y-113354887D01*
X47655000Y-113354887D01*
X47655000Y-113295136D01*
X47497431Y-112914730D01*
X47206280Y-112623579D01*
X46825874Y-112466010D01*
X46414126Y-112466010D01*
X46033720Y-112623579D01*
X45742569Y-112914730D01*
X45585000Y-113295136D01*
X45585000Y-113706884D01*
X45742569Y-114087290D01*
X45860001Y-114204722D01*
X45860000Y-114866289D01*
X45742569Y-114983720D01*
X45585000Y-115364126D01*
X45585000Y-115775874D01*
X45742569Y-116156280D01*
X46033720Y-116447431D01*
X46414126Y-116605000D01*
X46580199Y-116605000D01*
X47045671Y-117070473D01*
X47062728Y-117096000D01*
X46247000Y-117096000D01*
X46247000Y-116888126D01*
X46089431Y-116507720D01*
X45798280Y-116216569D01*
X45417874Y-116059000D01*
X45006126Y-116059000D01*
X44625720Y-116216569D01*
X44508289Y-116334000D01*
X8577711Y-116334000D01*
X8460280Y-116216569D01*
X8079874Y-116059000D01*
X7668126Y-116059000D01*
X7287720Y-116216569D01*
X6996569Y-116507720D01*
X6839000Y-116888126D01*
X6839000Y-117299874D01*
X6996569Y-117680280D01*
X7174289Y-117858000D01*
X6291711Y-117858000D01*
X6174280Y-117740569D01*
X5793874Y-117583000D01*
X5382126Y-117583000D01*
X5001720Y-117740569D01*
X4710569Y-118031720D01*
X4553000Y-118412126D01*
X4553000Y-118823874D01*
X4710569Y-119204280D01*
X5001720Y-119495431D01*
X5382126Y-119653000D01*
X5793874Y-119653000D01*
X6174280Y-119495431D01*
X6291711Y-119378000D01*
X46824961Y-119378000D01*
X46910837Y-119463876D01*
X47291243Y-119621445D01*
X47702991Y-119621445D01*
X48083397Y-119463876D01*
X48374548Y-119172725D01*
X48532117Y-118792319D01*
X48532117Y-118380571D01*
X48517801Y-118346010D01*
X48522865Y-118346010D01*
X48903271Y-118188441D01*
X49194422Y-117897290D01*
X49351991Y-117516884D01*
X49351991Y-117346000D01*
X62477153Y-117346000D01*
X62552000Y-117360888D01*
X62626847Y-117346000D01*
X62626852Y-117346000D01*
X62848537Y-117301904D01*
X63099929Y-117133929D01*
X63142331Y-117070470D01*
X63876782Y-116336020D01*
X63908119Y-116349000D01*
X64463881Y-116349000D01*
X64977337Y-116136320D01*
X65370320Y-115743337D01*
X65456000Y-115536487D01*
X65541680Y-115743337D01*
X65934663Y-116136320D01*
X66448119Y-116349000D01*
X67003881Y-116349000D01*
X67517337Y-116136320D01*
X67910320Y-115743337D01*
X67996000Y-115536487D01*
X68081680Y-115743337D01*
X68474663Y-116136320D01*
X68988119Y-116349000D01*
X69543881Y-116349000D01*
X70057337Y-116136320D01*
X70450320Y-115743337D01*
X70663000Y-115229881D01*
X70663000Y-114674119D01*
X70450320Y-114160663D01*
X70057337Y-113767680D01*
X69543881Y-113555000D01*
X68988119Y-113555000D01*
X68956783Y-113567980D01*
X68743690Y-113354887D01*
X80895000Y-113354887D01*
X80895000Y-114045113D01*
X81159138Y-114682799D01*
X81647201Y-115170862D01*
X82284887Y-115435000D01*
X82975113Y-115435000D01*
X83612799Y-115170862D01*
X84100862Y-114682799D01*
X84365000Y-114045113D01*
X84365000Y-113354887D01*
X84100862Y-112717201D01*
X83612799Y-112229138D01*
X82975113Y-111965000D01*
X82284887Y-111965000D01*
X81647201Y-112229138D01*
X81159138Y-112717201D01*
X80895000Y-113354887D01*
X68743690Y-113354887D01*
X65902331Y-110513530D01*
X65859929Y-110450071D01*
X65608537Y-110282096D01*
X65386852Y-110238000D01*
X65386847Y-110238000D01*
X65312000Y-110223112D01*
X65237153Y-110238000D01*
X44524846Y-110238000D01*
X44449999Y-110223112D01*
X44375152Y-110238000D01*
X44375148Y-110238000D01*
X44153463Y-110282096D01*
X43902071Y-110450071D01*
X43859671Y-110513527D01*
X42401941Y-111971258D01*
X42398157Y-111952235D01*
X42257809Y-111742191D01*
X42047765Y-111601843D01*
X41800000Y-111552560D01*
X40200000Y-111552560D01*
X39952235Y-111601843D01*
X39742191Y-111742191D01*
X39601843Y-111952235D01*
X39575215Y-112086106D01*
X39494577Y-111965423D01*
X39019909Y-111648260D01*
X38601333Y-111565000D01*
X38318667Y-111565000D01*
X37900091Y-111648260D01*
X37425423Y-111965423D01*
X37190000Y-112317758D01*
X36954577Y-111965423D01*
X36479909Y-111648260D01*
X36061333Y-111565000D01*
X35778667Y-111565000D01*
X35360091Y-111648260D01*
X34885423Y-111965423D01*
X34650000Y-112317758D01*
X34414577Y-111965423D01*
X33939909Y-111648260D01*
X33521333Y-111565000D01*
X33238667Y-111565000D01*
X32820091Y-111648260D01*
X32345423Y-111965423D01*
X32110000Y-112317758D01*
X31874577Y-111965423D01*
X31399909Y-111648260D01*
X30981333Y-111565000D01*
X30809801Y-111565000D01*
X34404473Y-107970329D01*
X34467929Y-107927929D01*
X34635904Y-107676537D01*
X34644338Y-107634139D01*
X35844670Y-108834472D01*
X35887070Y-108897928D01*
X35950526Y-108940328D01*
X36138461Y-109065903D01*
X36186604Y-109075479D01*
X36360147Y-109109999D01*
X36360151Y-109109999D01*
X36434999Y-109124887D01*
X36509847Y-109109999D01*
X59723154Y-109109999D01*
X59798001Y-109124887D01*
X59872848Y-109109999D01*
X59872853Y-109109999D01*
X60094538Y-109065903D01*
X60215618Y-108985000D01*
X60403874Y-108985000D01*
X60784280Y-108827431D01*
X61075431Y-108536280D01*
X61233000Y-108155874D01*
X61233000Y-107744126D01*
X61075431Y-107363720D01*
X60784280Y-107072569D01*
X60403874Y-106915000D01*
X60378002Y-106915000D01*
X60378002Y-106765116D01*
X60291148Y-106555431D01*
X63765000Y-106555431D01*
X63765000Y-107444569D01*
X64105259Y-108266026D01*
X64733974Y-108894741D01*
X65555431Y-109235000D01*
X66444569Y-109235000D01*
X67266026Y-108894741D01*
X67290962Y-108869805D01*
X71051805Y-108869805D01*
X71284358Y-109431258D01*
X71775224Y-109952492D01*
X72428193Y-110246203D01*
X72713000Y-110129858D01*
X72713000Y-108585000D01*
X72967000Y-108585000D01*
X72967000Y-110129858D01*
X73251807Y-110246203D01*
X73904776Y-109952492D01*
X74395642Y-109431258D01*
X74628195Y-108869805D01*
X74511432Y-108585000D01*
X72967000Y-108585000D01*
X72713000Y-108585000D01*
X71168568Y-108585000D01*
X71051805Y-108869805D01*
X67290962Y-108869805D01*
X67894741Y-108266026D01*
X67985798Y-108046195D01*
X71051805Y-108046195D01*
X71168568Y-108331000D01*
X72713000Y-108331000D01*
X72713000Y-106786142D01*
X72967000Y-106786142D01*
X72967000Y-108331000D01*
X74511432Y-108331000D01*
X74628195Y-108046195D01*
X74395642Y-107484742D01*
X73904776Y-106963508D01*
X73251807Y-106669797D01*
X72967000Y-106786142D01*
X72713000Y-106786142D01*
X72428193Y-106669797D01*
X71775224Y-106963508D01*
X71284358Y-107484742D01*
X71051805Y-108046195D01*
X67985798Y-108046195D01*
X68235000Y-107444569D01*
X68235000Y-106555431D01*
X67894741Y-105733974D01*
X67266026Y-105105259D01*
X66444569Y-104765000D01*
X65555431Y-104765000D01*
X64733974Y-105105259D01*
X64105259Y-105733974D01*
X63765000Y-106555431D01*
X60291148Y-106555431D01*
X60220433Y-106384710D01*
X59929282Y-106093559D01*
X59548876Y-105935990D01*
X59137128Y-105935990D01*
X58756722Y-106093559D01*
X58465571Y-106384710D01*
X58308002Y-106765116D01*
X58308002Y-106936000D01*
X50605995Y-106936000D01*
X50608157Y-106932765D01*
X50657440Y-106685000D01*
X50657440Y-104985000D01*
X50608157Y-104737235D01*
X50467809Y-104527191D01*
X50295123Y-104411805D01*
X71051805Y-104411805D01*
X71284358Y-104973258D01*
X71775224Y-105494492D01*
X72428193Y-105788203D01*
X72713000Y-105671858D01*
X72713000Y-104127000D01*
X72967000Y-104127000D01*
X72967000Y-105671858D01*
X73251807Y-105788203D01*
X73904776Y-105494492D01*
X74395642Y-104973258D01*
X74628195Y-104411805D01*
X74511432Y-104127000D01*
X72967000Y-104127000D01*
X72713000Y-104127000D01*
X71168568Y-104127000D01*
X71051805Y-104411805D01*
X50295123Y-104411805D01*
X50257765Y-104386843D01*
X50010000Y-104337560D01*
X48310000Y-104337560D01*
X48062235Y-104386843D01*
X47852191Y-104527191D01*
X47711843Y-104737235D01*
X47702816Y-104782619D01*
X47690625Y-104764375D01*
X47199418Y-104436161D01*
X46766256Y-104350000D01*
X46473744Y-104350000D01*
X46040582Y-104436161D01*
X45549375Y-104764375D01*
X45350000Y-105062761D01*
X45150625Y-104764375D01*
X44840000Y-104556822D01*
X44840000Y-103588195D01*
X71051805Y-103588195D01*
X71168568Y-103873000D01*
X72713000Y-103873000D01*
X72713000Y-102328142D01*
X72967000Y-102328142D01*
X72967000Y-103873000D01*
X74511432Y-103873000D01*
X74628195Y-103588195D01*
X74395642Y-103026742D01*
X73904776Y-102505508D01*
X73251807Y-102211797D01*
X72967000Y-102328142D01*
X72713000Y-102328142D01*
X72428193Y-102211797D01*
X71775224Y-102505508D01*
X71284358Y-103026742D01*
X71051805Y-103588195D01*
X44840000Y-103588195D01*
X44840000Y-102320848D01*
X44854888Y-102246000D01*
X44840000Y-102171152D01*
X44840000Y-102171148D01*
X44795904Y-101949463D01*
X44627929Y-101698071D01*
X44564473Y-101655671D01*
X42194552Y-99285750D01*
X56065000Y-99285750D01*
X56065000Y-100426310D01*
X56161673Y-100659699D01*
X56340302Y-100838327D01*
X56573691Y-100935000D01*
X57714250Y-100935000D01*
X57873000Y-100776250D01*
X57873000Y-99127000D01*
X58127000Y-99127000D01*
X58127000Y-100776250D01*
X58285750Y-100935000D01*
X59426309Y-100935000D01*
X59659698Y-100838327D01*
X59838327Y-100659699D01*
X59935000Y-100426310D01*
X59935000Y-99285750D01*
X59776250Y-99127000D01*
X58127000Y-99127000D01*
X57873000Y-99127000D01*
X56223750Y-99127000D01*
X56065000Y-99285750D01*
X42194552Y-99285750D01*
X38523907Y-95615105D01*
X51365000Y-95615105D01*
X51365000Y-96384895D01*
X51659586Y-97096090D01*
X52203910Y-97640414D01*
X52915105Y-97935000D01*
X53684895Y-97935000D01*
X54396090Y-97640414D01*
X54462814Y-97573690D01*
X56065000Y-97573690D01*
X56065000Y-98714250D01*
X56223750Y-98873000D01*
X57873000Y-98873000D01*
X57873000Y-97223750D01*
X58127000Y-97223750D01*
X58127000Y-98873000D01*
X59776250Y-98873000D01*
X59935000Y-98714250D01*
X59935000Y-97573690D01*
X59838327Y-97340301D01*
X59659698Y-97161673D01*
X59426309Y-97065000D01*
X58285750Y-97065000D01*
X58127000Y-97223750D01*
X57873000Y-97223750D01*
X57714250Y-97065000D01*
X56573691Y-97065000D01*
X56340302Y-97161673D01*
X56161673Y-97340301D01*
X56065000Y-97573690D01*
X54462814Y-97573690D01*
X54940414Y-97096090D01*
X55235000Y-96384895D01*
X55235000Y-95615105D01*
X54940414Y-94903910D01*
X54396090Y-94359586D01*
X53684895Y-94065000D01*
X52915105Y-94065000D01*
X52203910Y-94359586D01*
X51659586Y-94903910D01*
X51365000Y-95615105D01*
X38523907Y-95615105D01*
X37611000Y-94702199D01*
X37611000Y-94536126D01*
X37453431Y-94155720D01*
X37162280Y-93864569D01*
X36781874Y-93707000D01*
X36370126Y-93707000D01*
X35989720Y-93864569D01*
X35983600Y-93870689D01*
X35785189Y-93788504D01*
X35373441Y-93788504D01*
X34993035Y-93946073D01*
X34701884Y-94237224D01*
X34544315Y-94617630D01*
X34544315Y-95029378D01*
X34701884Y-95409784D01*
X34993035Y-95700935D01*
X35373441Y-95858504D01*
X35539514Y-95858504D01*
X36140483Y-96459474D01*
X36182884Y-96522931D01*
X36434276Y-96690906D01*
X36655961Y-96735002D01*
X36655965Y-96735002D01*
X36730812Y-96749890D01*
X36744387Y-96747190D01*
X42145000Y-102147804D01*
X42144999Y-104453254D01*
X42119418Y-104436161D01*
X41686256Y-104350000D01*
X41393744Y-104350000D01*
X40960582Y-104436161D01*
X40469375Y-104764375D01*
X40270000Y-105062761D01*
X40070625Y-104764375D01*
X39579418Y-104436161D01*
X39146256Y-104350000D01*
X38853744Y-104350000D01*
X38420582Y-104436161D01*
X37929375Y-104764375D01*
X37730000Y-105062761D01*
X37530625Y-104764375D01*
X37039418Y-104436161D01*
X36606256Y-104350000D01*
X36313744Y-104350000D01*
X35880582Y-104436161D01*
X35389375Y-104764375D01*
X35190000Y-105062761D01*
X34990625Y-104764375D01*
X34499418Y-104436161D01*
X34066256Y-104350000D01*
X33773744Y-104350000D01*
X33340582Y-104436161D01*
X32849375Y-104764375D01*
X32521161Y-105255582D01*
X32405908Y-105835000D01*
X32521161Y-106414418D01*
X32849375Y-106905625D01*
X33131238Y-107093960D01*
X28623887Y-111601312D01*
X28441333Y-111565000D01*
X28158667Y-111565000D01*
X27740091Y-111648260D01*
X27265423Y-111965423D01*
X27030000Y-112317758D01*
X26794577Y-111965423D01*
X26319909Y-111648260D01*
X25901333Y-111565000D01*
X25618667Y-111565000D01*
X25200091Y-111648260D01*
X24725423Y-111965423D01*
X24490000Y-112317758D01*
X24254577Y-111965423D01*
X23779909Y-111648260D01*
X23361333Y-111565000D01*
X23078667Y-111565000D01*
X22660091Y-111648260D01*
X22185423Y-111965423D01*
X21950000Y-112317758D01*
X21714577Y-111965423D01*
X21239909Y-111648260D01*
X20821333Y-111565000D01*
X20538667Y-111565000D01*
X20120091Y-111648260D01*
X19645423Y-111965423D01*
X19410000Y-112317758D01*
X19174577Y-111965423D01*
X18699909Y-111648260D01*
X18281333Y-111565000D01*
X17998667Y-111565000D01*
X17580091Y-111648260D01*
X17105423Y-111965423D01*
X16870000Y-112317758D01*
X16634577Y-111965423D01*
X16159909Y-111648260D01*
X15741333Y-111565000D01*
X15458667Y-111565000D01*
X15040091Y-111648260D01*
X14565423Y-111965423D01*
X14330000Y-112317758D01*
X14094577Y-111965423D01*
X13619909Y-111648260D01*
X13201333Y-111565000D01*
X12918667Y-111565000D01*
X12500091Y-111648260D01*
X12025423Y-111965423D01*
X11790000Y-112317758D01*
X11554577Y-111965423D01*
X11079909Y-111648260D01*
X10661333Y-111565000D01*
X10378667Y-111565000D01*
X9960091Y-111648260D01*
X9485423Y-111965423D01*
X9250000Y-112317758D01*
X9014577Y-111965423D01*
X8539909Y-111648260D01*
X8121333Y-111565000D01*
X7838667Y-111565000D01*
X7420091Y-111648260D01*
X6945423Y-111965423D01*
X6710000Y-112317758D01*
X6474577Y-111965423D01*
X5999909Y-111648260D01*
X5581333Y-111565000D01*
X5298667Y-111565000D01*
X4880091Y-111648260D01*
X4405423Y-111965423D01*
X4088260Y-112440091D01*
X3976887Y-113000000D01*
X2574999Y-113000000D01*
X2574999Y-110129333D01*
X2928193Y-110288203D01*
X3213000Y-110171858D01*
X3213000Y-108627000D01*
X3467000Y-108627000D01*
X3467000Y-110171858D01*
X3751807Y-110288203D01*
X4404776Y-109994492D01*
X4895642Y-109473258D01*
X5128195Y-108911805D01*
X5011432Y-108627000D01*
X3467000Y-108627000D01*
X3213000Y-108627000D01*
X3193000Y-108627000D01*
X3193000Y-108373000D01*
X3213000Y-108373000D01*
X3213000Y-106828142D01*
X3467000Y-106828142D01*
X3467000Y-108373000D01*
X5011432Y-108373000D01*
X5128195Y-108088195D01*
X4895642Y-107526742D01*
X4404776Y-107005508D01*
X3751807Y-106711797D01*
X3467000Y-106828142D01*
X3213000Y-106828142D01*
X2928193Y-106711797D01*
X2574999Y-106870667D01*
X2574999Y-105769333D01*
X2928193Y-105928203D01*
X3213000Y-105811858D01*
X3213000Y-104267000D01*
X3467000Y-104267000D01*
X3467000Y-105811858D01*
X3751807Y-105928203D01*
X4404776Y-105634492D01*
X4895642Y-105113258D01*
X5128195Y-104551805D01*
X5011432Y-104267000D01*
X3467000Y-104267000D01*
X3213000Y-104267000D01*
X3193000Y-104267000D01*
X3193000Y-104013000D01*
X3213000Y-104013000D01*
X3213000Y-102468142D01*
X3467000Y-102468142D01*
X3467000Y-104013000D01*
X5011432Y-104013000D01*
X5128195Y-103728195D01*
X4895642Y-103166742D01*
X4404776Y-102645508D01*
X3751807Y-102351797D01*
X3467000Y-102468142D01*
X3213000Y-102468142D01*
X2928193Y-102351797D01*
X2574999Y-102510667D01*
X2574999Y-97678390D01*
X2864991Y-97388398D01*
X2864990Y-100050143D01*
X2850102Y-100124990D01*
X2864990Y-100199837D01*
X2864990Y-100199841D01*
X2909086Y-100421526D01*
X3077061Y-100672919D01*
X3140520Y-100715321D01*
X11409671Y-108984473D01*
X11452071Y-109047929D01*
X11515527Y-109090329D01*
X11652560Y-109181892D01*
X11652560Y-109700000D01*
X11701843Y-109947765D01*
X11842191Y-110157809D01*
X12052235Y-110298157D01*
X12300000Y-110347440D01*
X14700000Y-110347440D01*
X14947765Y-110298157D01*
X15157809Y-110157809D01*
X15298157Y-109947765D01*
X15347440Y-109700000D01*
X15347440Y-107300000D01*
X15298157Y-107052235D01*
X15157809Y-106842191D01*
X14947765Y-106701843D01*
X14700000Y-106652560D01*
X12300000Y-106652560D01*
X12052235Y-106701843D01*
X11842191Y-106842191D01*
X11701843Y-107052235D01*
X11689432Y-107114630D01*
X11130233Y-106555431D01*
X17765000Y-106555431D01*
X17765000Y-107444569D01*
X18105259Y-108266026D01*
X18733974Y-108894741D01*
X19555431Y-109235000D01*
X20444569Y-109235000D01*
X21266026Y-108894741D01*
X21894741Y-108266026D01*
X22235000Y-107444569D01*
X22235000Y-106555431D01*
X21894741Y-105733974D01*
X21885273Y-105724506D01*
X23507000Y-105724506D01*
X23507000Y-106275494D01*
X23717853Y-106784540D01*
X24107460Y-107174147D01*
X24616506Y-107385000D01*
X25167494Y-107385000D01*
X25676540Y-107174147D01*
X25879170Y-106971517D01*
X26640088Y-106971517D01*
X26708077Y-107212460D01*
X27227171Y-107397201D01*
X27777448Y-107369230D01*
X28155923Y-107212460D01*
X28223912Y-106971517D01*
X27432000Y-106179605D01*
X26640088Y-106971517D01*
X25879170Y-106971517D01*
X26066147Y-106784540D01*
X26155397Y-106569070D01*
X26219540Y-106723923D01*
X26460483Y-106791912D01*
X27252395Y-106000000D01*
X27611605Y-106000000D01*
X28403517Y-106791912D01*
X28574560Y-106743647D01*
X28574560Y-106750000D01*
X28623843Y-106997765D01*
X28764191Y-107207809D01*
X28974235Y-107348157D01*
X29222000Y-107397440D01*
X30722000Y-107397440D01*
X30969765Y-107348157D01*
X31179809Y-107207809D01*
X31320157Y-106997765D01*
X31369440Y-106750000D01*
X31369440Y-105250000D01*
X31320157Y-105002235D01*
X31179809Y-104792191D01*
X30969765Y-104651843D01*
X30722000Y-104602560D01*
X29222000Y-104602560D01*
X28974235Y-104651843D01*
X28764191Y-104792191D01*
X28623843Y-105002235D01*
X28574560Y-105250000D01*
X28574560Y-105256353D01*
X28403517Y-105208088D01*
X27611605Y-106000000D01*
X27252395Y-106000000D01*
X26460483Y-105208088D01*
X26219540Y-105276077D01*
X26160255Y-105442658D01*
X26066147Y-105215460D01*
X25879170Y-105028483D01*
X26640088Y-105028483D01*
X27432000Y-105820395D01*
X28223912Y-105028483D01*
X28155923Y-104787540D01*
X27636829Y-104602799D01*
X27086552Y-104630770D01*
X26708077Y-104787540D01*
X26640088Y-105028483D01*
X25879170Y-105028483D01*
X25676540Y-104825853D01*
X25167494Y-104615000D01*
X24616506Y-104615000D01*
X24107460Y-104825853D01*
X23717853Y-105215460D01*
X23507000Y-105724506D01*
X21885273Y-105724506D01*
X21266026Y-105105259D01*
X20444569Y-104765000D01*
X19555431Y-104765000D01*
X18733974Y-105105259D01*
X18105259Y-105733974D01*
X17765000Y-106555431D01*
X11130233Y-106555431D01*
X5444087Y-100869286D01*
X5812862Y-100716534D01*
X6216534Y-100312862D01*
X6435000Y-99785439D01*
X6435000Y-99740581D01*
X11652560Y-104707699D01*
X11652560Y-105340000D01*
X11701843Y-105587765D01*
X11842191Y-105797809D01*
X12052235Y-105938157D01*
X12300000Y-105987440D01*
X14700000Y-105987440D01*
X14947765Y-105938157D01*
X15157809Y-105797809D01*
X15298157Y-105587765D01*
X15347440Y-105340000D01*
X15347440Y-102940000D01*
X15298157Y-102692235D01*
X15157809Y-102482191D01*
X14947765Y-102341843D01*
X14700000Y-102292560D01*
X14003175Y-102292560D01*
X11417041Y-99830561D01*
X22187000Y-99830561D01*
X22187000Y-100401439D01*
X22405466Y-100928862D01*
X22809138Y-101332534D01*
X22889932Y-101366000D01*
X22809138Y-101399466D01*
X22405466Y-101803138D01*
X22187000Y-102330561D01*
X22187000Y-102901439D01*
X22405466Y-103428862D01*
X22809138Y-103832534D01*
X23336561Y-104051000D01*
X23907439Y-104051000D01*
X24434862Y-103832534D01*
X24643651Y-103623745D01*
X30667861Y-103623745D01*
X30741995Y-103869864D01*
X31279223Y-104062965D01*
X31849454Y-104035778D01*
X32250005Y-103869864D01*
X32324139Y-103623745D01*
X31496000Y-102795605D01*
X30667861Y-103623745D01*
X24643651Y-103623745D01*
X24838534Y-103428862D01*
X25057000Y-102901439D01*
X25057000Y-102399223D01*
X30049035Y-102399223D01*
X30076222Y-102969454D01*
X30242136Y-103370005D01*
X30488255Y-103444139D01*
X31316395Y-102616000D01*
X31675605Y-102616000D01*
X32503745Y-103444139D01*
X32749864Y-103370005D01*
X32942965Y-102832777D01*
X32915778Y-102262546D01*
X32749864Y-101861995D01*
X32503745Y-101787861D01*
X31675605Y-102616000D01*
X31316395Y-102616000D01*
X30488255Y-101787861D01*
X30242136Y-101861995D01*
X30049035Y-102399223D01*
X25057000Y-102399223D01*
X25057000Y-102330561D01*
X24838534Y-101803138D01*
X24434862Y-101399466D01*
X24354068Y-101366000D01*
X24434862Y-101332534D01*
X24838534Y-100928862D01*
X25057000Y-100401439D01*
X25057000Y-99830561D01*
X30061000Y-99830561D01*
X30061000Y-100401439D01*
X30279466Y-100928862D01*
X30683138Y-101332534D01*
X30748299Y-101359525D01*
X30741995Y-101362136D01*
X30667861Y-101608255D01*
X31496000Y-102436395D01*
X32324139Y-101608255D01*
X32250005Y-101362136D01*
X32243254Y-101359710D01*
X32308862Y-101332534D01*
X32712534Y-100928862D01*
X32931000Y-100401439D01*
X32931000Y-99830561D01*
X32712534Y-99303138D01*
X32308862Y-98899466D01*
X31781439Y-98681000D01*
X31210561Y-98681000D01*
X30683138Y-98899466D01*
X30279466Y-99303138D01*
X30061000Y-99830561D01*
X25057000Y-99830561D01*
X24838534Y-99303138D01*
X24434862Y-98899466D01*
X23907439Y-98681000D01*
X23336561Y-98681000D01*
X22809138Y-98899466D01*
X22405466Y-99303138D01*
X22187000Y-99830561D01*
X11417041Y-99830561D01*
X10213720Y-98685000D01*
X18048050Y-98685000D01*
X18214002Y-98718010D01*
X18379954Y-98685000D01*
X18379959Y-98685000D01*
X18871456Y-98587235D01*
X19428819Y-98214817D01*
X19522828Y-98074123D01*
X19938123Y-97658828D01*
X20078818Y-97564818D01*
X20451236Y-97007455D01*
X20549001Y-96515958D01*
X20549001Y-96515954D01*
X20582011Y-96350002D01*
X20549001Y-96184050D01*
X20549001Y-92815951D01*
X20582011Y-92649999D01*
X20549001Y-92484047D01*
X20549001Y-92484042D01*
X20451236Y-91992545D01*
X20078818Y-91435182D01*
X19938125Y-91341174D01*
X19482827Y-90885876D01*
X19388819Y-90745183D01*
X18831456Y-90372765D01*
X18339959Y-90275000D01*
X18339954Y-90275000D01*
X18174002Y-90241990D01*
X18008050Y-90275000D01*
X17978701Y-90275000D01*
X18162839Y-89999418D01*
X18278092Y-89420000D01*
X18162839Y-88840582D01*
X17972013Y-88554990D01*
X24265191Y-88554990D01*
X24415001Y-88704801D01*
X24415002Y-91870149D01*
X24400113Y-91945001D01*
X24415002Y-92019853D01*
X24459098Y-92241538D01*
X24627073Y-92492930D01*
X24690529Y-92535330D01*
X25860791Y-93705592D01*
X25787908Y-94072000D01*
X25903161Y-94651418D01*
X26231375Y-95142625D01*
X26722582Y-95470839D01*
X27155744Y-95557000D01*
X27448256Y-95557000D01*
X27881418Y-95470839D01*
X28372625Y-95142625D01*
X28700839Y-94651418D01*
X28816092Y-94072000D01*
X28700839Y-93492582D01*
X28372625Y-93001375D01*
X28074239Y-92802000D01*
X28353947Y-92615105D01*
X56065000Y-92615105D01*
X56065000Y-93384895D01*
X56359586Y-94096090D01*
X56903910Y-94640414D01*
X57615105Y-94935000D01*
X58384895Y-94935000D01*
X59096090Y-94640414D01*
X59640414Y-94096090D01*
X59935000Y-93384895D01*
X59935000Y-92615105D01*
X59640414Y-91903910D01*
X59096090Y-91359586D01*
X58384895Y-91065000D01*
X57615105Y-91065000D01*
X56903910Y-91359586D01*
X56359586Y-91903910D01*
X56065000Y-92615105D01*
X28353947Y-92615105D01*
X28372625Y-92602625D01*
X28700839Y-92111418D01*
X28816092Y-91532000D01*
X28700839Y-90952582D01*
X28372625Y-90461375D01*
X28354381Y-90449184D01*
X28399765Y-90440157D01*
X28609809Y-90299809D01*
X28750157Y-90089765D01*
X28799440Y-89842000D01*
X28799440Y-88142000D01*
X28750157Y-87894235D01*
X28609809Y-87684191D01*
X28399765Y-87543843D01*
X28152000Y-87494560D01*
X26452000Y-87494560D01*
X26204235Y-87543843D01*
X25994191Y-87684191D01*
X25853843Y-87894235D01*
X25831808Y-88005016D01*
X25765330Y-87905526D01*
X25722930Y-87842070D01*
X25659474Y-87799670D01*
X25170323Y-87310520D01*
X25127921Y-87247061D01*
X24876529Y-87079086D01*
X24654844Y-87034990D01*
X24654839Y-87034990D01*
X24579992Y-87020102D01*
X24505145Y-87034990D01*
X11458444Y-87034990D01*
X11383597Y-87020102D01*
X11308750Y-87034990D01*
X11308746Y-87034990D01*
X11087061Y-87079086D01*
X11024500Y-87120888D01*
X10899124Y-87204661D01*
X10899122Y-87204663D01*
X10835669Y-87247061D01*
X10793271Y-87310514D01*
X1330527Y-96773260D01*
X1267071Y-96815660D01*
X1224671Y-96879116D01*
X1224670Y-96879117D01*
X1099096Y-97067052D01*
X1040111Y-97363589D01*
X710000Y-97363589D01*
X710000Y-90031618D01*
X780578Y-89240808D01*
X981705Y-88505611D01*
X1309846Y-87817649D01*
X1754628Y-87198669D01*
X2301988Y-86668239D01*
X2934639Y-86243116D01*
X3632561Y-85936749D01*
X4379183Y-85757501D01*
X5026030Y-85710000D01*
X65831051Y-85710000D01*
X65219876Y-86321175D01*
X65219876Y-86321175D01*
G37*
X65219876Y-86321175D02*
X65079183Y-86415183D01*
X64706765Y-86972547D01*
X64609000Y-87464044D01*
X64609000Y-87464048D01*
X64575990Y-87630000D01*
X64609000Y-87795953D01*
X64609001Y-90190124D01*
X64575990Y-90356081D01*
X64706766Y-91013535D01*
X64985176Y-91430206D01*
X64985178Y-91430208D01*
X65079184Y-91570898D01*
X65219874Y-91664904D01*
X66577094Y-93022124D01*
X66671102Y-93162817D01*
X67228465Y-93535235D01*
X67596442Y-93608430D01*
X67590560Y-93638000D01*
X67590560Y-95338000D01*
X67639843Y-95585765D01*
X67780191Y-95795809D01*
X67990235Y-95936157D01*
X68238000Y-95985440D01*
X69938000Y-95985440D01*
X70185765Y-95936157D01*
X70395809Y-95795809D01*
X70536157Y-95585765D01*
X70585440Y-95338000D01*
X70585440Y-93638000D01*
X70536157Y-93390235D01*
X70395809Y-93180191D01*
X70323494Y-93131871D01*
X70675235Y-92605454D01*
X70806011Y-91948000D01*
X70675235Y-91290546D01*
X70302817Y-90733183D01*
X70040234Y-90557731D01*
X70158625Y-90478625D01*
X70486839Y-89987418D01*
X70602092Y-89408000D01*
X70486839Y-88828582D01*
X70158625Y-88337375D01*
X70101193Y-88299000D01*
X72004767Y-88299000D01*
X71929375Y-88349375D01*
X71601161Y-88840582D01*
X71485908Y-89420000D01*
X71601161Y-89999418D01*
X71929375Y-90490625D01*
X72227761Y-90690000D01*
X71929375Y-90889375D01*
X71601161Y-91380582D01*
X71485908Y-91960000D01*
X71601161Y-92539418D01*
X71929375Y-93030625D01*
X71947619Y-93042816D01*
X71902235Y-93051843D01*
X71692191Y-93192191D01*
X71551843Y-93402235D01*
X71502560Y-93650000D01*
X71502560Y-95350000D01*
X71551843Y-95597765D01*
X71692191Y-95807809D01*
X71902235Y-95948157D01*
X72150000Y-95997440D01*
X73850000Y-95997440D01*
X74097765Y-95948157D01*
X74307809Y-95807809D01*
X74448157Y-95597765D01*
X74497440Y-95350000D01*
X74497440Y-93650000D01*
X74448157Y-93402235D01*
X74307809Y-93192191D01*
X74097765Y-93051843D01*
X74052381Y-93042816D01*
X74070625Y-93030625D01*
X74398839Y-92539418D01*
X74505980Y-92000781D01*
X79864990Y-97359792D01*
X79864991Y-107000138D01*
X79850102Y-107074990D01*
X79909087Y-107371527D01*
X80033638Y-107557930D01*
X80077062Y-107622919D01*
X80140518Y-107665319D01*
X80959671Y-108484473D01*
X81002071Y-108547929D01*
X81065527Y-108590329D01*
X81152560Y-108648483D01*
X81152560Y-109658000D01*
X81201843Y-109905765D01*
X81342191Y-110115809D01*
X81552235Y-110256157D01*
X81800000Y-110305440D01*
X84200000Y-110305440D01*
X84447765Y-110256157D01*
X84657809Y-110115809D01*
X84798157Y-109905765D01*
X84847440Y-109658000D01*
X84847440Y-107258000D01*
X84798157Y-107010235D01*
X84657809Y-106800191D01*
X84447765Y-106659843D01*
X84200000Y-106610560D01*
X81800000Y-106610560D01*
X81552235Y-106659843D01*
X81391827Y-106767025D01*
X81384990Y-106760189D01*
X81384990Y-105686407D01*
X81552235Y-105798157D01*
X81800000Y-105847440D01*
X84200000Y-105847440D01*
X84447765Y-105798157D01*
X84657809Y-105657809D01*
X84798157Y-105447765D01*
X84847440Y-105200000D01*
X84847440Y-102800000D01*
X84798157Y-102552235D01*
X84685000Y-102382885D01*
X84685000Y-102231951D01*
X85124125Y-101792826D01*
X85264818Y-101698818D01*
X85290001Y-101661129D01*
X85290000Y-204968382D01*
X85219422Y-205759193D01*
X85018295Y-206494389D01*
X84690152Y-207182355D01*
X84245374Y-207801328D01*
X83698012Y-208331761D01*
X83065362Y-208756883D01*
X82367439Y-209063251D01*
X81620819Y-209242499D01*
X80973970Y-209290000D01*
X5031618Y-209290000D01*
X4240807Y-209219422D01*
X3505611Y-209018295D01*
X2817645Y-208690152D01*
X2198672Y-208245374D01*
X1668239Y-207698012D01*
X1243117Y-207065362D01*
X936749Y-206367439D01*
X757501Y-205620819D01*
X710000Y-204973970D01*
X710000Y-97363589D01*
X1040111Y-97363589D01*
X1055000Y-97438441D01*
X1054999Y-118240152D01*
X1040111Y-118314999D01*
X1054999Y-118389846D01*
X1054999Y-118389850D01*
X1099095Y-118611535D01*
X1267070Y-118862928D01*
X1330529Y-118905330D01*
X8179959Y-125754761D01*
X8072701Y-125776096D01*
X7821309Y-125944071D01*
X7778909Y-126007527D01*
X7445276Y-126341161D01*
X7439999Y-126340111D01*
X7365152Y-126354999D01*
X7365147Y-126354999D01*
X7143462Y-126399095D01*
X6892070Y-126567070D01*
X6849670Y-126630526D01*
X6370529Y-127109668D01*
X6350899Y-127122784D01*
X5999909Y-126888260D01*
X5581333Y-126805000D01*
X5298667Y-126805000D01*
X4880091Y-126888260D01*
X4405423Y-127205423D01*
X4088260Y-127680091D01*
X3976887Y-128240000D01*
X4088260Y-128799909D01*
X4405423Y-129274577D01*
X4469227Y-129317209D01*
X1788529Y-131997908D01*
X1725070Y-132040310D01*
X1557095Y-132291703D01*
X1512999Y-132513388D01*
X1512999Y-132513392D01*
X1498111Y-132588239D01*
X1512999Y-132663086D01*
X1513000Y-172378147D01*
X1498111Y-172452999D01*
X1513000Y-172527851D01*
X1557096Y-172749536D01*
X1725071Y-173000928D01*
X1788527Y-173043328D01*
X4489670Y-175744472D01*
X4532071Y-175807929D01*
X4783463Y-175975904D01*
X5005148Y-176020000D01*
X5005153Y-176020000D01*
X5080000Y-176034888D01*
X5154847Y-176020000D01*
X10863296Y-176020000D01*
X10859605Y-176025525D01*
X10120131Y-176765000D01*
X9954058Y-176765000D01*
X9573652Y-176922569D01*
X9282501Y-177213720D01*
X9124932Y-177594126D01*
X9124932Y-178005874D01*
X9282501Y-178386280D01*
X9399933Y-178503712D01*
X9399932Y-181525266D01*
X7338302Y-183586897D01*
X7285439Y-183565000D01*
X6714561Y-183565000D01*
X6589999Y-183616595D01*
X6589999Y-181666617D01*
X6622235Y-181688157D01*
X6870000Y-181737440D01*
X8370000Y-181737440D01*
X8617765Y-181688157D01*
X8827809Y-181547809D01*
X8968157Y-181337765D01*
X9017440Y-181090000D01*
X9017440Y-179590000D01*
X8968157Y-179342235D01*
X8827809Y-179132191D01*
X8617765Y-178991843D01*
X8370000Y-178942560D01*
X6870000Y-178942560D01*
X6622235Y-178991843D01*
X6412191Y-179132191D01*
X6271843Y-179342235D01*
X6233531Y-179534844D01*
X5864540Y-179165853D01*
X5355494Y-178955000D01*
X4804506Y-178955000D01*
X4295460Y-179165853D01*
X3905853Y-179555460D01*
X3810000Y-179786870D01*
X3714147Y-179555460D01*
X3324540Y-179165853D01*
X2815494Y-178955000D01*
X2264506Y-178955000D01*
X1755460Y-179165853D01*
X1365853Y-179555460D01*
X1155000Y-180064506D01*
X1155000Y-180615494D01*
X1365853Y-181124540D01*
X1755460Y-181514147D01*
X2264506Y-181725000D01*
X2815494Y-181725000D01*
X2840034Y-181714835D01*
X4619990Y-183494792D01*
X4619990Y-183703576D01*
X4285439Y-183565000D01*
X3714561Y-183565000D01*
X3187138Y-183783466D01*
X2783466Y-184187138D01*
X2565000Y-184714561D01*
X2565000Y-185285439D01*
X2783466Y-185812862D01*
X3187138Y-186216534D01*
X3714561Y-186435000D01*
X4285439Y-186435000D01*
X4619990Y-186296424D01*
X4619989Y-191308404D01*
X4559909Y-191268260D01*
X4141333Y-191185000D01*
X3858667Y-191185000D01*
X3440091Y-191268260D01*
X2965423Y-191585423D01*
X2648260Y-192060091D01*
X2536887Y-192620000D01*
X2648260Y-193179909D01*
X2965423Y-193654577D01*
X3240000Y-193838044D01*
X3240001Y-197465148D01*
X3225112Y-197540000D01*
X3284097Y-197836537D01*
X3298311Y-197857809D01*
X3452072Y-198087929D01*
X3515528Y-198130329D01*
X4010360Y-198625162D01*
X3965000Y-198734670D01*
X3965000Y-199345330D01*
X4198690Y-199909507D01*
X4630493Y-200341310D01*
X5194670Y-200575000D01*
X5805330Y-200575000D01*
X6369507Y-200341310D01*
X6801310Y-199909507D01*
X7035000Y-199345330D01*
X7035000Y-198734670D01*
X6801310Y-198170493D01*
X6632092Y-198001275D01*
X6647765Y-197998157D01*
X6857809Y-197857809D01*
X6998157Y-197647765D01*
X7047440Y-197400000D01*
X7047440Y-196622241D01*
X13250845Y-202825646D01*
X13248844Y-202827647D01*
X12665000Y-204237171D01*
X12665000Y-205762829D01*
X13248844Y-207172353D01*
X14327647Y-208251156D01*
X15737171Y-208835000D01*
X17262829Y-208835000D01*
X18672353Y-208251156D01*
X19751156Y-207172353D01*
X20335000Y-205762829D01*
X20335000Y-204237171D01*
X19751156Y-202827647D01*
X18672353Y-201748844D01*
X17262829Y-201165000D01*
X15737171Y-201165000D01*
X14327647Y-201748844D01*
X14325646Y-201750845D01*
X8312801Y-195738000D01*
X31430560Y-195738000D01*
X31430560Y-197262000D01*
X31479843Y-197509765D01*
X31620191Y-197719809D01*
X31830235Y-197860157D01*
X32078000Y-197909440D01*
X33602000Y-197909440D01*
X33849765Y-197860157D01*
X34059809Y-197719809D01*
X34200157Y-197509765D01*
X34235653Y-197331310D01*
X34588663Y-197684320D01*
X35102119Y-197897000D01*
X35657881Y-197897000D01*
X36171337Y-197684320D01*
X36564320Y-197291337D01*
X36650000Y-197084487D01*
X36735680Y-197291337D01*
X37128663Y-197684320D01*
X37642119Y-197897000D01*
X38197881Y-197897000D01*
X38711337Y-197684320D01*
X39104320Y-197291337D01*
X39190000Y-197084487D01*
X39275680Y-197291337D01*
X39668663Y-197684320D01*
X40182119Y-197897000D01*
X40737881Y-197897000D01*
X41251337Y-197684320D01*
X41644320Y-197291337D01*
X41730000Y-197084487D01*
X41815680Y-197291337D01*
X42208663Y-197684320D01*
X42722119Y-197897000D01*
X43277881Y-197897000D01*
X43791337Y-197684320D01*
X44184320Y-197291337D01*
X44270000Y-197084487D01*
X44355680Y-197291337D01*
X44748663Y-197684320D01*
X45262119Y-197897000D01*
X45817881Y-197897000D01*
X46331337Y-197684320D01*
X46724320Y-197291337D01*
X46810000Y-197084487D01*
X46895680Y-197291337D01*
X47288663Y-197684320D01*
X47802119Y-197897000D01*
X48357881Y-197897000D01*
X48871337Y-197684320D01*
X49264320Y-197291337D01*
X49350000Y-197084487D01*
X49435680Y-197291337D01*
X49828663Y-197684320D01*
X50342119Y-197897000D01*
X50897881Y-197897000D01*
X51411337Y-197684320D01*
X51804320Y-197291337D01*
X51890000Y-197084487D01*
X51975680Y-197291337D01*
X52368663Y-197684320D01*
X52400000Y-197697300D01*
X52400000Y-197943960D01*
X48035611Y-202308349D01*
X47994320Y-202208663D01*
X47601337Y-201815680D01*
X47087881Y-201603000D01*
X46532119Y-201603000D01*
X46018663Y-201815680D01*
X45625680Y-202208663D01*
X45540000Y-202415513D01*
X45454320Y-202208663D01*
X45061337Y-201815680D01*
X44547881Y-201603000D01*
X43992119Y-201603000D01*
X43478663Y-201815680D01*
X43085680Y-202208663D01*
X43000000Y-202415513D01*
X42914320Y-202208663D01*
X42521337Y-201815680D01*
X42007881Y-201603000D01*
X41452119Y-201603000D01*
X40938663Y-201815680D01*
X40585653Y-202168690D01*
X40550157Y-201990235D01*
X40409809Y-201780191D01*
X40199765Y-201639843D01*
X39952000Y-201590560D01*
X38428000Y-201590560D01*
X38180235Y-201639843D01*
X37970191Y-201780191D01*
X37829843Y-201990235D01*
X37780560Y-202238000D01*
X37780560Y-203762000D01*
X37829843Y-204009765D01*
X37970191Y-204219809D01*
X38180235Y-204360157D01*
X38428000Y-204409440D01*
X38541518Y-204409440D01*
X38595434Y-204490130D01*
X38642072Y-204559929D01*
X38687030Y-204589969D01*
X38717072Y-204634930D01*
X38968464Y-204802905D01*
X39190149Y-204847001D01*
X39190153Y-204847001D01*
X39265000Y-204861889D01*
X39339847Y-204847001D01*
X47256914Y-204847001D01*
X47331761Y-204861889D01*
X47406608Y-204847001D01*
X47406613Y-204847001D01*
X47628298Y-204802905D01*
X47879690Y-204634930D01*
X47922092Y-204571471D01*
X48256392Y-204237171D01*
X65665000Y-204237171D01*
X65665000Y-205762829D01*
X66248844Y-207172353D01*
X67327647Y-208251156D01*
X68737171Y-208835000D01*
X70262829Y-208835000D01*
X71672353Y-208251156D01*
X72751156Y-207172353D01*
X73335000Y-205762829D01*
X73335000Y-204237171D01*
X72751156Y-202827647D01*
X71672353Y-201748844D01*
X70262829Y-201165000D01*
X68737171Y-201165000D01*
X67327647Y-201748844D01*
X66248844Y-202827647D01*
X65665000Y-204237171D01*
X48256392Y-204237171D01*
X53644473Y-198849091D01*
X53707929Y-198806691D01*
X53875904Y-198555299D01*
X53920000Y-198333614D01*
X53920000Y-198333610D01*
X53934888Y-198258762D01*
X53920000Y-198183914D01*
X53920000Y-197697300D01*
X53951337Y-197684320D01*
X54344320Y-197291337D01*
X54557000Y-196777881D01*
X54557000Y-196222119D01*
X54344320Y-195708663D01*
X53951337Y-195315680D01*
X53437881Y-195103000D01*
X52882119Y-195103000D01*
X52368663Y-195315680D01*
X51975680Y-195708663D01*
X51890000Y-195915513D01*
X51804320Y-195708663D01*
X51411337Y-195315680D01*
X50897881Y-195103000D01*
X50342119Y-195103000D01*
X49828663Y-195315680D01*
X49435680Y-195708663D01*
X49350000Y-195915513D01*
X49264320Y-195708663D01*
X48871337Y-195315680D01*
X48357881Y-195103000D01*
X47802119Y-195103000D01*
X47288663Y-195315680D01*
X46895680Y-195708663D01*
X46810000Y-195915513D01*
X46724320Y-195708663D01*
X46331337Y-195315680D01*
X45817881Y-195103000D01*
X45262119Y-195103000D01*
X44748663Y-195315680D01*
X44355680Y-195708663D01*
X44270000Y-195915513D01*
X44184320Y-195708663D01*
X43791337Y-195315680D01*
X43277881Y-195103000D01*
X42722119Y-195103000D01*
X42208663Y-195315680D01*
X41815680Y-195708663D01*
X41730000Y-195915513D01*
X41644320Y-195708663D01*
X41251337Y-195315680D01*
X40737881Y-195103000D01*
X40182119Y-195103000D01*
X39668663Y-195315680D01*
X39275680Y-195708663D01*
X39190000Y-195915513D01*
X39104320Y-195708663D01*
X38711337Y-195315680D01*
X38197881Y-195103000D01*
X37642119Y-195103000D01*
X37128663Y-195315680D01*
X36735680Y-195708663D01*
X36650000Y-195915513D01*
X36564320Y-195708663D01*
X36171337Y-195315680D01*
X35657881Y-195103000D01*
X35102119Y-195103000D01*
X34588663Y-195315680D01*
X34235653Y-195668690D01*
X34200157Y-195490235D01*
X34059809Y-195280191D01*
X33849765Y-195139843D01*
X33602000Y-195090560D01*
X32078000Y-195090560D01*
X31830235Y-195139843D01*
X31620191Y-195280191D01*
X31479843Y-195490235D01*
X31430560Y-195738000D01*
X8312801Y-195738000D01*
X7760000Y-195185199D01*
X7760000Y-193838043D01*
X8034577Y-193654577D01*
X8351740Y-193179909D01*
X8463113Y-192620000D01*
X8412934Y-192367736D01*
X10437527Y-194392329D01*
X10625463Y-194517904D01*
X10922000Y-194576888D01*
X11218537Y-194517904D01*
X11469929Y-194349929D01*
X11637904Y-194098537D01*
X11696888Y-193802000D01*
X11637904Y-193505463D01*
X11512329Y-193317527D01*
X8289580Y-190094778D01*
X75835000Y-190094778D01*
X75835000Y-190745222D01*
X76083914Y-191346153D01*
X76543847Y-191806086D01*
X77144778Y-192055000D01*
X77795222Y-192055000D01*
X78396153Y-191806086D01*
X78856086Y-191346153D01*
X79105000Y-190745222D01*
X79105000Y-190094778D01*
X78856086Y-189493847D01*
X78396153Y-189033914D01*
X77795222Y-188785000D01*
X77144778Y-188785000D01*
X76543847Y-189033914D01*
X76083914Y-189493847D01*
X75835000Y-190094778D01*
X8289580Y-190094778D01*
X7760000Y-189565199D01*
X7760000Y-186238430D01*
X7812862Y-186216534D01*
X8216534Y-185812862D01*
X8435000Y-185285439D01*
X8435000Y-184714561D01*
X8413103Y-184661698D01*
X8519370Y-184555431D01*
X17765000Y-184555431D01*
X17765000Y-185444569D01*
X18105259Y-186266026D01*
X18733974Y-186894741D01*
X19555431Y-187235000D01*
X20444569Y-187235000D01*
X21266026Y-186894741D01*
X21894741Y-186266026D01*
X22235000Y-185444569D01*
X22235000Y-184555431D01*
X63765000Y-184555431D01*
X63765000Y-185444569D01*
X64105259Y-186266026D01*
X64733974Y-186894741D01*
X65555431Y-187235000D01*
X66444569Y-187235000D01*
X67266026Y-186894741D01*
X67894741Y-186266026D01*
X68235000Y-185444569D01*
X68235000Y-184555431D01*
X67894741Y-183733974D01*
X67266026Y-183105259D01*
X66444569Y-182765000D01*
X65555431Y-182765000D01*
X64733974Y-183105259D01*
X64105259Y-183733974D01*
X63765000Y-184555431D01*
X22235000Y-184555431D01*
X21894741Y-183733974D01*
X21266026Y-183105259D01*
X20444569Y-182765000D01*
X19555431Y-182765000D01*
X18733974Y-183105259D01*
X18105259Y-183733974D01*
X17765000Y-184555431D01*
X8519370Y-184555431D01*
X10644405Y-182430397D01*
X10707861Y-182387997D01*
X10778066Y-182282928D01*
X10875836Y-182136606D01*
X10896735Y-182031537D01*
X10919932Y-181914920D01*
X10919932Y-181914916D01*
X10934820Y-181840068D01*
X10919932Y-181765220D01*
X10919932Y-178503711D01*
X11037363Y-178386280D01*
X11194932Y-178005874D01*
X11194932Y-177839801D01*
X11417084Y-177617649D01*
X11417191Y-177617809D01*
X11627235Y-177758157D01*
X11636500Y-177760000D01*
X11627235Y-177761843D01*
X11417191Y-177902191D01*
X11276843Y-178112235D01*
X11227560Y-178360000D01*
X11227560Y-179660000D01*
X11276843Y-179907765D01*
X11417191Y-180117809D01*
X11627235Y-180258157D01*
X11875000Y-180307440D01*
X19125000Y-180307440D01*
X19372765Y-180258157D01*
X19582809Y-180117809D01*
X19723157Y-179907765D01*
X19738624Y-179830004D01*
X20886289Y-179830004D01*
X21003720Y-179947435D01*
X21384126Y-180105004D01*
X21795874Y-180105004D01*
X22176280Y-179947435D01*
X22467431Y-179656284D01*
X22625000Y-179275878D01*
X22625000Y-178864130D01*
X22467431Y-178483724D01*
X22176280Y-178192573D01*
X21795874Y-178035004D01*
X21384126Y-178035004D01*
X21003720Y-178192573D01*
X20886289Y-178310004D01*
X19762495Y-178310004D01*
X19723157Y-178112235D01*
X19582809Y-177902191D01*
X19372765Y-177761843D01*
X19363500Y-177760000D01*
X19372765Y-177758157D01*
X19582809Y-177617809D01*
X19723157Y-177407765D01*
X19772440Y-177160000D01*
X19772440Y-176020000D01*
X24490973Y-176020000D01*
X24365000Y-176324126D01*
X24365000Y-176735874D01*
X24522569Y-177116280D01*
X24813720Y-177407431D01*
X25194126Y-177565000D01*
X25605874Y-177565000D01*
X25655595Y-177544405D01*
X25635000Y-177594126D01*
X25635000Y-178005874D01*
X25792569Y-178386280D01*
X26083720Y-178677431D01*
X26464126Y-178835000D01*
X26875874Y-178835000D01*
X27256280Y-178677431D01*
X27373711Y-178560000D01*
X31046289Y-178560000D01*
X31163720Y-178677431D01*
X31544126Y-178835000D01*
X31955874Y-178835000D01*
X32336280Y-178677431D01*
X32627431Y-178386280D01*
X32785000Y-178005874D01*
X32785000Y-177594126D01*
X32627431Y-177213720D01*
X32336280Y-176922569D01*
X31955874Y-176765000D01*
X31544126Y-176765000D01*
X31494405Y-176785595D01*
X31515000Y-176735874D01*
X31515000Y-176324126D01*
X31389027Y-176020000D01*
X49585469Y-176020000D01*
X51849943Y-178284476D01*
X51892341Y-178347929D01*
X51955794Y-178390327D01*
X51955796Y-178390329D01*
X51999710Y-178419671D01*
X52143733Y-178515904D01*
X52365418Y-178560000D01*
X52365422Y-178560000D01*
X52440269Y-178574888D01*
X52515116Y-178560000D01*
X66227560Y-178560000D01*
X66227560Y-179660000D01*
X66276843Y-179907765D01*
X66417191Y-180117809D01*
X66627235Y-180258157D01*
X66875000Y-180307440D01*
X74125000Y-180307440D01*
X74372765Y-180258157D01*
X74582809Y-180117809D01*
X74723157Y-179907765D01*
X74738625Y-179830000D01*
X75496273Y-179830000D01*
X75613704Y-179947431D01*
X75994110Y-180105000D01*
X76405858Y-180105000D01*
X76786264Y-179947431D01*
X77077415Y-179656280D01*
X77234984Y-179275874D01*
X77234984Y-178864126D01*
X77109011Y-178560000D01*
X79695199Y-178560000D01*
X79881312Y-178746113D01*
X79816887Y-179070000D01*
X79928260Y-179629909D01*
X80245423Y-180104577D01*
X80720091Y-180421740D01*
X81138667Y-180505000D01*
X81421333Y-180505000D01*
X81645001Y-180460510D01*
X81645001Y-181420196D01*
X78997984Y-184067215D01*
X78927809Y-183962191D01*
X78717765Y-183821843D01*
X78470000Y-183772560D01*
X76470000Y-183772560D01*
X76222235Y-183821843D01*
X76012191Y-183962191D01*
X75871843Y-184172235D01*
X75822560Y-184420000D01*
X75822560Y-186420000D01*
X75871843Y-186667765D01*
X76012191Y-186877809D01*
X76222235Y-187018157D01*
X76470000Y-187067440D01*
X78470000Y-187067440D01*
X78717765Y-187018157D01*
X78927809Y-186877809D01*
X79068157Y-186667765D01*
X79117440Y-186420000D01*
X79117440Y-186068483D01*
X79267929Y-185967929D01*
X79310331Y-185904470D01*
X82889477Y-182325326D01*
X82952930Y-182282928D01*
X82995328Y-182219475D01*
X82995330Y-182219473D01*
X83120904Y-182031537D01*
X83120905Y-182031536D01*
X83165001Y-181809851D01*
X83165001Y-181809847D01*
X83179889Y-181735000D01*
X83165001Y-181660153D01*
X83165001Y-178604846D01*
X83179889Y-178529999D01*
X83165001Y-178455152D01*
X83165001Y-178455147D01*
X83120905Y-178233462D01*
X82952930Y-177982070D01*
X82889474Y-177939670D01*
X80975333Y-176025530D01*
X80932931Y-175962071D01*
X80681539Y-175794096D01*
X80459854Y-175750000D01*
X80459849Y-175750000D01*
X80385002Y-175735112D01*
X80310155Y-175750000D01*
X74750560Y-175750000D01*
X74723157Y-175612235D01*
X74582809Y-175402191D01*
X74372765Y-175261843D01*
X74363500Y-175260000D01*
X74372765Y-175258157D01*
X74582809Y-175117809D01*
X74723157Y-174907765D01*
X74750560Y-174770000D01*
X78645153Y-174770000D01*
X78720000Y-174784888D01*
X78794847Y-174770000D01*
X78794852Y-174770000D01*
X79016537Y-174725904D01*
X79267929Y-174557929D01*
X79310331Y-174494470D01*
X80941698Y-172863103D01*
X80994561Y-172885000D01*
X81565439Y-172885000D01*
X82092862Y-172666534D01*
X82496534Y-172262862D01*
X82715000Y-171735439D01*
X82715000Y-171164561D01*
X82496534Y-170637138D01*
X82092862Y-170233466D01*
X81565439Y-170015000D01*
X80994561Y-170015000D01*
X80467138Y-170233466D01*
X80063466Y-170637138D01*
X79845000Y-171164561D01*
X79845000Y-171735439D01*
X79866897Y-171788302D01*
X78405199Y-173250000D01*
X74750560Y-173250000D01*
X74723157Y-173112235D01*
X74582809Y-172902191D01*
X74372765Y-172761843D01*
X74363500Y-172760000D01*
X74372765Y-172758157D01*
X74582809Y-172617809D01*
X74723157Y-172407765D01*
X74750560Y-172270000D01*
X75556289Y-172270000D01*
X75613720Y-172327431D01*
X75994126Y-172485000D01*
X76405874Y-172485000D01*
X76786280Y-172327431D01*
X77077431Y-172036280D01*
X77235000Y-171655874D01*
X77235000Y-171244126D01*
X77077431Y-170863720D01*
X76786280Y-170572569D01*
X76405874Y-170415000D01*
X75994126Y-170415000D01*
X75613720Y-170572569D01*
X75436289Y-170750000D01*
X74750560Y-170750000D01*
X74723157Y-170612235D01*
X74582809Y-170402191D01*
X74372765Y-170261843D01*
X74125000Y-170212560D01*
X67082241Y-170212560D01*
X73858782Y-163436020D01*
X73890119Y-163449000D01*
X74445881Y-163449000D01*
X74959337Y-163236320D01*
X75352320Y-162843337D01*
X75438000Y-162636487D01*
X75523680Y-162843337D01*
X75916663Y-163236320D01*
X76430119Y-163449000D01*
X76985881Y-163449000D01*
X77499337Y-163236320D01*
X77892320Y-162843337D01*
X77978000Y-162636487D01*
X78063680Y-162843337D01*
X78456663Y-163236320D01*
X78970119Y-163449000D01*
X79525881Y-163449000D01*
X80039337Y-163236320D01*
X80432320Y-162843337D01*
X80518000Y-162636487D01*
X80603680Y-162843337D01*
X80996663Y-163236320D01*
X81510119Y-163449000D01*
X82065881Y-163449000D01*
X82579337Y-163236320D01*
X82972320Y-162843337D01*
X83185000Y-162329881D01*
X83185000Y-161774119D01*
X82972320Y-161260663D01*
X82579337Y-160867680D01*
X82065881Y-160655000D01*
X81510119Y-160655000D01*
X80996663Y-160867680D01*
X80603680Y-161260663D01*
X80518000Y-161467513D01*
X80432320Y-161260663D01*
X80039337Y-160867680D01*
X79525881Y-160655000D01*
X78970119Y-160655000D01*
X78938782Y-160667980D01*
X77811321Y-159540520D01*
X77768919Y-159477061D01*
X77517527Y-159309086D01*
X77295842Y-159264990D01*
X77295837Y-159264990D01*
X77220990Y-159250102D01*
X77146143Y-159264990D01*
X45536667Y-159264990D01*
X45634320Y-159167337D01*
X45847000Y-158653881D01*
X45847000Y-158098119D01*
X45634320Y-157584663D01*
X45241337Y-157191680D01*
X44727881Y-156979000D01*
X44172119Y-156979000D01*
X44140819Y-156991965D01*
X38414383Y-151265530D01*
X38371981Y-151202071D01*
X38120589Y-151034096D01*
X37898904Y-150990000D01*
X37898899Y-150990000D01*
X37824052Y-150975112D01*
X37749205Y-150990000D01*
X23584832Y-150990000D01*
X23509984Y-150975112D01*
X23435136Y-150990000D01*
X23435132Y-150990000D01*
X23261589Y-151024520D01*
X23213446Y-151034096D01*
X23026402Y-151159076D01*
X22962055Y-151202071D01*
X22919655Y-151265527D01*
X22820182Y-151365000D01*
X22654110Y-151365000D01*
X22414187Y-151464379D01*
X22537000Y-151167881D01*
X22537000Y-150612119D01*
X22324320Y-150098663D01*
X21931337Y-149705680D01*
X21417881Y-149493000D01*
X20862119Y-149493000D01*
X20348663Y-149705680D01*
X19955680Y-150098663D01*
X19870000Y-150305513D01*
X19784320Y-150098663D01*
X19391337Y-149705680D01*
X18877881Y-149493000D01*
X18322119Y-149493000D01*
X17808663Y-149705680D01*
X17415680Y-150098663D01*
X17330000Y-150305513D01*
X17244320Y-150098663D01*
X16851337Y-149705680D01*
X16337881Y-149493000D01*
X15782119Y-149493000D01*
X15268663Y-149705680D01*
X14875680Y-150098663D01*
X14790000Y-150305513D01*
X14704320Y-150098663D01*
X14311337Y-149705680D01*
X13797881Y-149493000D01*
X13242119Y-149493000D01*
X12728663Y-149705680D01*
X12335680Y-150098663D01*
X12250000Y-150305513D01*
X12164320Y-150098663D01*
X11771337Y-149705680D01*
X11282576Y-149503229D01*
X11586280Y-149377431D01*
X11877431Y-149086280D01*
X12035000Y-148705874D01*
X12035000Y-148539802D01*
X12814803Y-147760000D01*
X46452153Y-147760000D01*
X46527000Y-147774888D01*
X46601847Y-147760000D01*
X46601852Y-147760000D01*
X46823537Y-147715904D01*
X47074929Y-147547929D01*
X47083568Y-147535000D01*
X47232874Y-147535000D01*
X47613280Y-147377431D01*
X47904431Y-147086280D01*
X48062000Y-146705874D01*
X48062000Y-146294126D01*
X47904431Y-145913720D01*
X47613280Y-145622569D01*
X47232874Y-145465000D01*
X46821126Y-145465000D01*
X46440720Y-145622569D01*
X46149569Y-145913720D01*
X46014420Y-146240000D01*
X42660801Y-146240000D01*
X44140782Y-144760020D01*
X44172119Y-144773000D01*
X44727881Y-144773000D01*
X45241337Y-144560320D01*
X45634320Y-144167337D01*
X45847000Y-143653881D01*
X45847000Y-143098119D01*
X45634320Y-142584663D01*
X45241337Y-142191680D01*
X44727881Y-141979000D01*
X44172119Y-141979000D01*
X43658663Y-142191680D01*
X43265680Y-142584663D01*
X43053000Y-143098119D01*
X43053000Y-143653881D01*
X43065980Y-143685218D01*
X41448539Y-145302660D01*
X16991051Y-145302660D01*
X16873620Y-145185229D01*
X16493214Y-145027660D01*
X16081466Y-145027660D01*
X15701060Y-145185229D01*
X15409909Y-145476380D01*
X15252340Y-145856786D01*
X15252340Y-146240000D01*
X12574846Y-146240000D01*
X12499999Y-146225112D01*
X12425152Y-146240000D01*
X12425148Y-146240000D01*
X12203463Y-146284096D01*
X12203461Y-146284097D01*
X12203462Y-146284097D01*
X12015526Y-146409671D01*
X12015524Y-146409673D01*
X11952071Y-146452071D01*
X11909673Y-146515524D01*
X10960198Y-147465000D01*
X10794126Y-147465000D01*
X10413720Y-147622569D01*
X10122569Y-147913720D01*
X9965000Y-148294126D01*
X9965000Y-148705874D01*
X10122569Y-149086280D01*
X10413720Y-149377431D01*
X10697424Y-149494945D01*
X10188663Y-149705680D01*
X9795680Y-150098663D01*
X9710000Y-150305513D01*
X9624320Y-150098663D01*
X9231337Y-149705680D01*
X8717881Y-149493000D01*
X8162119Y-149493000D01*
X7648663Y-149705680D01*
X7255680Y-150098663D01*
X7170000Y-150305513D01*
X7084320Y-150098663D01*
X6691337Y-149705680D01*
X6177881Y-149493000D01*
X5622119Y-149493000D01*
X5108663Y-149705680D01*
X4715680Y-150098663D01*
X4630000Y-150305513D01*
X4544320Y-150098663D01*
X4151337Y-149705680D01*
X3637881Y-149493000D01*
X3082119Y-149493000D01*
X3032999Y-149513346D01*
X3032999Y-139714561D01*
X24565000Y-139714561D01*
X24565000Y-140285439D01*
X24783466Y-140812862D01*
X25187138Y-141216534D01*
X25714561Y-141435000D01*
X26285439Y-141435000D01*
X26812862Y-141216534D01*
X27216534Y-140812862D01*
X27435000Y-140285439D01*
X27435000Y-139779888D01*
X69980000Y-139779888D01*
X69980000Y-140470114D01*
X70244138Y-141107800D01*
X70732201Y-141595863D01*
X71369887Y-141860001D01*
X72060113Y-141860001D01*
X72697799Y-141595863D01*
X73185862Y-141107800D01*
X73450000Y-140470114D01*
X73450000Y-139779888D01*
X73447929Y-139774887D01*
X79975000Y-139774887D01*
X79975000Y-140465113D01*
X80239138Y-141102799D01*
X80727201Y-141590862D01*
X81364887Y-141855000D01*
X82055113Y-141855000D01*
X82692799Y-141590862D01*
X83180862Y-141102799D01*
X83445000Y-140465113D01*
X83445000Y-139774887D01*
X83180862Y-139137201D01*
X82692799Y-138649138D01*
X82055113Y-138385000D01*
X81364887Y-138385000D01*
X80727201Y-138649138D01*
X80239138Y-139137201D01*
X79975000Y-139774887D01*
X73447929Y-139774887D01*
X73185862Y-139142202D01*
X72697799Y-138654139D01*
X72060113Y-138390001D01*
X71369887Y-138390001D01*
X70732201Y-138654139D01*
X70244138Y-139142202D01*
X69980000Y-139779888D01*
X27435000Y-139779888D01*
X27435000Y-139714561D01*
X27216534Y-139187138D01*
X26812862Y-138783466D01*
X26285439Y-138565000D01*
X25714561Y-138565000D01*
X25187138Y-138783466D01*
X24783466Y-139187138D01*
X24565000Y-139714561D01*
X3032999Y-139714561D01*
X3032999Y-134486654D01*
X3082119Y-134507000D01*
X3637881Y-134507000D01*
X4151337Y-134294320D01*
X4544320Y-133901337D01*
X4630000Y-133694487D01*
X4715680Y-133901337D01*
X5108663Y-134294320D01*
X5140000Y-134307300D01*
X5140001Y-136646288D01*
X5122569Y-136663720D01*
X4965000Y-137044126D01*
X4965000Y-137455874D01*
X5122569Y-137836280D01*
X5413720Y-138127431D01*
X5794126Y-138285000D01*
X6205874Y-138285000D01*
X6586280Y-138127431D01*
X6877431Y-137836280D01*
X7035000Y-137455874D01*
X7035000Y-137044126D01*
X6877431Y-136663720D01*
X6660000Y-136446289D01*
X6660000Y-134307300D01*
X6691337Y-134294320D01*
X7084320Y-133901337D01*
X7170000Y-133694487D01*
X7255680Y-133901337D01*
X7648663Y-134294320D01*
X8162119Y-134507000D01*
X8717881Y-134507000D01*
X9231337Y-134294320D01*
X9624320Y-133901337D01*
X9710000Y-133694487D01*
X9795680Y-133901337D01*
X10188663Y-134294320D01*
X10702119Y-134507000D01*
X11257881Y-134507000D01*
X11771337Y-134294320D01*
X12164320Y-133901337D01*
X12250000Y-133694487D01*
X12335680Y-133901337D01*
X12728663Y-134294320D01*
X13242119Y-134507000D01*
X13797881Y-134507000D01*
X14311337Y-134294320D01*
X14704320Y-133901337D01*
X14790000Y-133694487D01*
X14875680Y-133901337D01*
X15268663Y-134294320D01*
X15782119Y-134507000D01*
X16337881Y-134507000D01*
X16851337Y-134294320D01*
X17244320Y-133901337D01*
X17330000Y-133694487D01*
X17415680Y-133901337D01*
X17808663Y-134294320D01*
X18322119Y-134507000D01*
X18877881Y-134507000D01*
X19391337Y-134294320D01*
X19784320Y-133901337D01*
X19870000Y-133694487D01*
X19955680Y-133901337D01*
X20348663Y-134294320D01*
X20862119Y-134507000D01*
X21417881Y-134507000D01*
X21449218Y-134494020D01*
X21551671Y-134596473D01*
X21594071Y-134659929D01*
X21845463Y-134827904D01*
X22067148Y-134872000D01*
X22067153Y-134872000D01*
X22142000Y-134886888D01*
X22216847Y-134872000D01*
X48223310Y-134872000D01*
X48340741Y-134989431D01*
X48721147Y-135147000D01*
X49132895Y-135147000D01*
X49513301Y-134989431D01*
X49804452Y-134698280D01*
X49962021Y-134317874D01*
X49962021Y-133906126D01*
X49940798Y-133854887D01*
X80895000Y-133854887D01*
X80895000Y-134545113D01*
X81159138Y-135182799D01*
X81647201Y-135670862D01*
X82284887Y-135935000D01*
X82975113Y-135935000D01*
X83612799Y-135670862D01*
X84100862Y-135182799D01*
X84365000Y-134545113D01*
X84365000Y-133854887D01*
X84100862Y-133217201D01*
X83612799Y-132729138D01*
X82975113Y-132465000D01*
X82284887Y-132465000D01*
X81647201Y-132729138D01*
X81159138Y-133217201D01*
X80895000Y-133854887D01*
X49940798Y-133854887D01*
X49804452Y-133525720D01*
X49513301Y-133234569D01*
X49132895Y-133077000D01*
X48721147Y-133077000D01*
X48340741Y-133234569D01*
X48223310Y-133352000D01*
X27076390Y-133352000D01*
X27351740Y-132939909D01*
X27463113Y-132380000D01*
X27351740Y-131820091D01*
X27034577Y-131345423D01*
X26559909Y-131028260D01*
X26468110Y-131010000D01*
X26818789Y-131010000D01*
X27574262Y-131765474D01*
X27616662Y-131828930D01*
X27868054Y-131996905D01*
X28089739Y-132041001D01*
X28089743Y-132041001D01*
X28164591Y-132055889D01*
X28239439Y-132041001D01*
X30753154Y-132041001D01*
X30828001Y-132055889D01*
X30902848Y-132041001D01*
X30902853Y-132041001D01*
X31124538Y-131996905D01*
X31375930Y-131828930D01*
X31418332Y-131765471D01*
X31689471Y-131494332D01*
X31752930Y-131451930D01*
X31920905Y-131200538D01*
X31965001Y-130978853D01*
X31965001Y-130978849D01*
X31979889Y-130904001D01*
X31965001Y-130829153D01*
X31965001Y-130439803D01*
X32759671Y-131234473D01*
X32802071Y-131297929D01*
X33053463Y-131465904D01*
X33275148Y-131510000D01*
X33275152Y-131510000D01*
X33349999Y-131524888D01*
X33424846Y-131510000D01*
X46046289Y-131510000D01*
X46163720Y-131627431D01*
X46544126Y-131785000D01*
X46955874Y-131785000D01*
X47336280Y-131627431D01*
X47627431Y-131336280D01*
X47785000Y-130955874D01*
X47785000Y-130544126D01*
X47627431Y-130163720D01*
X47336280Y-129872569D01*
X46955874Y-129715000D01*
X46544126Y-129715000D01*
X46163720Y-129872569D01*
X46046289Y-129990000D01*
X33664802Y-129990000D01*
X33349802Y-129675000D01*
X33521333Y-129675000D01*
X33939909Y-129591740D01*
X34414577Y-129274577D01*
X34650000Y-128922242D01*
X34885423Y-129274577D01*
X35360091Y-129591740D01*
X35778667Y-129675000D01*
X36061333Y-129675000D01*
X36479909Y-129591740D01*
X36954577Y-129274577D01*
X37190000Y-128922242D01*
X37425423Y-129274577D01*
X37900091Y-129591740D01*
X38318667Y-129675000D01*
X38601333Y-129675000D01*
X39019909Y-129591740D01*
X39494577Y-129274577D01*
X39750947Y-128890892D01*
X39847611Y-129095134D01*
X40262577Y-129471041D01*
X40650961Y-129631904D01*
X40873000Y-129509915D01*
X40873000Y-128367000D01*
X41127000Y-128367000D01*
X41127000Y-129509915D01*
X41349039Y-129631904D01*
X41737423Y-129471041D01*
X42152389Y-129095134D01*
X42391914Y-128589041D01*
X42270629Y-128367000D01*
X41127000Y-128367000D01*
X40873000Y-128367000D01*
X40853000Y-128367000D01*
X40853000Y-128113000D01*
X40873000Y-128113000D01*
X40873000Y-126970085D01*
X41127000Y-126970085D01*
X41127000Y-128113000D01*
X42270629Y-128113000D01*
X42391914Y-127890959D01*
X42152389Y-127384866D01*
X41737423Y-127008959D01*
X41349039Y-126848096D01*
X41127000Y-126970085D01*
X40873000Y-126970085D01*
X40650961Y-126848096D01*
X40262577Y-127008959D01*
X39847611Y-127384866D01*
X39750947Y-127589108D01*
X39494577Y-127205423D01*
X39019909Y-126888260D01*
X38601333Y-126805000D01*
X38318667Y-126805000D01*
X37900091Y-126888260D01*
X37425423Y-127205423D01*
X37190000Y-127557758D01*
X36954577Y-127205423D01*
X36479909Y-126888260D01*
X36061333Y-126805000D01*
X35778667Y-126805000D01*
X35360091Y-126888260D01*
X34885423Y-127205423D01*
X34650000Y-127557758D01*
X34414577Y-127205423D01*
X33939909Y-126888260D01*
X33521333Y-126805000D01*
X33238667Y-126805000D01*
X33056113Y-126841312D01*
X32845330Y-126630529D01*
X32802928Y-126567070D01*
X32551536Y-126399095D01*
X32329851Y-126354999D01*
X32329846Y-126354999D01*
X32254999Y-126340111D01*
X32180152Y-126354999D01*
X20878212Y-126354999D01*
X19826731Y-125303519D01*
X19784329Y-125240060D01*
X19532937Y-125072085D01*
X19311252Y-125027989D01*
X19311247Y-125027989D01*
X19236400Y-125013101D01*
X19161553Y-125027989D01*
X9602791Y-125027989D01*
X2574999Y-118000198D01*
X2574999Y-113000000D01*
X3976887Y-113000000D01*
X4088260Y-113559909D01*
X4405423Y-114034577D01*
X4880091Y-114351740D01*
X5298667Y-114435000D01*
X5581333Y-114435000D01*
X5999909Y-114351740D01*
X6474577Y-114034577D01*
X6710000Y-113682242D01*
X6945423Y-114034577D01*
X7420091Y-114351740D01*
X7838667Y-114435000D01*
X8121333Y-114435000D01*
X8539909Y-114351740D01*
X9014577Y-114034577D01*
X9250000Y-113682242D01*
X9485423Y-114034577D01*
X9960091Y-114351740D01*
X10378667Y-114435000D01*
X10661333Y-114435000D01*
X11079909Y-114351740D01*
X11554577Y-114034577D01*
X11790000Y-113682242D01*
X12025423Y-114034577D01*
X12500091Y-114351740D01*
X12918667Y-114435000D01*
X13201333Y-114435000D01*
X13619909Y-114351740D01*
X14094577Y-114034577D01*
X14330000Y-113682242D01*
X14565423Y-114034577D01*
X15040091Y-114351740D01*
X15458667Y-114435000D01*
X15741333Y-114435000D01*
X16159909Y-114351740D01*
X16634577Y-114034577D01*
X16870000Y-113682242D01*
X17105423Y-114034577D01*
X17580091Y-114351740D01*
X17998667Y-114435000D01*
X18281333Y-114435000D01*
X18699909Y-114351740D01*
X19174577Y-114034577D01*
X19410000Y-113682242D01*
X19645423Y-114034577D01*
X20120091Y-114351740D01*
X20538667Y-114435000D01*
X20821333Y-114435000D01*
X21239909Y-114351740D01*
X21714577Y-114034577D01*
X21950000Y-113682242D01*
X22185423Y-114034577D01*
X22660091Y-114351740D01*
X23078667Y-114435000D01*
X23361333Y-114435000D01*
X23779909Y-114351740D01*
X24254577Y-114034577D01*
X24490000Y-113682242D01*
X24725423Y-114034577D01*
X25200091Y-114351740D01*
X25618667Y-114435000D01*
X25901333Y-114435000D01*
X26319909Y-114351740D01*
X26794577Y-114034577D01*
X27030000Y-113682242D01*
X27265423Y-114034577D01*
X27740091Y-114351740D01*
X28158667Y-114435000D01*
X28441333Y-114435000D01*
X28859909Y-114351740D01*
X29334577Y-114034577D01*
X29570000Y-113682242D01*
X29805423Y-114034577D01*
X30280091Y-114351740D01*
X30698667Y-114435000D01*
X30981333Y-114435000D01*
X31163887Y-114398688D01*
X31374670Y-114609471D01*
X31417072Y-114672930D01*
X31668464Y-114840905D01*
X31890149Y-114885001D01*
X31890153Y-114885001D01*
X31965000Y-114899889D01*
X32039847Y-114885001D01*
X41985154Y-114885001D01*
X42060001Y-114899889D01*
X42134848Y-114885001D01*
X42134853Y-114885001D01*
X42356538Y-114840905D01*
X42607930Y-114672930D01*
X42633965Y-114633965D01*
X42672930Y-114607930D01*
X42840905Y-114356538D01*
X42885001Y-114134853D01*
X42885001Y-114134848D01*
X42899889Y-114060001D01*
X42885001Y-113985154D01*
X42885001Y-113637800D01*
X44764802Y-111758000D01*
X64997199Y-111758000D01*
X66794198Y-113555000D01*
X66448119Y-113555000D01*
X65934663Y-113767680D01*
X65541680Y-114160663D01*
X65456000Y-114367513D01*
X65370320Y-114160663D01*
X64977337Y-113767680D01*
X64463881Y-113555000D01*
X63908119Y-113555000D01*
X63394663Y-113767680D01*
X63001680Y-114160663D01*
X62789000Y-114674119D01*
X62789000Y-115229881D01*
X62801980Y-115261218D01*
X62237199Y-115826000D01*
X47950802Y-115826000D01*
X47655000Y-115530199D01*
X47655000Y-115364126D01*
X47497431Y-114983720D01*
X47380000Y-114866289D01*
X47380000Y-114204721D01*
X47497431Y-114087290D01*
X47655000Y-113706884D01*
X47655000Y-113354887D01*
X53195000Y-113354887D01*
X53195000Y-114045113D01*
X53459138Y-114682799D01*
X53947201Y-115170862D01*
X54584887Y-115435000D01*
X55275113Y-115435000D01*
X55912799Y-115170862D01*
X56400862Y-114682799D01*
X56665000Y-114045113D01*
X56665000Y-113354887D01*
X56400862Y-112717201D01*
X55912799Y-112229138D01*
X55275113Y-111965000D01*
X54584887Y-111965000D01*
X53947201Y-112229138D01*
X53459138Y-112717201D01*
X53195000Y-113354887D01*
X47655000Y-113354887D01*
X47655000Y-113295136D01*
X47497431Y-112914730D01*
X47206280Y-112623579D01*
X46825874Y-112466010D01*
X46414126Y-112466010D01*
X46033720Y-112623579D01*
X45742569Y-112914730D01*
X45585000Y-113295136D01*
X45585000Y-113706884D01*
X45742569Y-114087290D01*
X45860001Y-114204722D01*
X45860000Y-114866289D01*
X45742569Y-114983720D01*
X45585000Y-115364126D01*
X45585000Y-115775874D01*
X45742569Y-116156280D01*
X46033720Y-116447431D01*
X46414126Y-116605000D01*
X46580199Y-116605000D01*
X47045671Y-117070473D01*
X47062728Y-117096000D01*
X46247000Y-117096000D01*
X46247000Y-116888126D01*
X46089431Y-116507720D01*
X45798280Y-116216569D01*
X45417874Y-116059000D01*
X45006126Y-116059000D01*
X44625720Y-116216569D01*
X44508289Y-116334000D01*
X8577711Y-116334000D01*
X8460280Y-116216569D01*
X8079874Y-116059000D01*
X7668126Y-116059000D01*
X7287720Y-116216569D01*
X6996569Y-116507720D01*
X6839000Y-116888126D01*
X6839000Y-117299874D01*
X6996569Y-117680280D01*
X7174289Y-117858000D01*
X6291711Y-117858000D01*
X6174280Y-117740569D01*
X5793874Y-117583000D01*
X5382126Y-117583000D01*
X5001720Y-117740569D01*
X4710569Y-118031720D01*
X4553000Y-118412126D01*
X4553000Y-118823874D01*
X4710569Y-119204280D01*
X5001720Y-119495431D01*
X5382126Y-119653000D01*
X5793874Y-119653000D01*
X6174280Y-119495431D01*
X6291711Y-119378000D01*
X46824961Y-119378000D01*
X46910837Y-119463876D01*
X47291243Y-119621445D01*
X47702991Y-119621445D01*
X48083397Y-119463876D01*
X48374548Y-119172725D01*
X48532117Y-118792319D01*
X48532117Y-118380571D01*
X48517801Y-118346010D01*
X48522865Y-118346010D01*
X48903271Y-118188441D01*
X49194422Y-117897290D01*
X49351991Y-117516884D01*
X49351991Y-117346000D01*
X62477153Y-117346000D01*
X62552000Y-117360888D01*
X62626847Y-117346000D01*
X62626852Y-117346000D01*
X62848537Y-117301904D01*
X63099929Y-117133929D01*
X63142331Y-117070470D01*
X63876782Y-116336020D01*
X63908119Y-116349000D01*
X64463881Y-116349000D01*
X64977337Y-116136320D01*
X65370320Y-115743337D01*
X65456000Y-115536487D01*
X65541680Y-115743337D01*
X65934663Y-116136320D01*
X66448119Y-116349000D01*
X67003881Y-116349000D01*
X67517337Y-116136320D01*
X67910320Y-115743337D01*
X67996000Y-115536487D01*
X68081680Y-115743337D01*
X68474663Y-116136320D01*
X68988119Y-116349000D01*
X69543881Y-116349000D01*
X70057337Y-116136320D01*
X70450320Y-115743337D01*
X70663000Y-115229881D01*
X70663000Y-114674119D01*
X70450320Y-114160663D01*
X70057337Y-113767680D01*
X69543881Y-113555000D01*
X68988119Y-113555000D01*
X68956783Y-113567980D01*
X68743690Y-113354887D01*
X80895000Y-113354887D01*
X80895000Y-114045113D01*
X81159138Y-114682799D01*
X81647201Y-115170862D01*
X82284887Y-115435000D01*
X82975113Y-115435000D01*
X83612799Y-115170862D01*
X84100862Y-114682799D01*
X84365000Y-114045113D01*
X84365000Y-113354887D01*
X84100862Y-112717201D01*
X83612799Y-112229138D01*
X82975113Y-111965000D01*
X82284887Y-111965000D01*
X81647201Y-112229138D01*
X81159138Y-112717201D01*
X80895000Y-113354887D01*
X68743690Y-113354887D01*
X65902331Y-110513530D01*
X65859929Y-110450071D01*
X65608537Y-110282096D01*
X65386852Y-110238000D01*
X65386847Y-110238000D01*
X65312000Y-110223112D01*
X65237153Y-110238000D01*
X44524846Y-110238000D01*
X44449999Y-110223112D01*
X44375152Y-110238000D01*
X44375148Y-110238000D01*
X44153463Y-110282096D01*
X43902071Y-110450071D01*
X43859671Y-110513527D01*
X42401941Y-111971258D01*
X42398157Y-111952235D01*
X42257809Y-111742191D01*
X42047765Y-111601843D01*
X41800000Y-111552560D01*
X40200000Y-111552560D01*
X39952235Y-111601843D01*
X39742191Y-111742191D01*
X39601843Y-111952235D01*
X39575215Y-112086106D01*
X39494577Y-111965423D01*
X39019909Y-111648260D01*
X38601333Y-111565000D01*
X38318667Y-111565000D01*
X37900091Y-111648260D01*
X37425423Y-111965423D01*
X37190000Y-112317758D01*
X36954577Y-111965423D01*
X36479909Y-111648260D01*
X36061333Y-111565000D01*
X35778667Y-111565000D01*
X35360091Y-111648260D01*
X34885423Y-111965423D01*
X34650000Y-112317758D01*
X34414577Y-111965423D01*
X33939909Y-111648260D01*
X33521333Y-111565000D01*
X33238667Y-111565000D01*
X32820091Y-111648260D01*
X32345423Y-111965423D01*
X32110000Y-112317758D01*
X31874577Y-111965423D01*
X31399909Y-111648260D01*
X30981333Y-111565000D01*
X30809801Y-111565000D01*
X34404473Y-107970329D01*
X34467929Y-107927929D01*
X34635904Y-107676537D01*
X34644338Y-107634139D01*
X35844670Y-108834472D01*
X35887070Y-108897928D01*
X35950526Y-108940328D01*
X36138461Y-109065903D01*
X36186604Y-109075479D01*
X36360147Y-109109999D01*
X36360151Y-109109999D01*
X36434999Y-109124887D01*
X36509847Y-109109999D01*
X59723154Y-109109999D01*
X59798001Y-109124887D01*
X59872848Y-109109999D01*
X59872853Y-109109999D01*
X60094538Y-109065903D01*
X60215618Y-108985000D01*
X60403874Y-108985000D01*
X60784280Y-108827431D01*
X61075431Y-108536280D01*
X61233000Y-108155874D01*
X61233000Y-107744126D01*
X61075431Y-107363720D01*
X60784280Y-107072569D01*
X60403874Y-106915000D01*
X60378002Y-106915000D01*
X60378002Y-106765116D01*
X60291148Y-106555431D01*
X63765000Y-106555431D01*
X63765000Y-107444569D01*
X64105259Y-108266026D01*
X64733974Y-108894741D01*
X65555431Y-109235000D01*
X66444569Y-109235000D01*
X67266026Y-108894741D01*
X67290962Y-108869805D01*
X71051805Y-108869805D01*
X71284358Y-109431258D01*
X71775224Y-109952492D01*
X72428193Y-110246203D01*
X72713000Y-110129858D01*
X72713000Y-108585000D01*
X72967000Y-108585000D01*
X72967000Y-110129858D01*
X73251807Y-110246203D01*
X73904776Y-109952492D01*
X74395642Y-109431258D01*
X74628195Y-108869805D01*
X74511432Y-108585000D01*
X72967000Y-108585000D01*
X72713000Y-108585000D01*
X71168568Y-108585000D01*
X71051805Y-108869805D01*
X67290962Y-108869805D01*
X67894741Y-108266026D01*
X67985798Y-108046195D01*
X71051805Y-108046195D01*
X71168568Y-108331000D01*
X72713000Y-108331000D01*
X72713000Y-106786142D01*
X72967000Y-106786142D01*
X72967000Y-108331000D01*
X74511432Y-108331000D01*
X74628195Y-108046195D01*
X74395642Y-107484742D01*
X73904776Y-106963508D01*
X73251807Y-106669797D01*
X72967000Y-106786142D01*
X72713000Y-106786142D01*
X72428193Y-106669797D01*
X71775224Y-106963508D01*
X71284358Y-107484742D01*
X71051805Y-108046195D01*
X67985798Y-108046195D01*
X68235000Y-107444569D01*
X68235000Y-106555431D01*
X67894741Y-105733974D01*
X67266026Y-105105259D01*
X66444569Y-104765000D01*
X65555431Y-104765000D01*
X64733974Y-105105259D01*
X64105259Y-105733974D01*
X63765000Y-106555431D01*
X60291148Y-106555431D01*
X60220433Y-106384710D01*
X59929282Y-106093559D01*
X59548876Y-105935990D01*
X59137128Y-105935990D01*
X58756722Y-106093559D01*
X58465571Y-106384710D01*
X58308002Y-106765116D01*
X58308002Y-106936000D01*
X50605995Y-106936000D01*
X50608157Y-106932765D01*
X50657440Y-106685000D01*
X50657440Y-104985000D01*
X50608157Y-104737235D01*
X50467809Y-104527191D01*
X50295123Y-104411805D01*
X71051805Y-104411805D01*
X71284358Y-104973258D01*
X71775224Y-105494492D01*
X72428193Y-105788203D01*
X72713000Y-105671858D01*
X72713000Y-104127000D01*
X72967000Y-104127000D01*
X72967000Y-105671858D01*
X73251807Y-105788203D01*
X73904776Y-105494492D01*
X74395642Y-104973258D01*
X74628195Y-104411805D01*
X74511432Y-104127000D01*
X72967000Y-104127000D01*
X72713000Y-104127000D01*
X71168568Y-104127000D01*
X71051805Y-104411805D01*
X50295123Y-104411805D01*
X50257765Y-104386843D01*
X50010000Y-104337560D01*
X48310000Y-104337560D01*
X48062235Y-104386843D01*
X47852191Y-104527191D01*
X47711843Y-104737235D01*
X47702816Y-104782619D01*
X47690625Y-104764375D01*
X47199418Y-104436161D01*
X46766256Y-104350000D01*
X46473744Y-104350000D01*
X46040582Y-104436161D01*
X45549375Y-104764375D01*
X45350000Y-105062761D01*
X45150625Y-104764375D01*
X44840000Y-104556822D01*
X44840000Y-103588195D01*
X71051805Y-103588195D01*
X71168568Y-103873000D01*
X72713000Y-103873000D01*
X72713000Y-102328142D01*
X72967000Y-102328142D01*
X72967000Y-103873000D01*
X74511432Y-103873000D01*
X74628195Y-103588195D01*
X74395642Y-103026742D01*
X73904776Y-102505508D01*
X73251807Y-102211797D01*
X72967000Y-102328142D01*
X72713000Y-102328142D01*
X72428193Y-102211797D01*
X71775224Y-102505508D01*
X71284358Y-103026742D01*
X71051805Y-103588195D01*
X44840000Y-103588195D01*
X44840000Y-102320848D01*
X44854888Y-102246000D01*
X44840000Y-102171152D01*
X44840000Y-102171148D01*
X44795904Y-101949463D01*
X44627929Y-101698071D01*
X44564473Y-101655671D01*
X42194552Y-99285750D01*
X56065000Y-99285750D01*
X56065000Y-100426310D01*
X56161673Y-100659699D01*
X56340302Y-100838327D01*
X56573691Y-100935000D01*
X57714250Y-100935000D01*
X57873000Y-100776250D01*
X57873000Y-99127000D01*
X58127000Y-99127000D01*
X58127000Y-100776250D01*
X58285750Y-100935000D01*
X59426309Y-100935000D01*
X59659698Y-100838327D01*
X59838327Y-100659699D01*
X59935000Y-100426310D01*
X59935000Y-99285750D01*
X59776250Y-99127000D01*
X58127000Y-99127000D01*
X57873000Y-99127000D01*
X56223750Y-99127000D01*
X56065000Y-99285750D01*
X42194552Y-99285750D01*
X38523907Y-95615105D01*
X51365000Y-95615105D01*
X51365000Y-96384895D01*
X51659586Y-97096090D01*
X52203910Y-97640414D01*
X52915105Y-97935000D01*
X53684895Y-97935000D01*
X54396090Y-97640414D01*
X54462814Y-97573690D01*
X56065000Y-97573690D01*
X56065000Y-98714250D01*
X56223750Y-98873000D01*
X57873000Y-98873000D01*
X57873000Y-97223750D01*
X58127000Y-97223750D01*
X58127000Y-98873000D01*
X59776250Y-98873000D01*
X59935000Y-98714250D01*
X59935000Y-97573690D01*
X59838327Y-97340301D01*
X59659698Y-97161673D01*
X59426309Y-97065000D01*
X58285750Y-97065000D01*
X58127000Y-97223750D01*
X57873000Y-97223750D01*
X57714250Y-97065000D01*
X56573691Y-97065000D01*
X56340302Y-97161673D01*
X56161673Y-97340301D01*
X56065000Y-97573690D01*
X54462814Y-97573690D01*
X54940414Y-97096090D01*
X55235000Y-96384895D01*
X55235000Y-95615105D01*
X54940414Y-94903910D01*
X54396090Y-94359586D01*
X53684895Y-94065000D01*
X52915105Y-94065000D01*
X52203910Y-94359586D01*
X51659586Y-94903910D01*
X51365000Y-95615105D01*
X38523907Y-95615105D01*
X37611000Y-94702199D01*
X37611000Y-94536126D01*
X37453431Y-94155720D01*
X37162280Y-93864569D01*
X36781874Y-93707000D01*
X36370126Y-93707000D01*
X35989720Y-93864569D01*
X35983600Y-93870689D01*
X35785189Y-93788504D01*
X35373441Y-93788504D01*
X34993035Y-93946073D01*
X34701884Y-94237224D01*
X34544315Y-94617630D01*
X34544315Y-95029378D01*
X34701884Y-95409784D01*
X34993035Y-95700935D01*
X35373441Y-95858504D01*
X35539514Y-95858504D01*
X36140483Y-96459474D01*
X36182884Y-96522931D01*
X36434276Y-96690906D01*
X36655961Y-96735002D01*
X36655965Y-96735002D01*
X36730812Y-96749890D01*
X36744387Y-96747190D01*
X42145000Y-102147804D01*
X42144999Y-104453254D01*
X42119418Y-104436161D01*
X41686256Y-104350000D01*
X41393744Y-104350000D01*
X40960582Y-104436161D01*
X40469375Y-104764375D01*
X40270000Y-105062761D01*
X40070625Y-104764375D01*
X39579418Y-104436161D01*
X39146256Y-104350000D01*
X38853744Y-104350000D01*
X38420582Y-104436161D01*
X37929375Y-104764375D01*
X37730000Y-105062761D01*
X37530625Y-104764375D01*
X37039418Y-104436161D01*
X36606256Y-104350000D01*
X36313744Y-104350000D01*
X35880582Y-104436161D01*
X35389375Y-104764375D01*
X35190000Y-105062761D01*
X34990625Y-104764375D01*
X34499418Y-104436161D01*
X34066256Y-104350000D01*
X33773744Y-104350000D01*
X33340582Y-104436161D01*
X32849375Y-104764375D01*
X32521161Y-105255582D01*
X32405908Y-105835000D01*
X32521161Y-106414418D01*
X32849375Y-106905625D01*
X33131238Y-107093960D01*
X28623887Y-111601312D01*
X28441333Y-111565000D01*
X28158667Y-111565000D01*
X27740091Y-111648260D01*
X27265423Y-111965423D01*
X27030000Y-112317758D01*
X26794577Y-111965423D01*
X26319909Y-111648260D01*
X25901333Y-111565000D01*
X25618667Y-111565000D01*
X25200091Y-111648260D01*
X24725423Y-111965423D01*
X24490000Y-112317758D01*
X24254577Y-111965423D01*
X23779909Y-111648260D01*
X23361333Y-111565000D01*
X23078667Y-111565000D01*
X22660091Y-111648260D01*
X22185423Y-111965423D01*
X21950000Y-112317758D01*
X21714577Y-111965423D01*
X21239909Y-111648260D01*
X20821333Y-111565000D01*
X20538667Y-111565000D01*
X20120091Y-111648260D01*
X19645423Y-111965423D01*
X19410000Y-112317758D01*
X19174577Y-111965423D01*
X18699909Y-111648260D01*
X18281333Y-111565000D01*
X17998667Y-111565000D01*
X17580091Y-111648260D01*
X17105423Y-111965423D01*
X16870000Y-112317758D01*
X16634577Y-111965423D01*
X16159909Y-111648260D01*
X15741333Y-111565000D01*
X15458667Y-111565000D01*
X15040091Y-111648260D01*
X14565423Y-111965423D01*
X14330000Y-112317758D01*
X14094577Y-111965423D01*
X13619909Y-111648260D01*
X13201333Y-111565000D01*
X12918667Y-111565000D01*
X12500091Y-111648260D01*
X12025423Y-111965423D01*
X11790000Y-112317758D01*
X11554577Y-111965423D01*
X11079909Y-111648260D01*
X10661333Y-111565000D01*
X10378667Y-111565000D01*
X9960091Y-111648260D01*
X9485423Y-111965423D01*
X9250000Y-112317758D01*
X9014577Y-111965423D01*
X8539909Y-111648260D01*
X8121333Y-111565000D01*
X7838667Y-111565000D01*
X7420091Y-111648260D01*
X6945423Y-111965423D01*
X6710000Y-112317758D01*
X6474577Y-111965423D01*
X5999909Y-111648260D01*
X5581333Y-111565000D01*
X5298667Y-111565000D01*
X4880091Y-111648260D01*
X4405423Y-111965423D01*
X4088260Y-112440091D01*
X3976887Y-113000000D01*
X2574999Y-113000000D01*
X2574999Y-110129333D01*
X2928193Y-110288203D01*
X3213000Y-110171858D01*
X3213000Y-108627000D01*
X3467000Y-108627000D01*
X3467000Y-110171858D01*
X3751807Y-110288203D01*
X4404776Y-109994492D01*
X4895642Y-109473258D01*
X5128195Y-108911805D01*
X5011432Y-108627000D01*
X3467000Y-108627000D01*
X3213000Y-108627000D01*
X3193000Y-108627000D01*
X3193000Y-108373000D01*
X3213000Y-108373000D01*
X3213000Y-106828142D01*
X3467000Y-106828142D01*
X3467000Y-108373000D01*
X5011432Y-108373000D01*
X5128195Y-108088195D01*
X4895642Y-107526742D01*
X4404776Y-107005508D01*
X3751807Y-106711797D01*
X3467000Y-106828142D01*
X3213000Y-106828142D01*
X2928193Y-106711797D01*
X2574999Y-106870667D01*
X2574999Y-105769333D01*
X2928193Y-105928203D01*
X3213000Y-105811858D01*
X3213000Y-104267000D01*
X3467000Y-104267000D01*
X3467000Y-105811858D01*
X3751807Y-105928203D01*
X4404776Y-105634492D01*
X4895642Y-105113258D01*
X5128195Y-104551805D01*
X5011432Y-104267000D01*
X3467000Y-104267000D01*
X3213000Y-104267000D01*
X3193000Y-104267000D01*
X3193000Y-104013000D01*
X3213000Y-104013000D01*
X3213000Y-102468142D01*
X3467000Y-102468142D01*
X3467000Y-104013000D01*
X5011432Y-104013000D01*
X5128195Y-103728195D01*
X4895642Y-103166742D01*
X4404776Y-102645508D01*
X3751807Y-102351797D01*
X3467000Y-102468142D01*
X3213000Y-102468142D01*
X2928193Y-102351797D01*
X2574999Y-102510667D01*
X2574999Y-97678390D01*
X2864991Y-97388398D01*
X2864990Y-100050143D01*
X2850102Y-100124990D01*
X2864990Y-100199837D01*
X2864990Y-100199841D01*
X2909086Y-100421526D01*
X3077061Y-100672919D01*
X3140520Y-100715321D01*
X11409671Y-108984473D01*
X11452071Y-109047929D01*
X11515527Y-109090329D01*
X11652560Y-109181892D01*
X11652560Y-109700000D01*
X11701843Y-109947765D01*
X11842191Y-110157809D01*
X12052235Y-110298157D01*
X12300000Y-110347440D01*
X14700000Y-110347440D01*
X14947765Y-110298157D01*
X15157809Y-110157809D01*
X15298157Y-109947765D01*
X15347440Y-109700000D01*
X15347440Y-107300000D01*
X15298157Y-107052235D01*
X15157809Y-106842191D01*
X14947765Y-106701843D01*
X14700000Y-106652560D01*
X12300000Y-106652560D01*
X12052235Y-106701843D01*
X11842191Y-106842191D01*
X11701843Y-107052235D01*
X11689432Y-107114630D01*
X11130233Y-106555431D01*
X17765000Y-106555431D01*
X17765000Y-107444569D01*
X18105259Y-108266026D01*
X18733974Y-108894741D01*
X19555431Y-109235000D01*
X20444569Y-109235000D01*
X21266026Y-108894741D01*
X21894741Y-108266026D01*
X22235000Y-107444569D01*
X22235000Y-106555431D01*
X21894741Y-105733974D01*
X21885273Y-105724506D01*
X23507000Y-105724506D01*
X23507000Y-106275494D01*
X23717853Y-106784540D01*
X24107460Y-107174147D01*
X24616506Y-107385000D01*
X25167494Y-107385000D01*
X25676540Y-107174147D01*
X25879170Y-106971517D01*
X26640088Y-106971517D01*
X26708077Y-107212460D01*
X27227171Y-107397201D01*
X27777448Y-107369230D01*
X28155923Y-107212460D01*
X28223912Y-106971517D01*
X27432000Y-106179605D01*
X26640088Y-106971517D01*
X25879170Y-106971517D01*
X26066147Y-106784540D01*
X26155397Y-106569070D01*
X26219540Y-106723923D01*
X26460483Y-106791912D01*
X27252395Y-106000000D01*
X27611605Y-106000000D01*
X28403517Y-106791912D01*
X28574560Y-106743647D01*
X28574560Y-106750000D01*
X28623843Y-106997765D01*
X28764191Y-107207809D01*
X28974235Y-107348157D01*
X29222000Y-107397440D01*
X30722000Y-107397440D01*
X30969765Y-107348157D01*
X31179809Y-107207809D01*
X31320157Y-106997765D01*
X31369440Y-106750000D01*
X31369440Y-105250000D01*
X31320157Y-105002235D01*
X31179809Y-104792191D01*
X30969765Y-104651843D01*
X30722000Y-104602560D01*
X29222000Y-104602560D01*
X28974235Y-104651843D01*
X28764191Y-104792191D01*
X28623843Y-105002235D01*
X28574560Y-105250000D01*
X28574560Y-105256353D01*
X28403517Y-105208088D01*
X27611605Y-106000000D01*
X27252395Y-106000000D01*
X26460483Y-105208088D01*
X26219540Y-105276077D01*
X26160255Y-105442658D01*
X26066147Y-105215460D01*
X25879170Y-105028483D01*
X26640088Y-105028483D01*
X27432000Y-105820395D01*
X28223912Y-105028483D01*
X28155923Y-104787540D01*
X27636829Y-104602799D01*
X27086552Y-104630770D01*
X26708077Y-104787540D01*
X26640088Y-105028483D01*
X25879170Y-105028483D01*
X25676540Y-104825853D01*
X25167494Y-104615000D01*
X24616506Y-104615000D01*
X24107460Y-104825853D01*
X23717853Y-105215460D01*
X23507000Y-105724506D01*
X21885273Y-105724506D01*
X21266026Y-105105259D01*
X20444569Y-104765000D01*
X19555431Y-104765000D01*
X18733974Y-105105259D01*
X18105259Y-105733974D01*
X17765000Y-106555431D01*
X11130233Y-106555431D01*
X5444087Y-100869286D01*
X5812862Y-100716534D01*
X6216534Y-100312862D01*
X6435000Y-99785439D01*
X6435000Y-99740581D01*
X11652560Y-104707699D01*
X11652560Y-105340000D01*
X11701843Y-105587765D01*
X11842191Y-105797809D01*
X12052235Y-105938157D01*
X12300000Y-105987440D01*
X14700000Y-105987440D01*
X14947765Y-105938157D01*
X15157809Y-105797809D01*
X15298157Y-105587765D01*
X15347440Y-105340000D01*
X15347440Y-102940000D01*
X15298157Y-102692235D01*
X15157809Y-102482191D01*
X14947765Y-102341843D01*
X14700000Y-102292560D01*
X14003175Y-102292560D01*
X11417041Y-99830561D01*
X22187000Y-99830561D01*
X22187000Y-100401439D01*
X22405466Y-100928862D01*
X22809138Y-101332534D01*
X22889932Y-101366000D01*
X22809138Y-101399466D01*
X22405466Y-101803138D01*
X22187000Y-102330561D01*
X22187000Y-102901439D01*
X22405466Y-103428862D01*
X22809138Y-103832534D01*
X23336561Y-104051000D01*
X23907439Y-104051000D01*
X24434862Y-103832534D01*
X24643651Y-103623745D01*
X30667861Y-103623745D01*
X30741995Y-103869864D01*
X31279223Y-104062965D01*
X31849454Y-104035778D01*
X32250005Y-103869864D01*
X32324139Y-103623745D01*
X31496000Y-102795605D01*
X30667861Y-103623745D01*
X24643651Y-103623745D01*
X24838534Y-103428862D01*
X25057000Y-102901439D01*
X25057000Y-102399223D01*
X30049035Y-102399223D01*
X30076222Y-102969454D01*
X30242136Y-103370005D01*
X30488255Y-103444139D01*
X31316395Y-102616000D01*
X31675605Y-102616000D01*
X32503745Y-103444139D01*
X32749864Y-103370005D01*
X32942965Y-102832777D01*
X32915778Y-102262546D01*
X32749864Y-101861995D01*
X32503745Y-101787861D01*
X31675605Y-102616000D01*
X31316395Y-102616000D01*
X30488255Y-101787861D01*
X30242136Y-101861995D01*
X30049035Y-102399223D01*
X25057000Y-102399223D01*
X25057000Y-102330561D01*
X24838534Y-101803138D01*
X24434862Y-101399466D01*
X24354068Y-101366000D01*
X24434862Y-101332534D01*
X24838534Y-100928862D01*
X25057000Y-100401439D01*
X25057000Y-99830561D01*
X30061000Y-99830561D01*
X30061000Y-100401439D01*
X30279466Y-100928862D01*
X30683138Y-101332534D01*
X30748299Y-101359525D01*
X30741995Y-101362136D01*
X30667861Y-101608255D01*
X31496000Y-102436395D01*
X32324139Y-101608255D01*
X32250005Y-101362136D01*
X32243254Y-101359710D01*
X32308862Y-101332534D01*
X32712534Y-100928862D01*
X32931000Y-100401439D01*
X32931000Y-99830561D01*
X32712534Y-99303138D01*
X32308862Y-98899466D01*
X31781439Y-98681000D01*
X31210561Y-98681000D01*
X30683138Y-98899466D01*
X30279466Y-99303138D01*
X30061000Y-99830561D01*
X25057000Y-99830561D01*
X24838534Y-99303138D01*
X24434862Y-98899466D01*
X23907439Y-98681000D01*
X23336561Y-98681000D01*
X22809138Y-98899466D01*
X22405466Y-99303138D01*
X22187000Y-99830561D01*
X11417041Y-99830561D01*
X10213720Y-98685000D01*
X18048050Y-98685000D01*
X18214002Y-98718010D01*
X18379954Y-98685000D01*
X18379959Y-98685000D01*
X18871456Y-98587235D01*
X19428819Y-98214817D01*
X19522828Y-98074123D01*
X19938123Y-97658828D01*
X20078818Y-97564818D01*
X20451236Y-97007455D01*
X20549001Y-96515958D01*
X20549001Y-96515954D01*
X20582011Y-96350002D01*
X20549001Y-96184050D01*
X20549001Y-92815951D01*
X20582011Y-92649999D01*
X20549001Y-92484047D01*
X20549001Y-92484042D01*
X20451236Y-91992545D01*
X20078818Y-91435182D01*
X19938125Y-91341174D01*
X19482827Y-90885876D01*
X19388819Y-90745183D01*
X18831456Y-90372765D01*
X18339959Y-90275000D01*
X18339954Y-90275000D01*
X18174002Y-90241990D01*
X18008050Y-90275000D01*
X17978701Y-90275000D01*
X18162839Y-89999418D01*
X18278092Y-89420000D01*
X18162839Y-88840582D01*
X17972013Y-88554990D01*
X24265191Y-88554990D01*
X24415001Y-88704801D01*
X24415002Y-91870149D01*
X24400113Y-91945001D01*
X24415002Y-92019853D01*
X24459098Y-92241538D01*
X24627073Y-92492930D01*
X24690529Y-92535330D01*
X25860791Y-93705592D01*
X25787908Y-94072000D01*
X25903161Y-94651418D01*
X26231375Y-95142625D01*
X26722582Y-95470839D01*
X27155744Y-95557000D01*
X27448256Y-95557000D01*
X27881418Y-95470839D01*
X28372625Y-95142625D01*
X28700839Y-94651418D01*
X28816092Y-94072000D01*
X28700839Y-93492582D01*
X28372625Y-93001375D01*
X28074239Y-92802000D01*
X28353947Y-92615105D01*
X56065000Y-92615105D01*
X56065000Y-93384895D01*
X56359586Y-94096090D01*
X56903910Y-94640414D01*
X57615105Y-94935000D01*
X58384895Y-94935000D01*
X59096090Y-94640414D01*
X59640414Y-94096090D01*
X59935000Y-93384895D01*
X59935000Y-92615105D01*
X59640414Y-91903910D01*
X59096090Y-91359586D01*
X58384895Y-91065000D01*
X57615105Y-91065000D01*
X56903910Y-91359586D01*
X56359586Y-91903910D01*
X56065000Y-92615105D01*
X28353947Y-92615105D01*
X28372625Y-92602625D01*
X28700839Y-92111418D01*
X28816092Y-91532000D01*
X28700839Y-90952582D01*
X28372625Y-90461375D01*
X28354381Y-90449184D01*
X28399765Y-90440157D01*
X28609809Y-90299809D01*
X28750157Y-90089765D01*
X28799440Y-89842000D01*
X28799440Y-88142000D01*
X28750157Y-87894235D01*
X28609809Y-87684191D01*
X28399765Y-87543843D01*
X28152000Y-87494560D01*
X26452000Y-87494560D01*
X26204235Y-87543843D01*
X25994191Y-87684191D01*
X25853843Y-87894235D01*
X25831808Y-88005016D01*
X25765330Y-87905526D01*
X25722930Y-87842070D01*
X25659474Y-87799670D01*
X25170323Y-87310520D01*
X25127921Y-87247061D01*
X24876529Y-87079086D01*
X24654844Y-87034990D01*
X24654839Y-87034990D01*
X24579992Y-87020102D01*
X24505145Y-87034990D01*
X11458444Y-87034990D01*
X11383597Y-87020102D01*
X11308750Y-87034990D01*
X11308746Y-87034990D01*
X11087061Y-87079086D01*
X11024500Y-87120888D01*
X10899124Y-87204661D01*
X10899122Y-87204663D01*
X10835669Y-87247061D01*
X10793271Y-87310514D01*
X1330527Y-96773260D01*
X1267071Y-96815660D01*
X1224671Y-96879116D01*
X1224670Y-96879117D01*
X1099096Y-97067052D01*
X1040111Y-97363589D01*
X710000Y-97363589D01*
X710000Y-90031618D01*
X780578Y-89240808D01*
X981705Y-88505611D01*
X1309846Y-87817649D01*
X1754628Y-87198669D01*
X2301988Y-86668239D01*
X2934639Y-86243116D01*
X3632561Y-85936749D01*
X4379183Y-85757501D01*
X5026030Y-85710000D01*
X65831051Y-85710000D01*
X65219876Y-86321175D01*
G04 #@! TD*
M02*
